{"glyphs":{"0":{"ha":997,"x_min":50,"x_max":947,"o":"m 50 511 q 174 899 50 750 q 499 1047 297 1047 q 824 899 700 1047 q 947 511 947 750 q 828 126 947 269 q 499 -18 708 -18 q 169 126 289 -18 q 50 511 50 269 m 272 511 q 331 263 272 347 q 499 179 390 179 q 666 263 607 179 q 725 511 725 347 q 666 765 725 679 q 499 850 607 850 q 331 765 390 850 q 272 511 272 679 z "},"1":{"ha":607,"x_min":47,"x_max":496,"o":"m 281 826 l 47 826 l 47 1028 l 496 1028 l 496 0 l 281 0 l 281 826 z "},"2":{"ha":840,"x_min":42,"x_max":799,"o":"m 799 3 l 65 0 l 65 167 l 404 449 q 524 572 489 518 q 560 688 560 625 q 523 806 560 765 q 417 847 486 847 q 305 800 344 847 q 265 667 265 753 l 42 667 q 144 944 42 840 q 415 1047 246 1047 q 691 956 592 1047 q 790 701 790 865 q 578 340 790 518 l 424 211 l 799 211 l 799 3 z "},"3":{"ha":792,"x_min":11,"x_max":763,"o":"m 364 483 l 214 483 l 214 628 q 218 631 215 629 q 222 635 221 633 l 446 831 l 58 831 l 58 1028 l 728 1028 l 728 849 l 511 658 q 692 540 622 625 q 763 331 763 456 q 651 77 763 172 q 379 -18 540 -18 q 117 76 222 -18 q 11 336 11 169 l 233 336 q 274 221 233 261 q 385 181 315 181 q 491 222 450 181 q 532 332 532 264 q 491 441 532 399 q 364 483 450 483 z "},"4":{"ha":913,"x_min":28,"x_max":878,"o":"m 878 182 l 751 182 l 751 0 l 539 0 l 539 182 l 28 182 l 28 379 l 471 1028 l 751 1028 l 751 379 l 878 379 l 878 182 m 267 379 l 539 379 l 539 779 l 267 379 z "},"5":{"ha":849,"x_min":46,"x_max":814,"o":"m 414 -17 q 147 81 249 -17 q 46 338 46 178 l 268 338 q 308 224 268 265 q 419 182 349 182 q 540 228 496 182 q 583 356 583 275 q 542 479 583 435 q 424 524 500 524 q 329 499 372 524 q 267 438 286 475 l 61 476 l 190 1028 l 749 1028 l 749 819 l 351 819 l 311 669 q 475 710 379 710 q 720 617 626 710 q 814 369 814 525 q 703 90 814 197 q 414 -17 592 -17 z "},"6":{"ha":875,"x_min":42,"x_max":833,"o":"m 213 751 l 414 1028 l 671 1028 l 436 713 q 478 717 457 717 q 735 617 636 717 q 833 360 833 518 q 723 87 833 192 q 440 -18 613 -18 q 155 90 268 -18 q 42 361 42 199 q 79 537 42 454 q 213 751 117 619 m 318 486 q 295 462 318 486 q 272 358 272 438 q 319 230 272 279 q 440 181 365 181 q 560 230 514 181 q 606 358 606 279 q 560 486 606 438 q 440 535 514 535 q 318 486 364 535 z "},"7":{"ha":776,"x_min":7,"x_max":769,"o":"m 7 1028 l 769 1028 l 769 819 l 415 0 l 182 0 l 543 819 l 7 819 l 7 1028 z "},"8":{"ha":915,"x_min":50,"x_max":865,"o":"m 50 297 q 94 456 50 386 q 214 556 139 525 q 88 764 88 618 q 191 969 88 890 q 460 1047 294 1047 q 726 969 625 1047 q 828 761 828 890 q 697 554 828 613 q 820 456 775 525 q 865 299 865 388 q 755 69 865 154 q 457 -17 644 -17 q 160 68 269 -17 q 50 297 50 153 m 290 742 q 335 660 290 690 q 456 629 379 629 q 576 660 532 629 q 621 742 621 690 q 576 826 621 794 q 456 857 532 857 q 335 826 379 857 q 290 742 290 794 m 321 410 q 296 393 321 410 q 271 313 271 375 q 320 215 271 250 q 457 181 369 181 q 594 215 544 181 q 643 313 643 250 q 593 410 643 375 q 457 446 543 446 q 321 410 371 446 z "},"9":{"ha":875,"x_min":42,"x_max":833,"o":"m 663 276 l 461 0 l 204 0 l 439 315 q 397 311 418 311 q 140 410 239 311 q 42 668 42 510 q 152 941 42 836 q 435 1046 263 1046 q 720 938 607 1046 q 833 667 833 829 q 796 491 833 574 q 663 276 758 408 m 557 542 q 580 566 557 542 q 603 669 603 590 q 556 798 603 749 q 435 847 510 847 q 315 798 361 847 q 269 669 269 749 q 315 542 269 590 q 435 493 361 493 q 557 542 511 493 z "}," ":{"ha":368,"x_min":0,"x_max":0,"o":""},"!":{"ha":486,"x_min":114,"x_max":372,"o":"m 329 307 l 153 307 q 114 796 114 504 l 114 1028 l 372 1028 l 372 796 q 329 307 372 503 m 242 -18 q 151 19 189 -18 q 114 107 114 56 q 151 197 114 160 q 242 233 189 233 q 331 196 293 233 q 369 107 369 158 q 331 19 369 56 q 242 -18 293 -18 z "},"\"":{"ha":703,"x_min":94,"x_max":608,"o":"m 303 904 l 253 589 l 146 589 l 94 904 q 118 1003 83 969 q 204 1038 153 1038 q 281 1003 249 1038 q 303 904 314 969 m 608 904 l 558 589 l 451 589 l 400 904 q 424 1003 389 969 q 510 1038 458 1038 q 587 1003 554 1038 q 608 904 619 969 z "},"#":{"ha":1036,"x_min":51,"x_max":985,"o":"m 93 444 l 217 444 l 243 582 l 101 582 l 143 782 l 282 782 l 331 1028 l 543 1028 l 494 782 l 632 782 l 679 1028 l 892 1028 l 844 782 l 985 782 l 943 582 l 806 582 l 778 444 l 939 444 l 899 244 l 739 244 l 692 0 l 479 0 l 526 244 l 389 244 l 342 0 l 129 0 l 176 244 l 51 244 l 93 444 m 429 444 l 565 444 l 593 582 l 456 582 l 429 444 z "},"$":{"ha":846,"x_min":35,"x_max":804,"o":"m 365 -129 l 365 -17 q 124 81 213 -4 q 35 299 35 165 l 258 299 q 365 179 258 199 l 365 419 l 328 426 q 50 729 50 482 q 137 940 50 854 q 365 1043 224 1026 l 365 1158 l 493 1158 l 493 1043 q 709 944 631 1026 q 788 731 788 861 l 571 731 q 493 844 571 817 l 493 599 l 533 590 q 740 494 675 561 q 804 310 804 428 q 720 93 804 179 q 493 -12 636 7 l 493 -129 l 365 -129 m 365 847 q 269 738 269 825 q 365 625 269 650 l 365 847 m 586 288 q 493 393 586 374 l 493 185 q 586 288 586 211 z "},"%":{"ha":1374,"x_min":36,"x_max":1338,"o":"m 514 969 q 553 930 514 969 q 592 768 592 890 q 514 567 592 646 q 314 489 436 489 q 114 567 192 489 q 36 768 36 646 q 114 969 36 890 q 314 1047 192 1047 q 514 969 436 1047 m 1181 1025 l 400 0 l 190 0 l 971 1025 l 1181 1025 m 394 683 q 410 699 394 683 q 425 768 425 715 q 394 853 425 821 q 314 886 364 886 q 233 853 264 886 q 203 768 203 821 q 233 683 203 715 q 314 650 264 650 q 394 683 364 650 m 1260 462 q 1299 423 1260 462 q 1338 261 1338 383 q 1260 60 1338 139 q 1060 -18 1182 -18 q 860 60 938 -18 q 782 261 782 139 q 860 462 782 383 q 1060 540 938 540 q 1260 462 1182 540 m 1140 176 q 1156 192 1140 176 q 1171 261 1171 208 q 1140 347 1171 314 q 1060 379 1110 379 q 979 347 1010 379 q 949 261 949 314 q 979 176 949 208 q 1060 143 1010 143 q 1140 176 1110 143 z "},"&":{"ha":1069,"x_min":64,"x_max":1050,"o":"m 803 0 l 746 64 q 447 -18 621 -18 q 171 65 278 -18 q 64 279 64 147 q 123 445 64 369 q 289 569 182 521 q 213 683 235 632 q 190 796 190 735 q 270 974 190 903 q 471 1046 350 1046 q 667 978 590 1046 q 743 804 743 911 q 567 535 743 653 l 728 356 q 747 504 747 422 l 957 504 q 874 194 957 322 l 1050 0 l 803 0 m 392 797 q 464 649 392 733 q 546 796 546 699 q 526 856 546 835 q 471 878 506 878 q 413 856 435 878 q 392 797 392 835 m 292 303 q 341 203 292 239 q 476 167 390 167 q 619 204 558 167 l 392 457 q 292 303 292 399 z "},"'":{"ha":397,"x_min":94,"x_max":303,"o":"m 303 904 l 253 589 l 146 589 l 94 904 q 118 1003 83 969 q 204 1038 153 1038 q 281 1003 249 1038 q 303 904 314 969 z "},"(":{"ha":474,"x_min":56,"x_max":474,"o":"m 474 -294 l 310 -294 q 124 10 193 -174 q 56 403 56 193 q 120 784 56 599 q 310 1100 185 969 l 474 1100 q 326 792 381 975 q 272 403 272 608 q 323 24 272 208 q 474 -294 374 -161 z "},")":{"ha":474,"x_min":0,"x_max":418,"o":"m 164 -294 l 0 -294 q 151 24 100 -161 q 201 403 201 208 q 147 792 201 608 q 0 1100 93 975 l 164 1100 q 353 784 289 969 q 418 403 418 599 q 349 10 418 193 q 164 -294 281 -174 z "},"*":{"ha":597,"x_min":28,"x_max":569,"o":"m 125 782 l 28 817 l 67 917 l 160 886 q 257 835 211 869 q 244 944 244 885 l 244 1047 l 351 1047 l 351 944 q 339 835 351 890 q 438 886 388 869 l 532 917 l 569 817 l 471 782 q 363 760 426 765 q 438 681 414 718 l 494 593 l 407 533 l 349 615 q 296 713 317 660 q 247 615 282 661 l 185 533 l 97 593 l 157 681 q 233 760 185 719 q 125 782 167 767 z "},"+":{"ha":917,"x_min":111,"x_max":806,"o":"m 111 557 l 369 557 l 369 815 l 547 815 l 547 557 l 806 557 l 806 379 l 547 379 l 547 119 l 369 119 l 369 379 l 111 379 l 111 557 z "},",":{"ha":428,"x_min":86,"x_max":342,"o":"m 342 71 q 279 -99 342 -29 q 118 -179 217 -168 l 118 -103 q 206 -65 172 -93 q 242 4 239 -37 q 201 -4 225 -4 q 119 28 153 -4 q 86 106 86 60 q 119 198 86 163 q 206 233 151 233 q 303 188 265 233 q 342 71 342 143 z "},"-":{"ha":642,"x_min":83,"x_max":558,"o":"m 83 281 l 83 469 l 558 469 l 558 281 l 83 281 z "},".":{"ha":428,"x_min":86,"x_max":342,"o":"m 214 -18 q 124 19 161 -18 q 86 107 86 56 q 124 197 86 160 q 214 233 161 233 q 303 196 265 233 q 342 107 342 158 q 303 19 342 56 q 214 -18 265 -18 z "},"/":{"ha":614,"x_min":0,"x_max":614,"o":"m 213 0 l 0 0 l 400 1025 l 614 1025 l 213 0 z "},":":{"ha":456,"x_min":100,"x_max":356,"o":"m 228 471 q 138 508 175 471 q 100 596 100 544 q 138 685 100 649 q 228 722 175 722 q 317 685 279 722 q 356 596 356 647 q 317 508 356 544 q 228 471 279 471 m 228 -18 q 138 19 175 -18 q 100 107 100 56 q 138 197 100 160 q 228 233 175 233 q 317 196 279 233 q 356 107 356 158 q 317 19 356 56 q 228 -18 279 -18 z "},";":{"ha":456,"x_min":100,"x_max":356,"o":"m 228 471 q 138 508 175 471 q 100 596 100 544 q 138 685 100 649 q 228 722 175 722 q 317 685 279 722 q 356 596 356 647 q 317 508 356 544 q 228 471 279 471 m 356 71 q 293 -99 356 -29 q 132 -179 231 -168 l 132 -103 q 219 -65 186 -93 q 256 4 253 -37 q 215 -4 239 -4 q 133 28 167 -4 q 100 106 100 60 q 133 198 100 163 q 219 233 165 233 q 317 188 279 233 q 356 71 356 143 z "},"<":{"ha":917,"x_min":111,"x_max":806,"o":"m 806 203 l 806 -6 l 111 236 l 111 464 l 806 706 l 806 497 l 315 350 l 806 203 z "},"=":{"ha":917,"x_min":111,"x_max":806,"o":"m 111 664 l 806 664 l 806 486 l 111 486 l 111 664 m 111 358 l 806 358 l 806 181 l 111 181 l 111 358 z "},">":{"ha":917,"x_min":111,"x_max":806,"o":"m 806 236 l 111 -6 l 111 203 l 601 350 l 111 497 l 111 706 l 806 464 l 806 236 z "},"?":{"ha":801,"x_min":43,"x_max":758,"o":"m 463 279 l 269 279 l 269 308 q 282 397 269 357 q 320 469 294 436 q 366 520 346 501 q 421 567 386 539 q 476 613 457 596 q 511 660 494 631 q 528 722 528 690 q 496 815 528 782 q 404 847 464 847 q 303 805 340 847 q 267 689 267 763 l 43 689 q 145 948 43 849 q 410 1047 247 1047 q 666 965 574 1047 q 758 738 758 883 q 743 640 758 683 q 697 561 728 596 q 643 507 667 526 q 581 461 619 488 q 492 388 522 422 q 463 308 463 354 l 463 279 m 372 -18 q 282 19 319 -18 q 244 107 244 56 q 282 197 244 160 q 372 233 319 233 q 462 196 424 233 q 500 107 500 158 q 462 19 500 57 q 372 -18 424 -18 z "},"@":{"ha":1343,"x_min":69,"x_max":1274,"o":"m 369 317 q 428 453 369 401 q 603 515 488 506 l 779 529 l 779 539 q 672 633 779 633 q 546 546 546 633 l 385 546 q 466 717 385 653 q 682 781 547 781 q 894 708 819 781 q 968 499 968 635 l 968 315 q 1029 240 968 240 q 1108 307 1078 240 q 1138 481 1138 374 q 1009 797 1138 674 q 679 919 881 919 q 340 783 474 919 q 206 439 206 647 q 340 93 206 229 q 679 -43 474 -43 q 951 43 818 -43 l 1008 -75 q 679 -171 860 -171 q 242 2 415 -171 q 69 439 69 175 q 243 874 69 701 q 679 1047 417 1047 q 1105 886 936 1047 q 1274 481 1274 725 q 1199 213 1274 311 q 997 115 1125 115 q 811 228 850 115 q 734 148 794 181 q 600 115 674 115 q 431 169 492 115 q 369 317 369 222 m 567 325 q 654 258 567 258 q 747 287 714 258 q 781 367 781 315 l 781 400 l 682 392 q 592 371 618 386 q 567 325 567 356 z "},"A":{"ha":976,"x_min":13,"x_max":964,"o":"m 247 0 l 13 0 l 379 1028 l 599 1028 l 964 0 l 725 0 l 653 217 l 321 217 l 247 0 m 460 625 l 386 406 l 589 406 l 515 625 q 488 725 492 697 q 460 625 482 689 z "},"B":{"ha":924,"x_min":107,"x_max":879,"o":"m 107 0 l 107 1028 l 535 1028 q 778 951 690 1028 q 867 743 867 875 q 724 513 867 575 q 879 283 879 461 q 790 74 879 147 q 535 0 701 0 l 107 0 m 511 831 l 332 831 l 332 607 l 511 607 q 604 636 572 607 q 636 721 636 665 q 511 831 636 831 m 522 418 l 332 418 l 332 197 l 522 197 q 649 311 649 197 q 522 418 649 418 z "},"C":{"ha":1079,"x_min":50,"x_max":1036,"o":"m 551 -17 q 185 126 321 -17 q 50 513 50 268 q 190 899 50 753 q 561 1044 331 1044 q 883 942 754 1044 q 1035 667 1011 839 l 797 667 q 711 786 774 744 q 556 828 649 828 q 359 744 431 828 q 288 514 288 661 q 360 285 288 369 q 556 200 432 200 q 716 244 650 200 q 803 364 782 288 l 1036 364 q 876 88 1008 192 q 551 -17 744 -17 z "},"D":{"ha":1057,"x_min":107,"x_max":1007,"o":"m 510 0 l 107 0 l 107 1028 l 496 1028 q 865 884 722 1028 q 1007 511 1007 740 q 868 143 1007 286 q 510 0 729 0 m 474 819 l 332 819 l 332 208 l 488 208 q 695 288 621 208 q 769 511 769 368 q 692 738 769 657 q 474 819 614 819 z "},"E":{"ha":838,"x_min":107,"x_max":760,"o":"m 760 0 l 107 0 l 107 1028 l 760 1028 l 760 819 l 332 819 l 332 618 l 711 618 l 711 421 l 332 421 l 332 208 l 760 208 l 760 0 z "},"F":{"ha":808,"x_min":107,"x_max":761,"o":"m 693 401 l 332 401 l 332 0 l 107 0 l 107 1028 l 761 1028 l 761 819 l 332 819 l 332 604 l 693 604 l 693 401 z "},"G":{"ha":1113,"x_min":50,"x_max":1033,"o":"m 569 833 q 360 745 433 833 q 288 504 288 657 q 364 274 288 354 q 568 194 440 194 q 751 250 688 194 q 822 393 814 306 l 550 393 l 550 590 l 1033 590 l 1033 0 l 840 0 l 828 93 q 708 14 786 43 q 539 -15 631 -15 q 186 130 322 -15 q 50 511 50 275 q 194 895 50 746 q 575 1044 339 1044 q 888 944 761 1044 q 1033 678 1015 843 l 797 678 q 716 794 778 756 q 569 833 654 833 z "},"H":{"ha":1061,"x_min":107,"x_max":954,"o":"m 332 0 l 107 0 l 107 1028 l 332 1028 l 332 622 l 729 622 l 729 1028 l 954 1028 l 954 0 l 729 0 l 729 414 l 332 414 l 332 0 z "},"I":{"ha":439,"x_min":107,"x_max":332,"o":"m 332 1028 l 332 0 l 107 0 l 107 1028 l 332 1028 z "},"J":{"ha":801,"x_min":28,"x_max":701,"o":"m 28 294 l 28 367 l 244 367 l 244 294 q 273 220 244 250 q 361 190 301 190 q 476 303 476 190 l 476 1028 l 701 1028 l 701 289 q 609 68 701 154 q 364 -18 517 -18 q 114 69 200 -18 q 28 294 28 156 z "},"K":{"ha":985,"x_min":107,"x_max":971,"o":"m 332 1028 l 332 536 l 703 1028 l 968 1028 l 632 589 l 971 0 l 711 0 l 485 397 l 332 197 l 332 0 l 107 0 l 107 1028 l 332 1028 z "},"L":{"ha":772,"x_min":107,"x_max":738,"o":"m 332 1028 l 332 208 l 738 208 l 738 0 l 107 0 l 107 1028 l 332 1028 z "},"M":{"ha":1265,"x_min":107,"x_max":1158,"o":"m 325 0 l 107 0 l 107 1028 l 325 1028 l 631 261 l 938 1028 l 1158 1028 l 1158 0 l 940 0 l 940 215 q 951 563 940 486 l 733 0 l 528 0 l 311 563 q 325 288 325 478 l 325 0 z "},"N":{"ha":1092,"x_min":107,"x_max":985,"o":"m 329 0 l 107 0 l 107 1028 l 329 1028 l 763 374 l 763 1028 l 985 1028 l 985 0 l 763 0 l 329 653 l 329 0 z "},"O":{"ha":1107,"x_min":50,"x_max":1057,"o":"m 917 899 q 987 825 917 899 q 1057 515 1057 751 q 916 131 1057 279 q 551 -17 775 -17 q 190 131 329 -17 q 50 514 50 278 q 190 898 50 750 q 553 1046 331 1046 q 917 899 776 1046 m 819 515 q 749 746 819 663 q 554 829 678 829 q 358 746 429 829 q 288 515 288 663 q 358 284 288 368 q 554 200 429 200 q 749 285 678 200 q 819 515 819 369 z "},"P":{"ha":908,"x_min":107,"x_max":874,"o":"m 524 342 l 332 342 l 332 0 l 107 0 l 107 1028 l 524 1028 q 777 933 681 1028 q 874 685 874 839 q 777 436 874 531 q 524 342 681 342 m 474 828 l 332 828 l 332 542 l 474 542 q 636 685 636 542 q 474 828 636 828 z "},"Q":{"ha":1107,"x_min":50,"x_max":1057,"o":"m 913 -89 l 797 42 q 551 -17 688 -17 q 190 131 329 -17 q 50 514 50 278 q 190 898 50 750 q 553 1046 331 1046 q 917 899 776 1046 q 1057 515 1057 751 q 943 163 1057 306 l 1054 36 l 913 -89 m 819 515 q 749 746 819 663 q 554 829 678 829 q 358 746 429 829 q 288 515 288 663 q 358 284 288 368 q 554 200 429 200 q 644 214 604 200 l 510 367 l 651 492 l 785 342 q 819 515 819 415 z "},"R":{"ha":956,"x_min":107,"x_max":906,"o":"m 332 0 l 107 0 l 107 1028 l 504 1028 q 794 941 692 1028 q 896 694 896 854 q 725 408 896 496 l 906 0 l 660 0 l 506 360 l 332 360 l 332 0 m 332 828 l 332 557 l 503 557 q 617 593 576 557 q 658 694 658 629 q 619 794 658 760 q 504 828 579 828 l 332 828 z "},"S":{"ha":846,"x_min":35,"x_max":804,"o":"m 50 729 q 156 958 50 868 q 428 1047 263 1047 q 690 962 593 1047 q 788 731 788 876 l 564 731 q 526 816 564 785 q 425 847 489 847 q 315 818 356 847 q 275 738 275 789 q 300 666 275 692 q 379 629 325 640 l 533 597 q 738 500 672 569 q 804 310 804 431 q 697 72 804 161 q 413 -18 590 -18 q 138 68 240 -18 q 35 299 35 154 l 258 299 q 299 212 258 242 q 414 182 339 182 q 535 210 490 182 q 579 288 579 239 q 558 354 579 331 q 485 388 536 378 l 328 419 q 50 729 50 476 z "},"T":{"ha":864,"x_min":28,"x_max":836,"o":"m 28 819 l 28 1028 l 836 1028 l 836 819 l 544 819 l 544 0 l 319 0 l 319 819 l 28 819 z "},"U":{"ha":1047,"x_min":100,"x_max":947,"o":"m 100 386 l 100 1028 l 325 1028 l 325 401 q 376 253 325 304 q 522 201 428 201 q 670 254 618 201 q 722 401 722 307 l 722 1028 l 947 1028 l 947 386 q 831 93 947 203 q 522 -17 715 -17 q 215 92 329 -17 q 100 386 100 201 z "},"V":{"ha":1022,"x_min":14,"x_max":1008,"o":"m 399 0 l 14 1028 l 254 1028 l 449 508 q 514 292 483 415 q 582 508 544 403 l 774 1028 l 1008 1028 l 631 0 l 399 0 z "},"W":{"ha":1485,"x_min":21,"x_max":1464,"o":"m 329 0 l 21 1028 l 256 1028 l 390 582 q 442 358 424 471 q 493 582 458 458 l 619 1028 l 871 1028 l 992 582 q 1043 358 1025 457 q 1097 579 1068 482 l 1235 1028 l 1464 1028 l 1150 0 l 931 0 l 743 675 l 550 0 l 329 0 z "},"X":{"ha":1004,"x_min":25,"x_max":979,"o":"m 368 514 l 38 1028 l 306 1028 l 392 893 q 511 688 443 813 l 717 1028 l 979 1028 l 654 514 l 979 0 l 713 0 l 644 107 q 510 342 593 189 l 289 0 l 25 0 l 368 514 z "},"Y":{"ha":947,"x_min":14,"x_max":933,"o":"m 361 390 l 14 1028 l 265 1028 l 438 694 q 476 611 457 657 q 495 650 482 622 q 517 696 508 678 l 689 1028 l 933 1028 l 586 390 l 586 0 l 361 0 l 361 390 z "},"Z":{"ha":824,"x_min":35,"x_max":789,"o":"m 789 0 l 35 0 l 35 211 l 493 819 l 49 819 l 49 1028 l 775 1028 l 775 826 l 310 208 l 789 208 l 789 0 z "},"[":{"ha":468,"x_min":107,"x_max":461,"o":"m 301 6 l 461 6 l 461 -158 l 107 -158 l 107 1208 l 461 1208 l 461 1044 l 301 1044 l 301 6 z "},"\\":{"ha":614,"x_min":0,"x_max":614,"o":"m 214 1025 l 614 0 l 401 0 l 0 1025 l 214 1025 z "},"]":{"ha":468,"x_min":7,"x_max":361,"o":"m 7 -158 l 7 6 l 167 6 l 167 1044 l 7 1044 l 7 1208 l 361 1208 l 361 -158 l 7 -158 z "},"^":{"ha":744,"x_min":83,"x_max":661,"o":"m 264 556 l 83 556 l 268 1028 l 476 1028 l 661 556 l 481 556 l 372 858 l 264 556 z "},"_":{"ha":779,"x_min":83,"x_max":696,"o":"m 83 -174 l 83 -22 l 696 -22 l 696 -174 l 83 -174 z "},"`":{"ha":433,"x_min":69,"x_max":378,"o":"m 378 1071 l 224 1071 l 69 1301 l 261 1301 l 378 1071 z "},"a":{"ha":783,"x_min":51,"x_max":711,"o":"m 290 -18 q 116 42 181 -18 q 51 204 51 101 q 117 357 51 300 q 308 424 183 414 l 503 439 l 503 450 q 385 554 503 554 q 246 457 246 554 l 68 457 q 158 646 68 575 q 396 717 247 717 q 629 635 547 717 q 711 406 711 554 l 711 0 l 522 0 l 508 92 q 430 13 492 44 q 290 -18 368 -18 m 365 140 q 467 171 429 140 q 504 260 504 201 l 504 297 l 396 288 q 298 265 326 282 q 269 214 269 247 q 365 140 269 140 z "},"b":{"ha":889,"x_min":81,"x_max":846,"o":"m 282 0 l 81 0 l 81 1047 l 294 1047 l 294 614 q 390 690 326 661 q 528 718 453 718 q 760 615 674 718 q 846 340 846 511 q 753 81 846 179 q 511 -18 660 -18 q 380 11 439 -18 q 293 89 321 40 l 282 0 m 343 477 q 319 453 343 477 q 296 351 296 429 q 343 226 296 274 q 465 178 390 178 q 585 226 540 178 q 631 351 631 274 q 585 477 631 429 q 465 525 540 525 q 343 477 390 525 z "},"c":{"ha":790,"x_min":43,"x_max":754,"o":"m 43 350 q 143 614 43 511 q 399 717 243 717 q 649 638 553 717 q 754 422 744 558 l 539 422 q 407 525 517 525 q 299 478 339 525 q 258 350 258 431 q 297 220 258 267 q 404 174 335 174 q 539 276 518 174 l 754 276 q 647 63 743 144 q 404 -18 550 -18 q 142 83 240 -18 q 43 350 43 183 z "},"d":{"ha":889,"x_min":43,"x_max":808,"o":"m 372 -18 q 133 81 222 -18 q 43 343 43 179 q 136 613 43 510 q 386 717 229 717 q 507 693 450 717 q 594 631 564 669 l 594 1047 l 808 1047 l 808 0 l 607 0 l 596 89 q 507 11 568 40 q 372 -18 446 -18 m 303 226 q 326 202 303 226 q 424 178 349 178 q 546 226 499 178 q 593 351 593 274 q 546 477 593 429 q 424 525 499 525 q 303 477 349 525 q 258 351 258 429 q 303 226 258 274 z "},"e":{"ha":799,"x_min":43,"x_max":756,"o":"m 403 -18 q 144 85 246 -18 q 43 349 43 189 q 142 614 43 511 q 399 717 242 717 q 658 617 563 717 q 753 347 753 517 l 753 293 l 249 290 q 407 156 267 156 q 508 176 468 156 q 560 235 549 197 l 756 235 q 641 51 736 119 q 403 -18 546 -18 m 400 543 q 251 422 275 543 l 540 422 q 502 510 540 478 q 400 543 464 543 z "},"f":{"ha":507,"x_min":15,"x_max":492,"o":"m 15 694 l 111 694 l 111 750 q 185 974 111 901 q 396 1047 260 1047 q 492 1039 442 1047 l 492 856 l 432 856 q 348 828 371 856 q 325 750 325 800 l 325 694 l 492 694 l 492 517 l 325 517 l 325 0 l 111 0 l 111 517 l 15 517 l 15 694 z "},"g":{"ha":879,"x_min":43,"x_max":799,"o":"m 46 360 q 139 618 46 518 q 379 718 232 718 q 586 625 525 718 l 597 694 l 799 694 l 799 44 q 697 -248 799 -142 q 418 -354 596 -354 q 158 -269 258 -354 q 43 -36 57 -183 l 260 -36 q 304 -127 263 -94 q 417 -160 346 -160 q 540 -117 494 -160 q 585 0 585 -74 l 585 90 q 375 8 517 8 q 138 106 229 8 q 46 360 46 204 m 261 365 q 306 242 261 290 q 422 194 351 194 q 540 242 496 194 q 585 365 585 289 q 540 487 585 442 q 421 532 494 532 q 306 485 350 532 q 261 365 261 439 z "},"h":{"ha":842,"x_min":81,"x_max":769,"o":"m 294 0 l 81 0 l 81 1047 l 296 1047 l 296 622 q 508 717 364 717 q 701 641 632 717 q 769 429 769 565 l 769 0 l 556 0 l 556 378 q 522 483 556 443 q 433 522 489 522 q 332 484 369 522 q 294 381 294 446 l 294 0 z "},"i":{"ha":375,"x_min":64,"x_max":307,"o":"m 186 803 q 99 838 135 803 q 64 925 64 874 q 99 1011 64 976 q 186 1046 135 1046 q 272 1011 236 1046 q 307 925 307 976 q 272 838 307 874 q 186 803 236 803 m 81 0 l 81 694 l 294 694 l 294 0 l 81 0 z "},"j":{"ha":375,"x_min":-75,"x_max":308,"o":"m 188 803 q 101 838 136 803 q 65 925 65 874 q 101 1011 65 976 q 188 1046 136 1046 q 273 1011 238 1046 q 308 925 308 976 q 273 838 308 874 q 188 803 238 803 m -75 -339 l -40 -150 q 13 -158 -15 -158 q 66 -137 51 -158 q 81 -68 81 -115 l 81 694 l 294 694 l 294 -96 q 226 -285 294 -214 q 33 -356 157 -356 q -75 -339 -21 -356 z "},"k":{"ha":794,"x_min":81,"x_max":788,"o":"m 294 0 l 81 0 l 81 1047 l 294 1047 l 294 444 l 519 694 l 788 694 l 526 419 l 779 0 l 532 0 l 376 260 l 294 174 l 294 0 z "},"l":{"ha":375,"x_min":81,"x_max":294,"o":"m 294 0 l 81 0 l 81 1047 l 294 1047 l 294 0 z "},"m":{"ha":1267,"x_min":81,"x_max":1194,"o":"m 294 0 l 81 0 l 81 694 l 281 694 l 294 622 q 497 717 363 717 q 708 594 642 717 q 794 683 736 650 q 926 717 853 717 q 1126 647 1057 717 q 1194 454 1194 576 l 1194 0 l 981 0 l 981 394 q 950 491 981 458 q 867 524 919 524 q 779 489 814 524 q 744 372 744 454 l 744 0 l 531 0 l 531 394 q 501 490 531 457 q 418 522 471 522 q 330 488 365 522 q 294 372 294 453 l 294 0 z "},"n":{"ha":842,"x_min":81,"x_max":769,"o":"m 294 0 l 81 0 l 81 694 l 282 694 l 296 622 q 508 717 364 717 q 701 641 632 717 q 769 429 769 565 l 769 0 l 556 0 l 556 378 q 522 483 556 443 q 433 522 489 522 q 332 484 369 522 q 294 381 294 446 l 294 0 z "},"o":{"ha":851,"x_min":43,"x_max":808,"o":"m 151 84 q 97 134 151 84 q 43 349 43 185 q 151 614 43 513 q 426 715 258 715 q 701 614 593 715 q 808 349 808 513 q 701 85 808 186 q 426 -17 593 -17 q 151 84 258 -17 m 258 350 q 305 223 258 271 q 426 175 351 175 q 547 223 500 175 q 593 350 593 271 q 547 476 593 428 q 426 524 500 524 q 305 476 351 524 q 258 350 258 428 z "},"p":{"ha":889,"x_min":81,"x_max":846,"o":"m 81 -333 l 81 694 l 282 694 l 293 610 q 383 688 322 658 q 518 717 444 717 q 756 620 665 717 q 846 358 846 524 q 759 85 846 190 q 519 -19 672 -19 q 387 5 449 -19 q 294 69 325 29 l 294 -333 l 81 -333 m 343 473 q 319 449 343 473 q 296 347 296 425 q 343 222 296 269 q 465 174 390 174 q 585 222 540 174 q 631 347 631 269 q 585 473 631 425 q 465 521 540 521 q 343 473 390 521 z "},"q":{"ha":889,"x_min":43,"x_max":808,"o":"m 43 358 q 133 620 43 524 q 371 717 224 717 q 506 688 444 717 q 596 610 567 658 l 607 694 l 808 694 l 808 -333 l 594 -333 l 594 69 q 502 5 564 29 q 369 -19 440 -19 q 130 85 217 -19 q 43 358 43 190 m 303 473 q 281 449 303 473 q 258 347 258 425 q 303 222 258 269 q 424 174 349 174 q 546 222 499 174 q 593 347 593 269 q 546 473 593 425 q 424 521 499 521 q 303 473 349 521 z "},"r":{"ha":586,"x_min":81,"x_max":558,"o":"m 558 694 l 558 493 l 490 493 q 294 301 294 493 l 294 0 l 81 0 l 81 693 l 282 693 l 293 590 q 476 704 342 704 q 558 694 518 704 z "},"s":{"ha":667,"x_min":31,"x_max":636,"o":"m 31 219 l 233 219 q 338 142 238 142 q 435 201 435 142 q 372 256 435 242 l 244 283 q 100 352 146 304 q 54 489 54 400 q 135 656 54 594 q 344 717 217 717 q 542 651 465 717 q 618 482 618 586 l 415 482 q 394 540 415 518 q 335 561 372 561 q 277 544 299 561 q 256 499 256 526 q 331 438 256 454 l 460 410 q 592 346 549 390 q 636 221 636 301 q 551 47 636 111 q 329 -18 467 -18 q 112 48 193 -18 q 31 219 31 114 z "},"t":{"ha":508,"x_min":15,"x_max":493,"o":"m 361 0 l 147 0 l 147 517 l 15 517 l 15 694 l 147 694 l 147 910 l 361 910 l 361 694 l 493 694 l 493 517 l 361 517 l 361 0 z "},"u":{"ha":836,"x_min":72,"x_max":756,"o":"m 542 694 l 756 694 l 756 0 l 554 0 l 540 78 q 449 8 508 35 q 328 -18 390 -18 q 141 56 210 -18 q 72 258 72 131 l 72 694 l 286 694 l 286 336 q 317 212 286 251 q 413 172 347 172 q 511 210 481 172 q 542 333 542 247 l 542 694 z "},"v":{"ha":786,"x_min":7,"x_max":779,"o":"m 278 0 l 7 694 l 238 694 l 322 451 q 390 231 382 275 q 464 451 403 294 l 557 694 l 779 694 l 489 0 l 278 0 z "},"w":{"ha":1154,"x_min":14,"x_max":1140,"o":"m 238 0 l 14 694 l 239 694 l 303 468 q 346 271 329 371 q 396 468 360 354 l 467 694 l 686 694 l 751 468 q 799 271 786 349 q 847 468 808 326 l 914 694 l 1140 694 l 897 0 l 699 0 l 632 221 q 575 446 585 374 q 513 217 563 382 l 446 0 l 238 0 z "},"x":{"ha":761,"x_min":14,"x_max":747,"o":"m 257 0 l 14 0 l 247 336 l 14 694 l 261 694 l 389 483 l 508 694 l 747 694 l 518 340 l 739 0 l 493 0 l 374 200 l 257 0 z "},"y":{"ha":785,"x_min":7,"x_max":778,"o":"m 25 -333 l 25 -154 l 143 -154 q 225 -133 197 -154 q 274 -57 253 -112 l 286 -24 l 7 694 l 236 694 l 388 249 l 556 694 l 778 694 l 425 -151 q 320 -305 382 -257 q 167 -353 258 -353 q 25 -333 90 -353 z "},"z":{"ha":682,"x_min":50,"x_max":632,"o":"m 632 0 l 50 0 l 50 178 l 361 517 l 50 517 l 50 694 l 632 694 l 632 517 l 313 178 l 632 178 l 632 0 z "},"{":{"ha":533,"x_min":63,"x_max":526,"o":"m 63 442 l 63 608 q 176 644 136 608 q 217 750 217 681 l 217 1018 q 273 1156 217 1104 q 419 1208 329 1208 l 526 1208 l 526 1044 l 467 1044 q 411 976 411 1044 l 411 721 q 272 525 411 569 q 411 329 411 481 l 411 74 q 467 6 411 6 l 526 6 l 526 -158 l 419 -158 q 273 -106 329 -158 q 217 32 217 -54 l 217 300 q 176 406 217 369 q 63 442 136 442 z "},"|":{"ha":489,"x_min":163,"x_max":326,"o":"m 163 -125 l 163 1094 l 326 1094 l 326 -125 l 163 -125 z "},"}":{"ha":533,"x_min":7,"x_max":471,"o":"m 114 -158 l 7 -158 l 7 6 l 67 6 q 122 74 122 6 l 122 329 q 261 525 122 481 q 122 721 122 569 l 122 976 q 67 1044 122 1044 l 7 1044 l 7 1208 l 114 1208 q 260 1156 204 1208 q 317 1018 317 1104 l 317 750 q 357 644 317 681 q 471 608 397 608 l 471 442 q 357 406 397 442 q 317 300 317 369 l 317 32 q 260 -106 317 -54 q 114 -158 204 -158 z "},"~":{"ha":917,"x_min":111,"x_max":806,"o":"m 644 565 l 806 565 q 749 381 806 454 q 600 308 693 308 q 494 332 544 308 q 403 378 443 356 q 335 401 364 401 q 272 319 272 401 l 111 319 q 167 499 111 426 q 317 571 224 571 q 421 548 371 571 q 511 501 471 525 q 582 478 551 478 q 644 565 644 478 z "},"¡":{"ha":486,"x_min":114,"x_max":372,"o":"m 242 1046 q 331 1009 293 1046 q 369 921 369 972 q 331 832 369 869 q 242 794 293 794 q 151 831 189 794 q 114 921 114 868 q 151 1009 114 972 q 242 1046 189 1046 m 153 721 l 329 721 q 372 232 372 525 l 372 0 l 114 0 l 114 232 q 153 721 114 524 z "},"¢":{"ha":818,"x_min":57,"x_max":768,"o":"m 318 -1 l 318 157 q 127 280 197 185 q 57 514 57 375 q 128 744 57 649 q 318 869 200 840 l 318 1028 l 497 1028 l 497 874 q 688 778 617 854 q 768 586 758 703 l 553 586 q 421 689 531 689 q 313 642 353 689 q 272 514 272 594 q 310 384 272 431 q 418 338 349 338 q 553 440 532 338 l 768 440 q 685 251 758 328 q 497 153 613 174 l 497 -1 l 318 -1 z "},"£":{"ha":938,"x_min":33,"x_max":888,"o":"m 558 0 l 33 0 l 33 210 q 140 251 100 210 q 179 365 179 293 q 169 435 179 393 l 39 435 l 39 597 l 117 597 q 101 699 101 658 q 206 947 101 847 q 476 1047 311 1047 q 736 956 635 1047 q 838 713 838 865 l 614 713 q 574 814 613 781 q 468 847 535 847 q 360 807 403 847 q 318 703 318 767 q 336 597 318 654 l 629 597 l 629 435 l 386 435 q 393 375 393 403 q 306 210 393 254 l 521 210 q 636 247 604 210 q 671 354 668 283 l 888 354 q 800 95 888 190 q 558 0 713 0 z "},"¤":{"ha":1061,"x_min":83,"x_max":978,"o":"m 840 72 l 731 181 q 532 125 638 125 q 331 181 426 125 l 221 72 l 83 213 l 193 321 q 142 514 142 413 q 193 710 142 615 l 83 818 l 221 958 l 331 850 q 532 906 426 906 q 731 850 638 906 l 840 958 l 978 818 l 869 711 q 922 514 922 618 q 869 319 922 410 l 978 213 l 840 72 m 726 514 q 669 652 726 594 q 532 710 613 710 q 394 653 450 710 q 338 514 338 596 q 394 378 338 435 q 532 321 451 321 q 669 378 611 321 q 726 514 726 435 z "},"¥":{"ha":967,"x_min":28,"x_max":939,"o":"m 311 542 l 28 1028 l 283 1028 l 482 643 l 683 1028 l 939 1028 l 654 542 l 808 542 l 808 386 l 588 386 l 588 319 l 808 319 l 808 164 l 588 164 l 588 0 l 375 0 l 375 164 l 154 164 l 154 319 l 375 319 l 375 386 l 154 386 l 154 542 l 311 542 z "},"¦":{"ha":489,"x_min":163,"x_max":326,"o":"m 326 1094 l 326 617 l 163 617 l 163 1094 l 326 1094 m 163 -125 l 163 353 l 326 353 l 326 -125 l 163 -125 z "},"§":{"ha":686,"x_min":39,"x_max":647,"o":"m 647 535 q 615 425 647 475 q 531 346 583 375 q 621 196 621 300 q 538 42 621 103 q 331 -18 456 -18 q 133 47 210 -18 q 57 217 57 113 l 260 217 q 281 159 260 181 q 340 138 303 138 q 400 155 378 138 q 422 200 422 172 q 344 265 422 247 l 215 296 q 39 493 39 338 q 71 603 39 553 q 156 682 103 653 q 65 833 65 729 q 148 987 65 926 q 356 1047 231 1047 q 553 982 476 1047 q 629 813 629 917 l 426 813 q 405 870 426 849 q 346 892 383 892 q 286 874 308 892 q 264 829 264 857 q 342 764 264 783 l 471 732 q 647 535 647 688 m 422 444 q 435 457 422 444 q 449 514 449 471 q 422 585 449 557 q 343 613 394 613 q 265 585 292 613 q 238 514 238 557 q 265 444 238 471 q 343 417 292 417 q 422 444 394 417 z "},"¨":{"ha":633,"x_min":72,"x_max":561,"o":"m 255 1113 q 239 1097 255 1113 q 179 1081 224 1081 q 103 1112 135 1081 q 72 1189 72 1143 q 104 1265 72 1233 q 179 1296 136 1296 q 254 1264 222 1296 q 286 1189 286 1232 q 255 1113 286 1144 m 530 1113 q 514 1097 530 1113 q 454 1081 499 1081 q 378 1112 410 1081 q 347 1189 347 1143 q 379 1265 347 1233 q 454 1296 411 1296 q 529 1264 497 1296 q 561 1189 561 1232 q 530 1113 561 1144 z "},"©":{"ha":1143,"x_min":56,"x_max":1088,"o":"m 572 -18 q 206 137 356 -18 q 56 515 56 292 q 206 893 56 739 q 572 1047 356 1047 q 938 892 788 1047 q 1088 515 1088 738 q 938 137 1088 292 q 572 -18 788 -18 m 572 107 q 846 225 735 107 q 957 515 957 343 q 847 806 957 689 q 572 922 736 922 q 297 805 408 922 q 186 515 186 688 q 297 224 186 342 q 572 107 408 107 m 308 515 q 383 710 308 633 q 571 786 457 786 q 756 728 685 786 q 833 568 826 669 l 675 568 q 576 644 657 644 q 497 609 528 644 q 467 515 467 574 q 496 419 467 454 q 575 385 525 385 q 675 461 658 385 l 833 461 q 754 303 826 364 q 575 243 682 243 q 381 317 454 243 q 308 515 308 392 z "},"«":{"ha":1111,"x_min":56,"x_max":1056,"o":"m 360 0 l 56 347 l 360 694 l 639 694 l 335 347 l 639 0 l 360 0 m 776 0 l 472 347 l 776 694 l 1056 694 l 751 347 l 1056 0 l 776 0 z "},"¬":{"ha":917,"x_min":75,"x_max":804,"o":"m 804 558 l 804 132 l 603 132 l 603 378 l 75 378 l 75 558 l 804 558 z "},"®":{"ha":725,"x_min":56,"x_max":669,"o":"m 364 435 q 144 522 232 435 q 56 740 56 610 q 144 958 56 869 q 364 1046 233 1046 q 582 959 494 1046 q 669 740 669 872 q 582 522 669 608 q 364 435 494 435 m 364 493 q 538 563 469 493 q 607 740 607 633 q 538 917 607 847 q 364 988 469 988 q 188 917 258 988 q 118 740 118 847 q 188 563 118 633 q 364 493 257 493 m 299 572 l 236 572 l 236 918 l 381 918 q 474 890 439 918 q 510 814 510 863 q 440 711 510 740 l 514 572 l 446 572 l 383 694 l 299 694 l 299 572 m 443 807 q 379 858 443 858 l 299 858 l 299 751 l 379 751 q 426 767 408 751 q 443 807 443 782 z "},"¯":{"ha":569,"x_min":83,"x_max":486,"o":"m 83 1107 l 83 1251 l 486 1251 l 486 1107 l 83 1107 z "},"°":{"ha":475,"x_min":42,"x_max":433,"o":"m 378 992 q 406 964 378 992 q 433 851 433 936 q 378 711 433 767 q 238 656 322 656 q 97 711 153 656 q 42 851 42 767 q 97 992 42 936 q 238 1047 153 1047 q 378 992 322 1047 m 297 789 q 308 801 297 789 q 319 851 319 813 q 297 915 319 890 q 238 939 274 939 q 178 915 200 939 q 156 851 156 890 q 178 789 156 813 q 238 765 200 765 q 297 789 274 765 z "},"±":{"ha":917,"x_min":111,"x_max":806,"o":"m 111 654 l 369 654 l 369 857 l 547 857 l 547 654 l 806 654 l 806 476 l 547 476 l 547 272 l 369 272 l 369 476 l 111 476 l 111 654 m 111 0 l 111 178 l 806 178 l 806 0 l 111 0 z "},"²":{"ha":511,"x_min":31,"x_max":481,"o":"m 481 458 l 42 458 l 42 561 l 271 754 q 336 871 336 807 q 256 964 336 964 q 168 858 168 964 l 31 858 q 94 1027 35 965 q 254 1089 154 1089 q 416 1033 357 1089 q 475 879 475 978 q 368 678 475 769 l 257 583 l 481 583 l 481 458 z "},"³":{"ha":504,"x_min":25,"x_max":474,"o":"m 457 965 l 317 846 q 431 784 388 832 q 474 657 474 736 q 409 504 474 561 q 247 447 344 447 q 88 504 151 447 q 25 663 25 561 l 163 663 q 187 596 163 619 q 251 572 211 572 q 313 596 289 572 q 336 658 336 619 q 312 722 336 697 q 236 746 288 746 l 146 746 l 146 836 l 286 953 l 53 953 l 53 1076 l 457 1076 l 457 965 z "},"´":{"ha":433,"x_min":56,"x_max":364,"o":"m 364 1301 l 210 1071 l 56 1071 l 172 1301 l 364 1301 z "},"µ":{"ha":836,"x_min":72,"x_max":756,"o":"m 288 -333 l 72 -333 l 72 694 l 286 694 l 286 336 q 317 212 286 251 q 413 172 347 172 q 511 210 481 172 q 542 333 542 247 l 542 694 l 756 694 l 756 0 l 554 0 l 540 78 q 468 6 504 29 q 376 -18 432 -18 q 260 46 303 -18 l 288 -333 z "},"¶":{"ha":864,"x_min":35,"x_max":729,"o":"m 35 747 q 108 951 35 875 q 304 1028 181 1028 l 532 1028 l 532 -136 l 351 -136 l 351 465 l 304 465 q 107 541 179 465 q 35 747 35 617 m 729 -139 l 665 -139 l 665 1025 l 729 1025 l 729 -139 z "},"·":{"ha":511,"x_min":89,"x_max":422,"o":"m 374 290 q 349 265 374 290 q 257 240 325 240 q 139 289 189 240 q 89 404 89 338 q 138 522 89 472 q 257 571 188 571 q 373 521 324 571 q 422 404 422 471 q 374 290 422 339 z "},"¸":{"ha":386,"x_min":42,"x_max":331,"o":"m 42 -296 l 42 -207 q 143 -233 101 -233 q 221 -176 221 -233 q 160 -128 221 -128 q 92 -139 122 -128 l 72 -85 l 142 60 l 201 58 l 201 13 l 160 -67 q 210 -58 181 -58 q 294 -87 258 -58 q 331 -176 331 -117 q 281 -283 331 -244 q 154 -322 231 -322 q 42 -296 94 -322 z "},"¹":{"ha":383,"x_min":28,"x_max":325,"o":"m 186 951 l 28 951 l 28 1076 l 325 1076 l 325 458 l 186 458 l 186 951 z "},"»":{"ha":1111,"x_min":56,"x_max":1056,"o":"m 335 0 l 56 0 l 360 347 l 56 694 l 335 694 l 639 347 l 335 0 m 751 0 l 472 0 l 776 347 l 472 694 l 751 694 l 1056 347 l 751 0 z "},"¼":{"ha":1071,"x_min":19,"x_max":1040,"o":"m 153 919 l 19 919 l 19 1028 l 271 1028 l 271 511 l 153 511 l 153 919 m 949 986 l 281 0 l 114 0 l 782 986 l 949 986 m 860 94 l 611 94 l 611 188 l 828 517 l 972 517 l 972 200 l 1040 200 l 1040 94 l 972 94 l 972 0 l 860 0 l 860 94 m 742 200 l 860 200 l 860 378 l 742 200 z "},"½":{"ha":1122,"x_min":19,"x_max":1092,"o":"m 153 919 l 19 919 l 19 1028 l 271 1028 l 271 511 l 153 511 l 153 919 m 949 986 l 281 0 l 114 0 l 782 986 l 949 986 m 1092 0 l 711 0 l 711 88 l 882 221 q 954 342 954 279 q 937 399 954 378 q 888 419 919 419 q 833 399 853 419 q 814 342 814 378 l 694 342 q 749 475 694 424 q 889 526 803 526 q 1024 478 975 526 q 1074 349 1074 431 q 963 150 1074 238 l 908 107 l 1092 107 l 1092 0 z "},"¾":{"ha":1104,"x_min":25,"x_max":1074,"o":"m 25 682 l 144 682 q 164 627 144 646 q 215 608 183 608 q 264 628 246 608 q 282 679 282 647 q 262 730 282 710 q 200 750 242 750 l 125 750 l 125 826 l 233 921 l 49 921 l 49 1028 l 388 1028 l 388 932 l 276 832 q 401 678 401 801 q 347 549 401 597 q 213 501 293 501 q 79 549 133 501 q 25 682 25 596 m 982 986 l 314 0 l 147 0 l 815 986 l 982 986 m 893 94 l 644 94 l 644 188 l 861 517 l 1006 517 l 1006 200 l 1074 200 l 1074 94 l 1006 94 l 1006 0 l 893 0 l 893 94 m 775 200 l 893 200 l 893 378 l 775 200 z "},"¿":{"ha":801,"x_min":43,"x_max":758,"o":"m 429 1047 q 519 1010 482 1047 q 557 922 557 974 q 519 833 557 869 q 429 796 482 796 q 340 833 378 796 q 301 922 301 871 q 340 1010 301 972 q 429 1047 378 1047 m 339 750 l 532 750 l 532 721 q 519 633 532 672 q 481 560 507 593 q 435 509 456 528 q 381 463 415 490 q 326 416 344 433 q 290 369 307 399 q 274 307 274 339 q 306 215 274 247 q 397 182 338 182 q 498 224 461 182 q 535 340 535 267 l 758 340 q 656 81 758 181 q 392 -18 554 -18 q 135 64 228 -18 q 43 292 43 146 q 58 390 43 346 q 104 468 74 433 q 158 522 135 503 q 221 568 182 542 q 309 641 279 607 q 339 721 339 675 l 339 750 z "},"À":{"ha":976,"x_min":13,"x_max":964,"o":"m 568 1099 l 414 1099 l 260 1329 l 451 1329 l 568 1099 m 247 0 l 13 0 l 379 1028 l 599 1028 l 964 0 l 725 0 l 653 217 l 321 217 l 247 0 m 460 625 l 386 406 l 589 406 l 515 625 q 488 725 492 697 q 460 625 482 689 z "},"Á":{"ha":976,"x_min":13,"x_max":964,"o":"m 722 1329 l 568 1099 l 414 1099 l 531 1329 l 722 1329 m 247 0 l 13 0 l 379 1028 l 599 1028 l 964 0 l 725 0 l 653 217 l 321 217 l 247 0 m 460 625 l 386 406 l 589 406 l 515 625 q 488 725 492 697 q 460 625 482 689 z "},"Â":{"ha":976,"x_min":13,"x_max":964,"o":"m 413 1099 l 251 1099 l 389 1343 l 594 1343 l 732 1099 l 571 1099 l 492 1244 l 413 1099 m 247 0 l 13 0 l 379 1028 l 599 1028 l 964 0 l 725 0 l 653 217 l 321 217 l 247 0 m 460 625 l 386 406 l 589 406 l 515 625 q 488 725 492 697 q 460 625 482 689 z "},"Ã":{"ha":976,"x_min":13,"x_max":964,"o":"m 347 1103 l 228 1101 q 256 1265 215 1203 q 372 1326 296 1326 q 494 1283 428 1326 q 586 1240 561 1240 q 636 1326 636 1240 l 756 1326 q 726 1158 767 1215 q 610 1101 686 1101 q 522 1123 564 1101 q 449 1166 481 1144 q 396 1188 417 1188 q 347 1103 347 1188 m 247 0 l 13 0 l 379 1028 l 599 1028 l 964 0 l 725 0 l 653 217 l 321 217 l 247 0 m 460 625 l 386 406 l 589 406 l 515 625 q 488 725 492 697 q 460 625 482 689 z "},"Ä":{"ha":976,"x_min":13,"x_max":964,"o":"m 430 1140 q 414 1124 430 1140 q 354 1108 399 1108 q 278 1140 310 1108 q 247 1217 247 1171 q 279 1292 247 1261 q 354 1324 311 1324 q 429 1292 397 1324 q 461 1217 461 1260 q 430 1140 461 1172 m 705 1140 q 689 1124 705 1140 q 629 1108 674 1108 q 553 1140 585 1108 q 522 1217 522 1171 q 554 1292 522 1261 q 629 1324 586 1324 q 704 1292 672 1324 q 736 1217 736 1260 q 705 1140 736 1172 m 247 0 l 13 0 l 379 1028 l 599 1028 l 964 0 l 725 0 l 653 217 l 321 217 l 247 0 m 460 625 l 386 406 l 589 406 l 515 625 q 488 725 492 697 q 460 625 482 689 z "},"Å":{"ha":976,"x_min":13,"x_max":964,"o":"m 492 1074 q 351 1128 406 1074 q 296 1267 296 1182 q 352 1405 296 1349 q 492 1461 408 1461 q 631 1405 575 1461 q 688 1267 688 1349 q 632 1129 688 1185 q 492 1074 576 1074 m 432 1206 q 443 1194 432 1206 q 492 1182 454 1182 q 551 1206 529 1182 q 574 1269 574 1229 q 551 1329 574 1306 q 492 1353 528 1353 q 433 1330 456 1353 q 410 1269 410 1307 q 432 1206 410 1229 m 247 0 l 13 0 l 379 1028 l 599 1028 l 964 0 l 725 0 l 653 217 l 321 217 l 247 0 m 460 625 l 386 406 l 589 406 l 515 625 q 488 725 492 697 q 460 625 482 689 z "},"Æ":{"ha":1343,"x_min":6,"x_max":1265,"o":"m 6 0 l 421 1028 l 1265 1028 l 1265 819 l 838 819 l 838 618 l 1217 618 l 1217 421 l 838 421 l 838 208 l 1265 208 l 1265 0 l 613 0 l 613 232 l 350 232 l 263 0 l 6 0 m 422 421 l 613 421 l 613 819 l 574 819 l 422 421 z "},"Ç":{"ha":1079,"x_min":50,"x_max":1036,"o":"m 438 -296 l 438 -207 q 539 -233 497 -233 q 617 -176 617 -233 q 556 -128 617 -128 q 488 -139 518 -128 l 468 -85 l 501 -15 q 171 141 292 0 q 50 513 50 282 q 190 899 50 753 q 561 1044 331 1044 q 883 942 754 1044 q 1035 667 1011 839 l 797 667 q 711 786 774 744 q 556 828 649 828 q 359 744 431 828 q 288 514 288 661 q 360 285 288 369 q 556 200 432 200 q 716 244 650 200 q 803 364 782 288 l 1036 364 q 886 96 1010 199 q 582 -15 763 -7 l 556 -67 q 606 -58 576 -58 q 690 -87 654 -58 q 726 -176 726 -117 q 676 -283 726 -244 q 550 -322 626 -322 q 438 -296 490 -322 z "},"È":{"ha":838,"x_min":107,"x_max":760,"o":"m 510 1099 l 356 1099 l 201 1329 l 393 1329 l 510 1099 m 760 0 l 107 0 l 107 1028 l 760 1028 l 760 819 l 332 819 l 332 618 l 711 618 l 711 421 l 332 421 l 332 208 l 760 208 l 760 0 z "},"É":{"ha":838,"x_min":107,"x_max":760,"o":"m 664 1329 l 510 1099 l 356 1099 l 472 1329 l 664 1329 m 760 0 l 107 0 l 107 1028 l 760 1028 l 760 819 l 332 819 l 332 618 l 711 618 l 711 421 l 332 421 l 332 208 l 760 208 l 760 0 z "},"Ê":{"ha":838,"x_min":107,"x_max":760,"o":"m 354 1099 l 193 1099 l 331 1343 l 536 1343 l 674 1099 l 513 1099 l 433 1244 l 354 1099 m 760 0 l 107 0 l 107 1028 l 760 1028 l 760 819 l 332 819 l 332 618 l 711 618 l 711 421 l 332 421 l 332 208 l 760 208 l 760 0 z "},"Ë":{"ha":838,"x_min":107,"x_max":760,"o":"m 372 1140 q 356 1124 372 1140 q 296 1108 340 1108 q 220 1140 251 1108 q 189 1217 189 1171 q 221 1292 189 1261 q 296 1324 253 1324 q 371 1292 339 1324 q 403 1217 403 1260 q 372 1140 403 1172 m 647 1140 q 631 1124 647 1140 q 571 1108 615 1108 q 495 1140 526 1108 q 464 1217 464 1171 q 496 1292 464 1261 q 571 1324 528 1324 q 646 1292 614 1324 q 678 1217 678 1260 q 647 1140 678 1172 m 760 0 l 107 0 l 107 1028 l 760 1028 l 760 819 l 332 819 l 332 618 l 711 618 l 711 421 l 332 421 l 332 208 l 760 208 l 760 0 z "},"Ì":{"ha":439,"x_min":-12,"x_max":332,"o":"m 296 1099 l 142 1099 l -12 1329 l 179 1329 l 296 1099 m 332 1028 l 332 0 l 107 0 l 107 1028 l 332 1028 z "},"Í":{"ha":439,"x_min":107,"x_max":450,"o":"m 450 1329 l 296 1099 l 142 1099 l 258 1329 l 450 1329 m 332 1028 l 332 0 l 107 0 l 107 1028 l 332 1028 z "},"Î":{"ha":439,"x_min":-21,"x_max":460,"o":"m 140 1099 l -21 1099 l 117 1343 l 322 1343 l 460 1099 l 299 1099 l 219 1244 l 140 1099 m 332 1028 l 332 0 l 107 0 l 107 1028 l 332 1028 z "},"Ï":{"ha":439,"x_min":-25,"x_max":464,"o":"m 158 1140 q 142 1124 158 1140 q 82 1108 126 1108 q 6 1140 38 1108 q -25 1217 -25 1171 q 7 1292 -25 1261 q 82 1324 39 1324 q 157 1292 125 1324 q 189 1217 189 1260 q 158 1140 189 1172 m 433 1140 q 417 1124 433 1140 q 357 1108 401 1108 q 281 1140 313 1108 q 250 1217 250 1171 q 282 1292 250 1261 q 357 1324 314 1324 q 432 1292 400 1324 q 464 1217 464 1260 q 433 1140 464 1172 m 332 1028 l 332 0 l 107 0 l 107 1028 l 332 1028 z "},"Ð":{"ha":1057,"x_min":14,"x_max":1007,"o":"m 14 424 l 14 606 l 107 606 l 107 1028 l 496 1028 q 865 884 722 1028 q 1007 511 1007 740 q 868 143 1007 286 q 510 0 729 0 l 107 0 l 107 424 l 14 424 m 533 424 l 332 424 l 332 208 l 488 208 q 695 288 621 208 q 769 511 769 368 q 692 738 769 657 q 474 819 614 819 l 332 819 l 332 606 l 533 606 l 533 424 z "},"Ñ":{"ha":1092,"x_min":107,"x_max":985,"o":"m 408 1103 l 289 1101 q 317 1265 276 1203 q 433 1326 357 1326 q 556 1283 489 1326 q 647 1240 622 1240 q 697 1326 697 1240 l 817 1326 q 788 1158 828 1215 q 671 1101 747 1101 q 583 1123 625 1101 q 510 1166 542 1144 q 457 1188 478 1188 q 408 1103 408 1188 m 329 0 l 107 0 l 107 1028 l 329 1028 l 763 374 l 763 1028 l 985 1028 l 985 0 l 763 0 l 329 653 l 329 0 z "},"Ò":{"ha":1107,"x_min":50,"x_max":1057,"o":"m 631 1099 l 476 1099 l 322 1329 l 514 1329 l 631 1099 m 917 899 q 987 825 917 899 q 1057 515 1057 751 q 916 131 1057 279 q 551 -17 775 -17 q 190 131 329 -17 q 50 514 50 278 q 190 898 50 750 q 553 1046 331 1046 q 917 899 776 1046 m 819 515 q 749 746 819 663 q 554 829 678 829 q 358 746 429 829 q 288 515 288 663 q 358 284 288 368 q 554 200 429 200 q 749 285 678 200 q 819 515 819 369 z "},"Ó":{"ha":1107,"x_min":50,"x_max":1057,"o":"m 785 1329 l 631 1099 l 476 1099 l 593 1329 l 785 1329 m 917 899 q 987 825 917 899 q 1057 515 1057 751 q 916 131 1057 279 q 551 -17 775 -17 q 190 131 329 -17 q 50 514 50 278 q 190 898 50 750 q 553 1046 331 1046 q 917 899 776 1046 m 819 515 q 749 746 819 663 q 554 829 678 829 q 358 746 429 829 q 288 515 288 663 q 358 284 288 368 q 554 200 429 200 q 749 285 678 200 q 819 515 819 369 z "},"Ô":{"ha":1107,"x_min":50,"x_max":1057,"o":"m 475 1099 l 314 1099 l 451 1343 l 657 1343 l 794 1099 l 633 1099 l 554 1244 l 475 1099 m 917 899 q 987 825 917 899 q 1057 515 1057 751 q 916 131 1057 279 q 551 -17 775 -17 q 190 131 329 -17 q 50 514 50 278 q 190 898 50 750 q 553 1046 331 1046 q 917 899 776 1046 m 819 515 q 749 746 819 663 q 554 829 678 829 q 358 746 429 829 q 288 515 288 663 q 358 284 288 368 q 554 200 429 200 q 749 285 678 200 q 819 515 819 369 z "},"Õ":{"ha":1107,"x_min":50,"x_max":1057,"o":"m 410 1103 l 290 1101 q 318 1265 278 1203 q 435 1326 358 1326 q 557 1283 490 1326 q 649 1240 624 1240 q 699 1326 699 1240 l 818 1326 q 789 1158 829 1215 q 672 1101 749 1101 q 585 1123 626 1101 q 511 1166 543 1144 q 458 1188 479 1188 q 410 1103 410 1188 m 917 899 q 987 825 917 899 q 1057 515 1057 751 q 916 131 1057 279 q 551 -17 775 -17 q 190 131 329 -17 q 50 514 50 278 q 190 898 50 750 q 553 1046 331 1046 q 917 899 776 1046 m 819 515 q 749 746 819 663 q 554 829 678 829 q 358 746 429 829 q 288 515 288 663 q 358 284 288 368 q 554 200 429 200 q 749 285 678 200 q 819 515 819 369 z "},"Ö":{"ha":1107,"x_min":50,"x_max":1057,"o":"m 492 1140 q 477 1124 492 1140 q 417 1108 461 1108 q 341 1140 372 1108 q 310 1217 310 1171 q 341 1292 310 1261 q 417 1324 372 1324 q 492 1292 460 1324 q 524 1217 524 1260 q 492 1140 524 1172 m 767 1140 q 752 1124 767 1140 q 692 1108 736 1108 q 616 1140 647 1108 q 585 1217 585 1171 q 616 1292 585 1261 q 692 1324 647 1324 q 767 1292 735 1324 q 799 1217 799 1260 q 767 1140 799 1172 m 917 899 q 987 825 917 899 q 1057 515 1057 751 q 916 131 1057 279 q 551 -17 775 -17 q 190 131 329 -17 q 50 514 50 278 q 190 898 50 750 q 553 1046 331 1046 q 917 899 776 1046 m 819 515 q 749 746 819 663 q 554 829 678 829 q 358 746 429 829 q 288 515 288 663 q 358 284 288 368 q 554 200 429 200 q 749 285 678 200 q 819 515 819 369 z "},"×":{"ha":917,"x_min":119,"x_max":797,"o":"m 247 806 l 460 594 l 671 806 l 797 681 l 585 468 l 797 256 l 671 131 l 460 343 l 246 129 l 119 254 l 333 468 l 121 681 l 247 806 z "},"Ø":{"ha":1107,"x_min":50,"x_max":1057,"o":"m 1057 515 q 916 131 1057 279 q 551 -17 775 -17 q 307 42 417 -17 l 278 1 l 65 1 l 175 147 q 50 514 50 292 q 190 898 50 750 q 553 1046 331 1046 q 806 983 693 1046 l 840 1029 l 1043 1029 l 932 881 q 1057 515 1057 736 m 288 515 q 322 342 288 415 l 671 806 q 554 829 619 829 q 358 746 429 829 q 288 515 288 663 m 819 515 q 786 685 819 617 l 442 222 q 554 200 490 200 q 749 285 678 200 q 819 515 819 369 z "},"Ù":{"ha":1047,"x_min":100,"x_max":947,"o":"m 600 1099 l 446 1099 l 292 1329 l 483 1329 l 600 1099 m 100 386 l 100 1028 l 325 1028 l 325 401 q 376 253 325 304 q 522 201 428 201 q 670 254 618 201 q 722 401 722 307 l 722 1028 l 947 1028 l 947 386 q 831 93 947 203 q 522 -17 715 -17 q 215 92 329 -17 q 100 386 100 201 z "},"Ú":{"ha":1047,"x_min":100,"x_max":947,"o":"m 754 1329 l 600 1099 l 446 1099 l 563 1329 l 754 1329 m 100 386 l 100 1028 l 325 1028 l 325 401 q 376 253 325 304 q 522 201 428 201 q 670 254 618 201 q 722 401 722 307 l 722 1028 l 947 1028 l 947 386 q 831 93 947 203 q 522 -17 715 -17 q 215 92 329 -17 q 100 386 100 201 z "},"Û":{"ha":1047,"x_min":100,"x_max":947,"o":"m 444 1099 l 283 1099 l 421 1343 l 626 1343 l 764 1099 l 603 1099 l 524 1244 l 444 1099 m 100 386 l 100 1028 l 325 1028 l 325 401 q 376 253 325 304 q 522 201 428 201 q 670 254 618 201 q 722 401 722 307 l 722 1028 l 947 1028 l 947 386 q 831 93 947 203 q 522 -17 715 -17 q 215 92 329 -17 q 100 386 100 201 z "},"Ü":{"ha":1047,"x_min":100,"x_max":947,"o":"m 462 1140 q 446 1124 462 1140 q 386 1108 431 1108 q 310 1140 342 1108 q 279 1217 279 1171 q 310 1292 279 1261 q 386 1324 342 1324 q 461 1292 429 1324 q 493 1217 493 1260 q 462 1140 493 1172 m 737 1140 q 721 1124 737 1140 q 661 1108 706 1108 q 585 1140 617 1108 q 554 1217 554 1171 q 585 1292 554 1261 q 661 1324 617 1324 q 736 1292 704 1324 q 768 1217 768 1260 q 737 1140 768 1172 m 100 386 l 100 1028 l 325 1028 l 325 401 q 376 253 325 304 q 522 201 428 201 q 670 254 618 201 q 722 401 722 307 l 722 1028 l 947 1028 l 947 386 q 831 93 947 203 q 522 -17 715 -17 q 215 92 329 -17 q 100 386 100 201 z "},"Ý":{"ha":947,"x_min":14,"x_max":933,"o":"m 707 1329 l 553 1099 l 399 1099 l 515 1329 l 707 1329 m 361 390 l 14 1028 l 265 1028 l 438 694 q 476 611 457 657 q 495 650 482 622 q 517 696 508 678 l 689 1028 l 933 1028 l 586 390 l 586 0 l 361 0 l 361 390 z "},"Þ":{"ha":908,"x_min":107,"x_max":874,"o":"m 524 186 l 332 186 l 332 0 l 107 0 l 107 1028 l 332 1028 l 332 844 l 524 844 q 776 752 679 844 q 874 515 874 660 q 776 278 874 371 q 524 186 679 186 m 474 644 l 332 644 l 332 386 l 474 386 q 636 515 636 386 q 474 644 636 644 z "},"ß":{"ha":853,"x_min":81,"x_max":822,"o":"m 294 0 l 81 0 l 81 714 q 172 957 81 867 q 421 1047 264 1047 q 665 974 576 1047 q 754 774 754 901 q 728 662 754 713 q 658 583 703 611 q 822 324 822 500 q 724 88 822 175 q 461 0 626 0 q 361 10 406 0 l 361 194 l 457 194 q 568 231 529 194 q 607 333 607 267 q 425 479 607 479 l 364 479 l 364 649 l 425 649 q 511 678 481 649 q 542 763 542 708 q 510 844 542 815 q 422 872 478 872 q 330 835 365 872 q 294 738 294 797 l 294 0 z "},"à":{"ha":783,"x_min":51,"x_max":711,"o":"m 481 779 l 326 779 l 172 1010 l 364 1010 l 481 779 m 290 -18 q 116 42 181 -18 q 51 204 51 101 q 117 357 51 300 q 308 424 183 414 l 503 439 l 503 450 q 385 554 503 554 q 246 457 246 554 l 68 457 q 158 646 68 575 q 396 717 247 717 q 629 635 547 717 q 711 406 711 554 l 711 0 l 522 0 l 508 92 q 430 13 492 44 q 290 -18 368 -18 m 365 140 q 467 171 429 140 q 504 260 504 201 l 504 297 l 396 288 q 298 265 326 282 q 269 214 269 247 q 365 140 269 140 z "},"á":{"ha":783,"x_min":51,"x_max":711,"o":"m 635 1010 l 481 779 l 326 779 l 443 1010 l 635 1010 m 290 -18 q 116 42 181 -18 q 51 204 51 101 q 117 357 51 300 q 308 424 183 414 l 503 439 l 503 450 q 385 554 503 554 q 246 457 246 554 l 68 457 q 158 646 68 575 q 396 717 247 717 q 629 635 547 717 q 711 406 711 554 l 711 0 l 522 0 l 508 92 q 430 13 492 44 q 290 -18 368 -18 m 365 140 q 467 171 429 140 q 504 260 504 201 l 504 297 l 396 288 q 298 265 326 282 q 269 214 269 247 q 365 140 269 140 z "},"â":{"ha":783,"x_min":51,"x_max":711,"o":"m 325 779 l 164 779 l 301 1024 l 507 1024 l 644 779 l 483 779 l 404 925 l 325 779 m 290 -18 q 116 42 181 -18 q 51 204 51 101 q 117 357 51 300 q 308 424 183 414 l 503 439 l 503 450 q 385 554 503 554 q 246 457 246 554 l 68 457 q 158 646 68 575 q 396 717 247 717 q 629 635 547 717 q 711 406 711 554 l 711 0 l 522 0 l 508 92 q 430 13 492 44 q 290 -18 368 -18 m 365 140 q 467 171 429 140 q 504 260 504 201 l 504 297 l 396 288 q 298 265 326 282 q 269 214 269 247 q 365 140 269 140 z "},"ã":{"ha":783,"x_min":51,"x_max":711,"o":"m 260 783 l 140 782 q 168 945 128 883 q 285 1007 208 1007 q 407 964 340 1007 q 499 921 474 921 q 549 1007 549 921 l 668 1007 q 639 839 679 896 q 522 782 599 782 q 435 803 476 782 q 361 847 393 825 q 308 868 329 868 q 260 783 260 868 m 290 -18 q 116 42 181 -18 q 51 204 51 101 q 117 357 51 300 q 308 424 183 414 l 503 439 l 503 450 q 385 554 503 554 q 246 457 246 554 l 68 457 q 158 646 68 575 q 396 717 247 717 q 629 635 547 717 q 711 406 711 554 l 711 0 l 522 0 l 508 92 q 430 13 492 44 q 290 -18 368 -18 m 365 140 q 467 171 429 140 q 504 260 504 201 l 504 297 l 396 288 q 298 265 326 282 q 269 214 269 247 q 365 140 269 140 z "},"ä":{"ha":783,"x_min":51,"x_max":711,"o":"m 342 821 q 327 805 342 821 q 267 789 311 789 q 191 820 222 789 q 160 897 160 851 q 191 973 160 942 q 267 1004 222 1004 q 342 972 310 1004 q 374 897 374 940 q 342 821 374 853 m 617 821 q 602 805 617 821 q 542 789 586 789 q 466 820 497 789 q 435 897 435 851 q 466 973 435 942 q 542 1004 497 1004 q 617 972 585 1004 q 649 897 649 940 q 617 821 649 853 m 290 -18 q 116 42 181 -18 q 51 204 51 101 q 117 357 51 300 q 308 424 183 414 l 503 439 l 503 450 q 385 554 503 554 q 246 457 246 554 l 68 457 q 158 646 68 575 q 396 717 247 717 q 629 635 547 717 q 711 406 711 554 l 711 0 l 522 0 l 508 92 q 430 13 492 44 q 290 -18 368 -18 m 365 140 q 467 171 429 140 q 504 260 504 201 l 504 297 l 396 288 q 298 265 326 282 q 269 214 269 247 q 365 140 269 140 z "},"å":{"ha":783,"x_min":51,"x_max":711,"o":"m 404 754 q 263 808 318 754 q 208 947 208 863 q 265 1085 208 1029 q 404 1142 321 1142 q 544 1085 488 1142 q 600 947 600 1029 q 544 810 600 865 q 404 754 489 754 m 344 886 q 356 874 344 886 q 404 863 367 863 q 464 886 442 863 q 486 950 486 910 q 463 1010 486 986 q 404 1033 440 1033 q 345 1010 368 1033 q 322 950 322 988 q 344 886 322 910 m 290 -18 q 116 42 181 -18 q 51 204 51 101 q 117 357 51 300 q 308 424 183 414 l 503 439 l 503 450 q 385 554 503 554 q 246 457 246 554 l 68 457 q 158 646 68 575 q 396 717 247 717 q 629 635 547 717 q 711 406 711 554 l 711 0 l 522 0 l 508 92 q 430 13 492 44 q 290 -18 368 -18 m 365 140 q 467 171 429 140 q 504 260 504 201 l 504 297 l 396 288 q 298 265 326 282 q 269 214 269 247 q 365 140 269 140 z "},"æ":{"ha":1246,"x_min":51,"x_max":1203,"o":"m 51 204 q 121 360 51 304 q 308 419 190 417 l 503 424 l 503 450 q 378 554 503 554 q 280 528 314 554 q 246 457 246 503 l 68 457 q 155 645 68 574 q 382 717 242 717 q 618 636 546 717 q 846 717 710 717 q 1106 616 1013 717 q 1200 347 1200 515 l 1200 293 l 694 290 q 854 156 717 156 q 956 177 917 156 q 1007 235 996 199 l 1203 235 q 1088 51 1183 121 q 850 -18 993 -18 q 575 114 672 -18 q 306 -18 497 -18 q 118 42 185 -18 q 51 204 51 101 m 847 543 q 694 421 721 543 l 988 421 q 951 509 988 475 q 847 543 914 543 m 269 214 q 295 160 269 179 q 365 140 321 140 q 467 172 431 140 q 504 260 504 204 l 504 293 l 382 289 q 295 270 321 286 q 269 214 269 254 z "},"ç":{"ha":790,"x_min":43,"x_max":754,"o":"m 43 350 q 143 614 43 511 q 399 717 243 717 q 649 638 553 717 q 754 422 744 558 l 539 422 q 407 525 517 525 q 299 478 339 525 q 258 350 258 431 q 297 220 258 267 q 404 174 335 174 q 539 276 518 174 l 754 276 q 657 72 744 153 q 435 -17 569 -8 l 408 -67 q 458 -58 429 -58 q 543 -87 507 -58 q 579 -176 579 -117 q 529 -283 579 -244 q 403 -322 479 -322 q 290 -296 343 -322 l 290 -207 q 392 -233 350 -233 q 469 -176 469 -233 q 408 -128 469 -128 q 340 -139 371 -128 l 321 -85 l 354 -15 q 127 99 211 0 q 43 350 43 197 z "},"è":{"ha":799,"x_min":43,"x_max":756,"o":"m 479 779 l 325 779 l 171 1010 l 363 1010 l 479 779 m 403 -18 q 144 85 246 -18 q 43 349 43 189 q 142 614 43 511 q 399 717 242 717 q 658 617 563 717 q 753 347 753 517 l 753 293 l 249 290 q 407 156 267 156 q 508 176 468 156 q 560 235 549 197 l 756 235 q 641 51 736 119 q 403 -18 546 -18 m 400 543 q 251 422 275 543 l 540 422 q 502 510 540 478 q 400 543 464 543 z "},"é":{"ha":799,"x_min":43,"x_max":756,"o":"m 633 1010 l 479 779 l 325 779 l 442 1010 l 633 1010 m 403 -18 q 144 85 246 -18 q 43 349 43 189 q 142 614 43 511 q 399 717 242 717 q 658 617 563 717 q 753 347 753 517 l 753 293 l 249 290 q 407 156 267 156 q 508 176 468 156 q 560 235 549 197 l 756 235 q 641 51 736 119 q 403 -18 546 -18 m 400 543 q 251 422 275 543 l 540 422 q 502 510 540 478 q 400 543 464 543 z "},"ê":{"ha":799,"x_min":43,"x_max":756,"o":"m 324 779 l 163 779 l 300 1024 l 506 1024 l 643 779 l 482 779 l 403 925 l 324 779 m 403 -18 q 144 85 246 -18 q 43 349 43 189 q 142 614 43 511 q 399 717 242 717 q 658 617 563 717 q 753 347 753 517 l 753 293 l 249 290 q 407 156 267 156 q 508 176 468 156 q 560 235 549 197 l 756 235 q 641 51 736 119 q 403 -18 546 -18 m 400 543 q 251 422 275 543 l 540 422 q 502 510 540 478 q 400 543 464 543 z "},"ë":{"ha":799,"x_min":43,"x_max":756,"o":"m 341 821 q 325 805 341 821 q 265 789 310 789 q 190 820 221 789 q 158 897 158 851 q 190 973 158 942 q 265 1004 222 1004 q 340 972 308 1004 q 372 897 372 940 q 341 821 372 853 m 616 821 q 600 805 616 821 q 540 789 585 789 q 465 820 496 789 q 433 897 433 851 q 465 973 433 942 q 540 1004 497 1004 q 615 972 583 1004 q 647 897 647 940 q 616 821 647 853 m 403 -18 q 144 85 246 -18 q 43 349 43 189 q 142 614 43 511 q 399 717 242 717 q 658 617 563 717 q 753 347 753 517 l 753 293 l 249 290 q 407 156 267 156 q 508 176 468 156 q 560 235 549 197 l 756 235 q 641 51 736 119 q 403 -18 546 -18 m 400 543 q 251 422 275 543 l 540 422 q 502 510 540 478 q 400 543 464 543 z "},"ì":{"ha":375,"x_min":-43,"x_max":294,"o":"m 265 779 l 111 779 l -43 1010 l 149 1010 l 265 779 m 81 0 l 81 694 l 294 694 l 294 0 l 81 0 z "},"í":{"ha":375,"x_min":81,"x_max":419,"o":"m 419 1010 l 265 779 l 111 779 l 228 1010 l 419 1010 m 81 0 l 81 694 l 294 694 l 294 0 l 81 0 z "},"î":{"ha":375,"x_min":-51,"x_max":429,"o":"m 110 779 l -51 779 l 86 1024 l 292 1024 l 429 779 l 268 779 l 189 925 l 110 779 m 81 0 l 81 694 l 294 694 l 294 0 l 81 0 z "},"ï":{"ha":375,"x_min":-56,"x_max":433,"o":"m 127 821 q 111 805 127 821 q 51 789 96 789 q -24 820 7 789 q -56 897 -56 851 q -24 973 -56 942 q 51 1004 8 1004 q 126 972 94 1004 q 158 897 158 940 q 127 821 158 853 m 402 821 q 386 805 402 821 q 326 789 371 789 q 251 820 282 789 q 219 897 219 851 q 251 973 219 942 q 326 1004 283 1004 q 401 972 369 1004 q 433 897 433 940 q 402 821 433 853 m 81 0 l 81 694 l 294 694 l 294 0 l 81 0 z "},"ð":{"ha":842,"x_min":43,"x_max":799,"o":"m 43 340 q 145 588 43 493 q 393 683 247 683 q 546 646 489 683 q 454 811 510 724 l 274 749 l 231 864 l 382 915 q 271 1047 325 992 l 513 1047 q 571 981 544 1014 l 672 1015 l 715 900 l 646 876 q 799 386 799 635 q 692 86 799 190 q 422 -18 586 -18 q 146 81 249 -18 q 43 340 43 181 m 258 332 q 300 219 258 265 q 419 174 342 174 q 538 218 496 174 q 579 329 579 263 q 538 445 579 399 q 418 492 496 492 q 300 446 342 492 q 258 332 258 400 z "},"ñ":{"ha":842,"x_min":81,"x_max":769,"o":"m 294 783 l 175 782 q 203 945 163 883 q 319 1007 243 1007 q 442 964 375 1007 q 533 921 508 921 q 583 1007 583 921 l 703 1007 q 674 839 714 896 q 557 782 633 782 q 469 803 511 782 q 396 847 428 825 q 343 868 364 868 q 294 783 294 868 m 294 0 l 81 0 l 81 694 l 282 694 l 296 622 q 508 717 364 717 q 701 641 632 717 q 769 429 769 565 l 769 0 l 556 0 l 556 378 q 522 483 556 443 q 433 522 489 522 q 332 484 369 522 q 294 381 294 446 l 294 0 z "},"ò":{"ha":851,"x_min":43,"x_max":808,"o":"m 503 779 l 349 779 l 194 1010 l 386 1010 l 503 779 m 151 84 q 97 134 151 84 q 43 349 43 185 q 151 614 43 513 q 426 715 258 715 q 701 614 593 715 q 808 349 808 513 q 701 85 808 186 q 426 -17 593 -17 q 151 84 258 -17 m 258 350 q 305 223 258 271 q 426 175 351 175 q 547 223 500 175 q 593 350 593 271 q 547 476 593 428 q 426 524 500 524 q 305 476 351 524 q 258 350 258 428 z "},"ó":{"ha":851,"x_min":43,"x_max":808,"o":"m 657 1010 l 503 779 l 349 779 l 465 1010 l 657 1010 m 151 84 q 97 134 151 84 q 43 349 43 185 q 151 614 43 513 q 426 715 258 715 q 701 614 593 715 q 808 349 808 513 q 701 85 808 186 q 426 -17 593 -17 q 151 84 258 -17 m 258 350 q 305 223 258 271 q 426 175 351 175 q 547 223 500 175 q 593 350 593 271 q 547 476 593 428 q 426 524 500 524 q 305 476 351 524 q 258 350 258 428 z "},"ô":{"ha":851,"x_min":43,"x_max":808,"o":"m 347 779 l 186 779 l 324 1024 l 529 1024 l 667 779 l 506 779 l 426 925 l 347 779 m 151 84 q 97 134 151 84 q 43 349 43 185 q 151 614 43 513 q 426 715 258 715 q 701 614 593 715 q 808 349 808 513 q 701 85 808 186 q 426 -17 593 -17 q 151 84 258 -17 m 258 350 q 305 223 258 271 q 426 175 351 175 q 547 223 500 175 q 593 350 593 271 q 547 476 593 428 q 426 524 500 524 q 305 476 351 524 q 258 350 258 428 z "},"õ":{"ha":851,"x_min":43,"x_max":808,"o":"m 282 783 l 163 782 q 190 945 150 883 q 307 1007 231 1007 q 429 964 363 1007 q 521 921 496 921 q 571 1007 571 921 l 690 1007 q 661 839 701 896 q 544 782 621 782 q 457 803 499 782 q 383 847 415 825 q 331 868 351 868 q 282 783 282 868 m 151 84 q 97 134 151 84 q 43 349 43 185 q 151 614 43 513 q 426 715 258 715 q 701 614 593 715 q 808 349 808 513 q 701 85 808 186 q 426 -17 593 -17 q 151 84 258 -17 m 258 350 q 305 223 258 271 q 426 175 351 175 q 547 223 500 175 q 593 350 593 271 q 547 476 593 428 q 426 524 500 524 q 305 476 351 524 q 258 350 258 428 z "},"ö":{"ha":851,"x_min":43,"x_max":808,"o":"m 365 821 q 349 805 365 821 q 289 789 333 789 q 213 820 244 789 q 182 897 182 851 q 213 973 182 942 q 289 1004 244 1004 q 364 972 332 1004 q 396 897 396 940 q 365 821 396 853 m 640 821 q 624 805 640 821 q 564 789 608 789 q 488 820 519 789 q 457 897 457 851 q 488 973 457 942 q 564 1004 519 1004 q 639 972 607 1004 q 671 897 671 940 q 640 821 671 853 m 151 84 q 97 134 151 84 q 43 349 43 185 q 151 614 43 513 q 426 715 258 715 q 701 614 593 715 q 808 349 808 513 q 701 85 808 186 q 426 -17 593 -17 q 151 84 258 -17 m 258 350 q 305 223 258 271 q 426 175 351 175 q 547 223 500 175 q 593 350 593 271 q 547 476 593 428 q 426 524 500 524 q 305 476 351 524 q 258 350 258 428 z "},"÷":{"ha":917,"x_min":111,"x_max":806,"o":"m 460 572 q 378 606 413 572 q 343 685 343 639 q 377 765 343 732 q 460 799 411 799 q 540 765 506 799 q 574 685 574 731 q 540 606 574 639 q 460 572 506 572 m 111 514 l 806 514 l 806 336 l 111 336 l 111 514 m 460 50 q 378 84 413 50 q 343 164 343 118 q 377 244 343 211 q 460 278 411 278 q 540 244 506 278 q 574 164 574 210 q 539 84 574 118 q 460 50 504 50 z "},"ø":{"ha":851,"x_min":43,"x_max":808,"o":"m 43 349 q 151 614 43 513 q 426 715 258 715 q 556 697 490 715 l 594 760 l 776 760 l 692 622 q 808 349 808 519 q 701 85 808 186 q 426 -17 593 -17 q 308 -1 367 -17 l 268 -68 l 76 -68 l 164 72 q 43 349 43 175 m 258 350 q 281 257 258 299 l 446 522 q 426 524 440 524 q 305 476 351 524 q 258 350 258 428 m 593 350 q 576 433 593 397 l 418 175 l 426 175 q 547 223 500 175 q 593 350 593 271 z "},"ù":{"ha":836,"x_min":72,"x_max":756,"o":"m 490 779 l 336 779 l 182 1010 l 374 1010 l 490 779 m 542 694 l 756 694 l 756 0 l 554 0 l 540 78 q 449 8 508 35 q 328 -18 390 -18 q 141 56 210 -18 q 72 258 72 131 l 72 694 l 286 694 l 286 336 q 317 212 286 251 q 413 172 347 172 q 511 210 481 172 q 542 333 542 247 l 542 694 z "},"ú":{"ha":836,"x_min":72,"x_max":756,"o":"m 644 1010 l 490 779 l 336 779 l 453 1010 l 644 1010 m 542 694 l 756 694 l 756 0 l 554 0 l 540 78 q 449 8 508 35 q 328 -18 390 -18 q 141 56 210 -18 q 72 258 72 131 l 72 694 l 286 694 l 286 336 q 317 212 286 251 q 413 172 347 172 q 511 210 481 172 q 542 333 542 247 l 542 694 z "},"û":{"ha":836,"x_min":72,"x_max":756,"o":"m 335 779 l 174 779 l 311 1024 l 517 1024 l 654 779 l 493 779 l 414 925 l 335 779 m 542 694 l 756 694 l 756 0 l 554 0 l 540 78 q 449 8 508 35 q 328 -18 390 -18 q 141 56 210 -18 q 72 258 72 131 l 72 694 l 286 694 l 286 336 q 317 212 286 251 q 413 172 347 172 q 511 210 481 172 q 542 333 542 247 l 542 694 z "},"ü":{"ha":836,"x_min":72,"x_max":756,"o":"m 352 821 q 336 805 352 821 q 276 789 321 789 q 201 820 232 789 q 169 897 169 851 q 201 973 169 942 q 276 1004 233 1004 q 351 972 319 1004 q 383 897 383 940 q 352 821 383 853 m 627 821 q 611 805 627 821 q 551 789 596 789 q 476 820 507 789 q 444 897 444 851 q 476 973 444 942 q 551 1004 508 1004 q 626 972 594 1004 q 658 897 658 940 q 627 821 658 853 m 542 694 l 756 694 l 756 0 l 554 0 l 540 78 q 449 8 508 35 q 328 -18 390 -18 q 141 56 210 -18 q 72 258 72 131 l 72 694 l 286 694 l 286 336 q 317 212 286 251 q 413 172 347 172 q 511 210 481 172 q 542 333 542 247 l 542 694 z "},"ý":{"ha":785,"x_min":7,"x_max":778,"o":"m 635 1010 l 481 779 l 326 779 l 443 1010 l 635 1010 m 25 -333 l 25 -154 l 143 -154 q 225 -133 197 -154 q 274 -57 253 -112 l 286 -24 l 7 694 l 236 694 l 388 249 l 556 694 l 778 694 l 425 -151 q 320 -305 382 -257 q 167 -353 258 -353 q 25 -333 90 -353 z "},"þ":{"ha":889,"x_min":81,"x_max":846,"o":"m 846 356 q 759 84 846 188 q 519 -19 672 -19 q 387 5 449 -19 q 294 69 325 29 l 294 -333 l 81 -333 l 81 1047 l 294 1047 l 294 614 q 390 690 326 661 q 528 718 453 718 q 759 619 672 718 q 846 356 846 521 m 585 224 q 608 249 585 224 q 631 351 631 274 q 585 477 631 429 q 465 525 540 525 q 343 477 390 525 q 296 351 296 429 q 343 224 296 274 q 465 174 390 174 q 585 224 540 174 z "},"ÿ":{"ha":785,"x_min":7,"x_max":778,"o":"m 342 821 q 327 805 342 821 q 267 789 311 789 q 191 820 222 789 q 160 897 160 851 q 191 973 160 942 q 267 1004 222 1004 q 342 972 310 1004 q 374 897 374 940 q 342 821 374 853 m 617 821 q 602 805 617 821 q 542 789 586 789 q 466 820 497 789 q 435 897 435 851 q 466 973 435 942 q 542 1004 497 1004 q 617 972 585 1004 q 649 897 649 940 q 617 821 649 853 m 25 -333 l 25 -154 l 143 -154 q 225 -133 197 -154 q 274 -57 253 -112 l 286 -24 l 7 694 l 236 694 l 388 249 l 556 694 l 778 694 l 425 -151 q 320 -305 382 -257 q 167 -353 258 -353 q 25 -333 90 -353 z "},"Ā":{"ha":976,"x_min":13,"x_max":964,"o":"m 290 1135 l 290 1279 l 693 1279 l 693 1135 l 290 1135 m 247 0 l 13 0 l 379 1028 l 599 1028 l 964 0 l 725 0 l 653 217 l 321 217 l 247 0 m 460 625 l 386 406 l 589 406 l 515 625 q 488 725 492 697 q 460 625 482 689 z "},"ā":{"ha":783,"x_min":51,"x_max":711,"o":"m 203 815 l 203 960 l 606 960 l 606 815 l 203 815 m 290 -18 q 116 42 181 -18 q 51 204 51 101 q 117 357 51 300 q 308 424 183 414 l 503 439 l 503 450 q 385 554 503 554 q 246 457 246 554 l 68 457 q 158 646 68 575 q 396 717 247 717 q 629 635 547 717 q 711 406 711 554 l 711 0 l 522 0 l 508 92 q 430 13 492 44 q 290 -18 368 -18 m 365 140 q 467 171 429 140 q 504 260 504 201 l 504 297 l 396 288 q 298 265 326 282 q 269 214 269 247 q 365 140 269 140 z "},"Ă":{"ha":976,"x_min":13,"x_max":964,"o":"m 588 1332 l 738 1332 q 671 1151 738 1218 q 493 1085 604 1085 q 312 1151 378 1085 q 246 1332 246 1217 l 397 1332 q 422 1252 397 1281 q 493 1224 447 1224 q 563 1252 538 1224 q 588 1332 588 1281 m 247 0 l 13 0 l 379 1028 l 599 1028 l 964 0 l 725 0 l 653 217 l 321 217 l 247 0 m 460 625 l 386 406 l 589 406 l 515 625 q 488 725 492 697 q 460 625 482 689 z "},"ă":{"ha":783,"x_min":51,"x_max":711,"o":"m 500 1013 l 650 1013 q 583 832 650 899 q 406 765 517 765 q 225 831 292 765 q 158 1013 158 897 l 310 1013 q 335 933 310 961 q 406 904 360 904 q 475 933 450 904 q 500 1013 500 961 m 290 -18 q 116 42 181 -18 q 51 204 51 101 q 117 357 51 300 q 308 424 183 414 l 503 439 l 503 450 q 385 554 503 554 q 246 457 246 554 l 68 457 q 158 646 68 575 q 396 717 247 717 q 629 635 547 717 q 711 406 711 554 l 711 0 l 522 0 l 508 92 q 430 13 492 44 q 290 -18 368 -18 m 365 140 q 467 171 429 140 q 504 260 504 201 l 504 297 l 396 288 q 298 265 326 282 q 269 214 269 247 q 365 140 269 140 z "},"Ą":{"ha":976,"x_min":13,"x_max":964,"o":"m 247 0 l 13 0 l 379 1028 l 599 1028 l 964 0 l 963 0 q 879 -49 907 -18 q 851 -112 851 -81 q 867 -152 851 -136 q 910 -168 883 -168 q 953 -158 932 -168 l 953 -294 q 871 -310 918 -310 q 755 -267 799 -310 q 711 -161 711 -224 q 743 -66 711 -110 q 836 0 775 -22 l 725 0 l 653 217 l 321 217 l 247 0 m 460 625 l 386 406 l 589 406 l 515 625 q 488 725 492 697 q 460 625 482 689 z "},"ą":{"ha":783,"x_min":51,"x_max":711,"o":"m 290 -18 q 116 42 181 -18 q 51 204 51 101 q 117 357 51 300 q 308 424 183 414 l 503 439 l 503 450 q 385 554 503 554 q 246 457 246 554 l 68 457 q 158 646 68 575 q 396 717 247 717 q 629 635 547 717 q 711 406 711 554 l 711 0 l 710 0 q 626 -49 654 -18 q 599 -112 599 -81 q 615 -152 599 -136 q 657 -168 631 -168 q 700 -158 679 -168 l 700 -294 q 618 -310 665 -310 q 502 -267 546 -310 q 458 -161 458 -224 q 490 -66 458 -110 q 583 0 522 -22 l 522 0 l 508 92 q 430 13 492 44 q 290 -18 368 -18 m 365 140 q 467 171 429 140 q 504 260 504 201 l 504 297 l 396 288 q 298 265 326 282 q 269 214 269 247 q 365 140 269 140 z "},"Ć":{"ha":1079,"x_min":50,"x_max":1036,"o":"m 789 1329 l 635 1099 l 481 1099 l 597 1329 l 789 1329 m 551 -17 q 185 126 321 -17 q 50 513 50 268 q 190 899 50 753 q 561 1044 331 1044 q 883 942 754 1044 q 1035 667 1011 839 l 797 667 q 711 786 774 744 q 556 828 649 828 q 359 744 431 828 q 288 514 288 661 q 360 285 288 369 q 556 200 432 200 q 716 244 650 200 q 803 364 782 288 l 1036 364 q 876 88 1008 192 q 551 -17 744 -17 z "},"ć":{"ha":790,"x_min":43,"x_max":754,"o":"m 631 1010 l 476 779 l 322 779 l 439 1010 l 631 1010 m 43 350 q 143 614 43 511 q 399 717 243 717 q 649 638 553 717 q 754 422 744 558 l 539 422 q 407 525 517 525 q 299 478 339 525 q 258 350 258 431 q 297 220 258 267 q 404 174 335 174 q 539 276 518 174 l 754 276 q 647 63 743 144 q 404 -18 550 -18 q 142 83 240 -18 q 43 350 43 183 z "},"Ĉ":{"ha":1079,"x_min":50,"x_max":1036,"o":"m 479 1099 l 318 1099 l 456 1343 l 661 1343 l 799 1099 l 638 1099 l 558 1244 l 479 1099 m 551 -17 q 185 126 321 -17 q 50 513 50 268 q 190 899 50 753 q 561 1044 331 1044 q 883 942 754 1044 q 1035 667 1011 839 l 797 667 q 711 786 774 744 q 556 828 649 828 q 359 744 431 828 q 288 514 288 661 q 360 285 288 369 q 556 200 432 200 q 716 244 650 200 q 803 364 782 288 l 1036 364 q 876 88 1008 192 q 551 -17 744 -17 z "},"ĉ":{"ha":790,"x_min":43,"x_max":754,"o":"m 321 779 l 160 779 l 297 1024 l 503 1024 l 640 779 l 479 779 l 400 925 l 321 779 m 43 350 q 143 614 43 511 q 399 717 243 717 q 649 638 553 717 q 754 422 744 558 l 539 422 q 407 525 517 525 q 299 478 339 525 q 258 350 258 431 q 297 220 258 267 q 404 174 335 174 q 539 276 518 174 l 754 276 q 647 63 743 144 q 404 -18 550 -18 q 142 83 240 -18 q 43 350 43 183 z "},"Ċ":{"ha":1079,"x_min":50,"x_max":1036,"o":"m 638 1142 q 621 1125 638 1142 q 557 1108 604 1108 q 477 1142 510 1108 q 444 1222 444 1175 q 478 1303 444 1269 q 557 1336 511 1336 q 638 1302 604 1336 q 671 1222 671 1268 q 638 1142 671 1175 m 551 -17 q 185 126 321 -17 q 50 513 50 268 q 190 899 50 753 q 561 1044 331 1044 q 883 942 754 1044 q 1035 667 1011 839 l 797 667 q 711 786 774 744 q 556 828 649 828 q 359 744 431 828 q 288 514 288 661 q 360 285 288 369 q 556 200 432 200 q 716 244 650 200 q 803 364 782 288 l 1036 364 q 876 88 1008 192 q 551 -17 744 -17 z "},"ċ":{"ha":790,"x_min":43,"x_max":754,"o":"m 479 822 q 463 806 479 822 q 399 789 446 789 q 319 822 351 789 q 286 903 286 856 q 319 983 286 950 q 399 1017 353 1017 q 479 983 446 1017 q 513 903 513 949 q 479 822 513 856 m 43 350 q 143 614 43 511 q 399 717 243 717 q 649 638 553 717 q 754 422 744 558 l 539 422 q 407 525 517 525 q 299 478 339 525 q 258 350 258 431 q 297 220 258 267 q 404 174 335 174 q 539 276 518 174 l 754 276 q 647 63 743 144 q 404 -18 550 -18 q 142 83 240 -18 q 43 350 43 183 z "},"Č":{"ha":1079,"x_min":50,"x_max":1036,"o":"m 456 1099 l 318 1343 l 479 1343 l 558 1197 l 638 1343 l 799 1343 l 661 1099 l 456 1099 m 551 -17 q 185 126 321 -17 q 50 513 50 268 q 190 899 50 753 q 561 1044 331 1044 q 883 942 754 1044 q 1035 667 1011 839 l 797 667 q 711 786 774 744 q 556 828 649 828 q 359 744 431 828 q 288 514 288 661 q 360 285 288 369 q 556 200 432 200 q 716 244 650 200 q 803 364 782 288 l 1036 364 q 876 88 1008 192 q 551 -17 744 -17 z "},"č":{"ha":790,"x_min":43,"x_max":754,"o":"m 297 779 l 160 1024 l 321 1024 l 400 878 l 479 1024 l 640 1024 l 503 779 l 297 779 m 43 350 q 143 614 43 511 q 399 717 243 717 q 649 638 553 717 q 754 422 744 558 l 539 422 q 407 525 517 525 q 299 478 339 525 q 258 350 258 431 q 297 220 258 267 q 404 174 335 174 q 539 276 518 174 l 754 276 q 647 63 743 144 q 404 -18 550 -18 q 142 83 240 -18 q 43 350 43 183 z "},"Ď":{"ha":1057,"x_min":107,"x_max":1007,"o":"m 361 1099 l 224 1343 l 385 1343 l 464 1197 l 543 1343 l 704 1343 l 567 1099 l 361 1099 m 510 0 l 107 0 l 107 1028 l 496 1028 q 865 884 722 1028 q 1007 511 1007 740 q 868 143 1007 286 q 510 0 729 0 m 474 819 l 332 819 l 332 208 l 488 208 q 695 288 621 208 q 769 511 769 368 q 692 738 769 657 q 474 819 614 819 z "},"ď":{"ha":889,"x_min":43,"x_max":1044,"o":"m 372 -18 q 133 81 222 -18 q 43 343 43 179 q 136 613 43 510 q 386 717 229 717 q 507 693 450 717 q 594 631 564 669 l 594 1047 l 808 1047 l 808 0 l 607 0 l 596 89 q 507 11 568 40 q 372 -18 446 -18 m 874 775 l 874 1047 l 1044 1047 l 1000 775 l 874 775 m 303 226 q 326 202 303 226 q 424 178 349 178 q 546 226 499 178 q 593 351 593 274 q 546 477 593 429 q 424 525 499 525 q 303 477 349 525 q 258 351 258 429 q 303 226 258 274 z "},"Đ":{"ha":1057,"x_min":14,"x_max":1007,"o":"m 14 424 l 14 606 l 107 606 l 107 1028 l 496 1028 q 865 884 722 1028 q 1007 511 1007 740 q 868 143 1007 286 q 510 0 729 0 l 107 0 l 107 424 l 14 424 m 533 424 l 332 424 l 332 208 l 488 208 q 695 288 621 208 q 769 511 769 368 q 692 738 769 657 q 474 819 614 819 l 332 819 l 332 606 l 533 606 l 533 424 z "},"đ":{"ha":889,"x_min":43,"x_max":899,"o":"m 372 -18 q 133 81 222 -18 q 43 343 43 179 q 136 613 43 510 q 386 717 229 717 q 507 693 450 717 q 594 631 564 669 l 594 801 l 379 801 l 379 925 l 594 925 l 594 1047 l 808 1047 l 808 925 l 899 925 l 899 801 l 808 801 l 808 0 l 607 0 l 596 89 q 507 11 568 40 q 372 -18 446 -18 m 303 226 q 326 202 303 226 q 424 178 349 178 q 546 226 499 178 q 593 351 593 274 q 546 477 593 429 q 424 525 499 525 q 303 477 349 525 q 258 351 258 429 q 303 226 258 274 z "},"Ē":{"ha":838,"x_min":107,"x_max":760,"o":"m 232 1135 l 232 1279 l 635 1279 l 635 1135 l 232 1135 m 760 0 l 107 0 l 107 1028 l 760 1028 l 760 819 l 332 819 l 332 618 l 711 618 l 711 421 l 332 421 l 332 208 l 760 208 l 760 0 z "},"ē":{"ha":799,"x_min":43,"x_max":756,"o":"m 201 815 l 201 960 l 604 960 l 604 815 l 201 815 m 403 -18 q 144 85 246 -18 q 43 349 43 189 q 142 614 43 511 q 399 717 242 717 q 658 617 563 717 q 753 347 753 517 l 753 293 l 249 290 q 407 156 267 156 q 508 176 468 156 q 560 235 549 197 l 756 235 q 641 51 736 119 q 403 -18 546 -18 m 400 543 q 251 422 275 543 l 540 422 q 502 510 540 478 q 400 543 464 543 z "},"Ĕ":{"ha":838,"x_min":107,"x_max":760,"o":"m 529 1332 l 679 1332 q 613 1151 679 1218 q 435 1085 546 1085 q 253 1151 319 1085 q 188 1332 188 1217 l 339 1332 q 364 1252 339 1281 q 435 1224 389 1224 q 504 1252 479 1224 q 529 1332 529 1281 m 760 0 l 107 0 l 107 1028 l 760 1028 l 760 819 l 332 819 l 332 618 l 711 618 l 711 421 l 332 421 l 332 208 l 760 208 l 760 0 z "},"ĕ":{"ha":799,"x_min":43,"x_max":756,"o":"m 499 1013 l 649 1013 q 582 832 649 899 q 404 765 515 765 q 223 831 289 765 q 157 1013 157 897 l 308 1013 q 333 933 308 961 q 404 904 358 904 q 474 933 449 904 q 499 1013 499 961 m 403 -18 q 144 85 246 -18 q 43 349 43 189 q 142 614 43 511 q 399 717 242 717 q 658 617 563 717 q 753 347 753 517 l 753 293 l 249 290 q 407 156 267 156 q 508 176 468 156 q 560 235 549 197 l 756 235 q 641 51 736 119 q 403 -18 546 -18 m 400 543 q 251 422 275 543 l 540 422 q 502 510 540 478 q 400 543 464 543 z "},"Ė":{"ha":838,"x_min":107,"x_max":760,"o":"m 513 1142 q 496 1125 513 1142 q 432 1108 479 1108 q 352 1142 385 1108 q 319 1222 319 1175 q 353 1303 319 1269 q 432 1336 386 1336 q 513 1302 479 1336 q 546 1222 546 1268 q 513 1142 546 1175 m 760 0 l 107 0 l 107 1028 l 760 1028 l 760 819 l 332 819 l 332 618 l 711 618 l 711 421 l 332 421 l 332 208 l 760 208 l 760 0 z "},"ė":{"ha":799,"x_min":43,"x_max":756,"o":"m 482 822 q 465 806 482 822 q 401 789 449 789 q 322 822 354 789 q 289 903 289 856 q 322 983 289 950 q 401 1017 356 1017 q 482 983 449 1017 q 515 903 515 949 q 482 822 515 856 m 403 -18 q 144 85 246 -18 q 43 349 43 189 q 142 614 43 511 q 399 717 242 717 q 658 617 563 717 q 753 347 753 517 l 753 293 l 249 290 q 407 156 267 156 q 508 176 468 156 q 560 235 549 197 l 756 235 q 641 51 736 119 q 403 -18 546 -18 m 400 543 q 251 422 275 543 l 540 422 q 502 510 540 478 q 400 543 464 543 z "},"Ę":{"ha":838,"x_min":107,"x_max":760,"o":"m 632 0 l 107 0 l 107 1028 l 760 1028 l 760 819 l 332 819 l 332 618 l 711 618 l 711 421 l 332 421 l 332 208 l 760 208 l 760 0 l 758 0 q 675 -49 703 -18 q 647 -112 647 -81 q 663 -152 647 -136 q 706 -168 679 -168 q 749 -158 728 -168 l 749 -294 q 667 -310 714 -310 q 551 -267 594 -310 q 507 -161 507 -224 q 539 -66 507 -110 q 632 0 571 -22 z "},"ę":{"ha":799,"x_min":43,"x_max":756,"o":"m 525 -294 q 443 -310 490 -310 q 327 -267 371 -310 q 283 -161 283 -224 q 372 -17 283 -67 q 135 96 226 -6 q 43 349 43 197 q 142 614 43 511 q 399 717 242 717 q 658 617 563 717 q 753 347 753 517 l 753 293 l 249 290 q 407 156 267 156 q 508 176 468 156 q 560 235 549 197 l 756 235 q 683 87 742 149 q 532 -1 624 25 q 451 -50 478 -19 q 424 -112 424 -81 q 440 -152 424 -136 q 482 -168 456 -168 q 525 -158 504 -168 l 525 -294 m 400 543 q 251 422 275 543 l 540 422 q 502 510 540 478 q 400 543 464 543 z "},"Ě":{"ha":838,"x_min":107,"x_max":760,"o":"m 331 1099 l 193 1343 l 354 1343 l 433 1197 l 513 1343 l 674 1343 l 536 1099 l 331 1099 m 760 0 l 107 0 l 107 1028 l 760 1028 l 760 819 l 332 819 l 332 618 l 711 618 l 711 421 l 332 421 l 332 208 l 760 208 l 760 0 z "},"ě":{"ha":799,"x_min":43,"x_max":756,"o":"m 300 779 l 163 1024 l 324 1024 l 403 878 l 482 1024 l 643 1024 l 506 779 l 300 779 m 403 -18 q 144 85 246 -18 q 43 349 43 189 q 142 614 43 511 q 399 717 242 717 q 658 617 563 717 q 753 347 753 517 l 753 293 l 249 290 q 407 156 267 156 q 508 176 468 156 q 560 235 549 197 l 756 235 q 641 51 736 119 q 403 -18 546 -18 m 400 543 q 251 422 275 543 l 540 422 q 502 510 540 478 q 400 543 464 543 z "},"Ĝ":{"ha":1113,"x_min":50,"x_max":1033,"o":"m 494 1099 l 333 1099 l 471 1343 l 676 1343 l 814 1099 l 653 1099 l 574 1244 l 494 1099 m 569 833 q 360 745 433 833 q 288 504 288 657 q 364 274 288 354 q 568 194 440 194 q 751 250 688 194 q 822 393 814 306 l 550 393 l 550 590 l 1033 590 l 1033 0 l 840 0 l 828 93 q 708 14 786 43 q 539 -15 631 -15 q 186 130 322 -15 q 50 511 50 275 q 194 895 50 746 q 575 1044 339 1044 q 888 944 761 1044 q 1033 678 1015 843 l 797 678 q 716 794 778 756 q 569 833 654 833 z "},"ĝ":{"ha":879,"x_min":43,"x_max":799,"o":"m 322 779 l 161 779 l 299 1024 l 504 1024 l 642 779 l 481 779 l 401 925 l 322 779 m 46 360 q 139 618 46 518 q 379 718 232 718 q 586 625 525 718 l 597 694 l 799 694 l 799 44 q 697 -248 799 -142 q 418 -354 596 -354 q 158 -269 258 -354 q 43 -36 57 -183 l 260 -36 q 304 -127 263 -94 q 417 -160 346 -160 q 540 -117 494 -160 q 585 0 585 -74 l 585 90 q 375 8 517 8 q 138 106 229 8 q 46 360 46 204 m 261 365 q 306 242 261 290 q 422 194 351 194 q 540 242 496 194 q 585 365 585 289 q 540 487 585 442 q 421 532 494 532 q 306 485 350 532 q 261 365 261 439 z "},"Ğ":{"ha":1113,"x_min":50,"x_max":1033,"o":"m 669 1332 l 819 1332 q 753 1151 819 1218 q 575 1085 686 1085 q 394 1151 461 1085 q 328 1332 328 1217 l 479 1332 q 504 1252 479 1281 q 575 1224 529 1224 q 644 1252 619 1224 q 669 1332 669 1281 m 569 833 q 360 745 433 833 q 288 504 288 657 q 364 274 288 354 q 568 194 440 194 q 751 250 688 194 q 822 393 814 306 l 550 393 l 550 590 l 1033 590 l 1033 0 l 840 0 l 828 93 q 708 14 786 43 q 539 -15 631 -15 q 186 130 322 -15 q 50 511 50 275 q 194 895 50 746 q 575 1044 339 1044 q 888 944 761 1044 q 1033 678 1015 843 l 797 678 q 716 794 778 756 q 569 833 654 833 z "},"ğ":{"ha":879,"x_min":43,"x_max":799,"o":"m 497 1013 l 647 1013 q 581 832 647 899 q 403 765 514 765 q 222 831 289 765 q 156 1013 156 897 l 307 1013 q 332 933 307 961 q 403 904 357 904 q 472 933 447 904 q 497 1013 497 961 m 46 360 q 139 618 46 518 q 379 718 232 718 q 586 625 525 718 l 597 694 l 799 694 l 799 44 q 697 -248 799 -142 q 418 -354 596 -354 q 158 -269 258 -354 q 43 -36 57 -183 l 260 -36 q 304 -127 263 -94 q 417 -160 346 -160 q 540 -117 494 -160 q 585 0 585 -74 l 585 90 q 375 8 517 8 q 138 106 229 8 q 46 360 46 204 m 261 365 q 306 242 261 290 q 422 194 351 194 q 540 242 496 194 q 585 365 585 289 q 540 487 585 442 q 421 532 494 532 q 306 485 350 532 q 261 365 261 439 z "},"Ġ":{"ha":1113,"x_min":50,"x_max":1033,"o":"m 653 1142 q 636 1125 653 1142 q 572 1108 619 1108 q 492 1142 525 1108 q 460 1222 460 1175 q 493 1303 460 1269 q 572 1336 526 1336 q 653 1302 619 1336 q 686 1222 686 1268 q 653 1142 686 1175 m 569 833 q 360 745 433 833 q 288 504 288 657 q 364 274 288 354 q 568 194 440 194 q 751 250 688 194 q 822 393 814 306 l 550 393 l 550 590 l 1033 590 l 1033 0 l 840 0 l 828 93 q 708 14 786 43 q 539 -15 631 -15 q 186 130 322 -15 q 50 511 50 275 q 194 895 50 746 q 575 1044 339 1044 q 888 944 761 1044 q 1033 678 1015 843 l 797 678 q 716 794 778 756 q 569 833 654 833 z "},"ġ":{"ha":879,"x_min":43,"x_max":799,"o":"m 481 822 q 464 806 481 822 q 400 789 447 789 q 320 822 353 789 q 288 903 288 856 q 321 983 288 950 q 400 1017 354 1017 q 481 983 447 1017 q 514 903 514 949 q 481 822 514 856 m 46 360 q 139 618 46 518 q 379 718 232 718 q 586 625 525 718 l 597 694 l 799 694 l 799 44 q 697 -248 799 -142 q 418 -354 596 -354 q 158 -269 258 -354 q 43 -36 57 -183 l 260 -36 q 304 -127 263 -94 q 417 -160 346 -160 q 540 -117 494 -160 q 585 0 585 -74 l 585 90 q 375 8 517 8 q 138 106 229 8 q 46 360 46 204 m 261 365 q 306 242 261 290 q 422 194 351 194 q 540 242 496 194 q 585 365 585 289 q 540 487 585 442 q 421 532 494 532 q 306 485 350 532 q 261 365 261 439 z "},"Ģ":{"ha":1113,"x_min":50,"x_max":1033,"o":"m 569 833 q 360 745 433 833 q 288 504 288 657 q 364 274 288 354 q 568 194 440 194 q 751 250 688 194 q 822 393 814 306 l 550 393 l 550 590 l 1033 590 l 1033 0 l 840 0 l 828 93 q 708 14 786 43 q 539 -15 631 -15 q 186 130 322 -15 q 50 511 50 275 q 194 895 50 746 q 575 1044 339 1044 q 888 944 761 1044 q 1033 678 1015 843 l 797 678 q 716 794 778 756 q 569 833 654 833 m 640 -169 q 590 -302 640 -253 q 444 -339 539 -351 l 444 -274 q 557 -221 553 -287 q 518 -231 543 -231 q 457 -206 481 -231 q 433 -142 433 -181 q 461 -73 433 -99 q 535 -47 489 -47 q 611 -81 582 -47 q 640 -169 640 -114 z "},"ģ":{"ha":879,"x_min":43,"x_max":799,"o":"m 494 901 q 467 833 494 858 q 393 807 439 807 q 317 840 346 807 q 288 929 288 874 q 338 1062 288 1013 q 483 1099 389 1111 l 483 1033 q 371 981 375 1047 q 410 990 385 990 q 471 965 447 990 q 494 901 494 940 m 46 360 q 139 618 46 518 q 379 718 232 718 q 586 625 525 718 l 597 694 l 799 694 l 799 44 q 697 -248 799 -142 q 418 -354 596 -354 q 158 -269 258 -354 q 43 -36 57 -183 l 260 -36 q 304 -127 263 -94 q 417 -160 346 -160 q 540 -117 494 -160 q 585 0 585 -74 l 585 90 q 375 8 517 8 q 138 106 229 8 q 46 360 46 204 m 261 365 q 306 242 261 290 q 422 194 351 194 q 540 242 496 194 q 585 365 585 289 q 540 487 585 442 q 421 532 494 532 q 306 485 350 532 q 261 365 261 439 z "},"Ħ":{"ha":1061,"x_min":3,"x_max":1060,"o":"m 332 0 l 107 0 l 107 733 l 3 733 l 3 922 l 107 922 l 107 1028 l 332 1028 l 332 922 l 729 922 l 729 1028 l 954 1028 l 954 922 l 1060 922 l 1060 733 l 954 733 l 954 0 l 729 0 l 729 414 l 332 414 l 332 0 m 332 622 l 729 622 l 729 733 l 332 733 l 332 622 z "},"ħ":{"ha":842,"x_min":-10,"x_max":769,"o":"m 294 0 l 81 0 l 81 801 l -10 801 l -10 925 l 81 925 l 81 1047 l 296 1047 l 296 925 l 510 925 l 510 801 l 296 801 l 296 622 q 508 717 364 717 q 701 641 632 717 q 769 429 769 565 l 769 0 l 556 0 l 556 378 q 522 483 556 443 q 433 522 489 522 q 332 484 369 522 q 294 381 294 446 l 294 0 z "},"Ĩ":{"ha":439,"x_min":-44,"x_max":483,"o":"m 75 1103 l -44 1101 q -17 1265 -57 1203 q 100 1326 24 1326 q 222 1283 156 1326 q 314 1240 289 1240 q 364 1326 364 1240 l 483 1326 q 454 1158 494 1215 q 338 1101 414 1101 q 250 1123 292 1101 q 176 1166 208 1144 q 124 1188 144 1188 q 75 1103 75 1188 m 332 1028 l 332 0 l 107 0 l 107 1028 l 332 1028 z "},"ĩ":{"ha":375,"x_min":-75,"x_max":453,"o":"m 44 783 l -75 782 q -47 945 -87 883 q 69 1007 -7 1007 q 192 964 125 1007 q 283 921 258 921 q 333 1007 333 921 l 453 1007 q 424 839 464 896 q 307 782 383 782 q 219 803 261 782 q 146 847 178 825 q 93 868 114 868 q 44 783 44 868 m 81 0 l 81 694 l 294 694 l 294 0 l 81 0 z "},"Ī":{"ha":439,"x_min":18,"x_max":421,"o":"m 18 1135 l 18 1279 l 421 1279 l 421 1135 l 18 1135 m 332 1028 l 332 0 l 107 0 l 107 1028 l 332 1028 z "},"ī":{"ha":375,"x_min":-12,"x_max":390,"o":"m -12 815 l -12 960 l 390 960 l 390 815 l -12 815 m 81 0 l 81 694 l 294 694 l 294 0 l 81 0 z "},"Į":{"ha":439,"x_min":79,"x_max":332,"o":"m 204 0 l 107 0 l 107 1028 l 332 1028 l 332 0 l 331 0 q 247 -49 275 -18 q 219 -112 219 -81 q 235 -152 219 -136 q 278 -168 251 -168 q 321 -158 300 -168 l 321 -294 q 239 -310 286 -310 q 123 -267 167 -310 q 79 -161 79 -224 q 111 -66 79 -110 q 204 0 143 -22 z "},"į":{"ha":375,"x_min":42,"x_max":307,"o":"m 186 803 q 99 838 135 803 q 64 925 64 874 q 99 1011 64 976 q 186 1046 135 1046 q 272 1011 236 1046 q 307 925 307 976 q 272 838 307 874 q 186 803 236 803 m 81 0 l 81 694 l 294 694 l 294 0 l 293 0 q 210 -49 238 -18 q 182 -112 182 -81 q 198 -152 182 -136 q 240 -168 214 -168 q 283 -158 263 -168 l 283 -294 q 201 -310 249 -310 q 85 -267 129 -310 q 42 -161 42 -224 q 74 -66 42 -110 q 167 0 106 -22 l 81 0 z "},"İ":{"ha":439,"x_min":106,"x_max":332,"o":"m 299 1142 q 282 1125 299 1142 q 218 1108 265 1108 q 138 1142 171 1108 q 106 1222 106 1175 q 139 1303 106 1269 q 218 1336 172 1336 q 299 1302 265 1336 q 332 1222 332 1268 q 299 1142 332 1175 m 332 1028 l 332 0 l 107 0 l 107 1028 l 332 1028 z "},"ı":{"ha":375,"x_min":81,"x_max":294,"o":"m 81 0 l 81 694 l 294 694 l 294 0 l 81 0 z "},"Ĵ":{"ha":801,"x_min":28,"x_max":829,"o":"m 510 1099 l 349 1099 l 486 1343 l 692 1343 l 829 1099 l 668 1099 l 589 1244 l 510 1099 m 28 294 l 28 367 l 244 367 l 244 294 q 273 220 244 250 q 361 190 301 190 q 476 303 476 190 l 476 1028 l 701 1028 l 701 289 q 609 68 701 154 q 364 -18 517 -18 q 114 69 200 -18 q 28 294 28 156 z "},"ĵ":{"ha":375,"x_min":-75,"x_max":431,"o":"m 111 779 l -50 779 l 88 1024 l 293 1024 l 431 779 l 269 779 l 190 925 l 111 779 m -75 -339 l -40 -150 q 13 -158 -15 -158 q 66 -137 51 -158 q 81 -68 81 -115 l 81 694 l 294 694 l 294 -96 q 226 -285 294 -214 q 33 -356 157 -356 q -75 -339 -21 -356 z "},"Ķ":{"ha":985,"x_min":107,"x_max":971,"o":"m 332 1028 l 332 536 l 703 1028 l 968 1028 l 632 589 l 971 0 l 711 0 l 485 397 l 332 197 l 332 0 l 107 0 l 107 1028 l 332 1028 m 606 -169 q 555 -302 606 -253 q 410 -339 504 -351 l 410 -274 q 522 -221 518 -287 q 483 -231 508 -231 q 422 -206 446 -231 q 399 -142 399 -181 q 426 -73 399 -99 q 500 -47 454 -47 q 576 -81 547 -47 q 606 -169 606 -114 z "},"ķ":{"ha":794,"x_min":81,"x_max":788,"o":"m 294 0 l 81 0 l 81 1047 l 294 1047 l 294 444 l 519 694 l 788 694 l 526 419 l 779 0 l 532 0 l 376 260 l 294 174 l 294 0 m 500 -169 q 449 -302 500 -253 q 304 -339 399 -351 l 304 -274 q 417 -221 413 -287 q 378 -231 403 -231 q 317 -206 340 -231 q 293 -142 293 -181 q 321 -73 293 -99 q 394 -47 349 -47 q 471 -81 442 -47 q 500 -169 500 -114 z "},"Ĺ":{"ha":772,"x_min":107,"x_max":738,"o":"m 451 1301 l 297 1071 l 143 1071 l 260 1301 l 451 1301 m 332 1028 l 332 208 l 738 208 l 738 0 l 107 0 l 107 1028 l 332 1028 z "},"ĺ":{"ha":375,"x_min":81,"x_max":418,"o":"m 418 1322 l 264 1092 l 110 1092 l 226 1322 l 418 1322 m 294 0 l 81 0 l 81 1047 l 294 1047 l 294 0 z "},"Ļ":{"ha":772,"x_min":107,"x_max":738,"o":"m 332 1028 l 332 208 l 738 208 l 738 0 l 107 0 l 107 1028 l 332 1028 m 544 -169 q 494 -302 544 -253 q 349 -339 443 -351 l 349 -274 q 461 -221 457 -287 q 422 -231 447 -231 q 361 -206 385 -231 q 338 -142 338 -181 q 365 -73 338 -99 q 439 -47 393 -47 q 515 -81 486 -47 q 544 -169 544 -114 z "},"ļ":{"ha":375,"x_min":81,"x_max":294,"o":"m 294 0 l 81 0 l 81 1047 l 294 1047 l 294 0 m 289 -169 q 238 -302 289 -253 q 93 -339 188 -351 l 93 -274 q 206 -221 201 -287 q 167 -231 192 -231 q 106 -206 129 -231 q 82 -142 82 -181 q 110 -73 82 -99 q 183 -47 138 -47 q 260 -81 231 -47 q 289 -169 289 -114 z "},"Ľ":{"ha":772,"x_min":107,"x_max":738,"o":"m 332 1028 l 332 208 l 738 208 l 738 0 l 107 0 l 107 1028 l 332 1028 m 397 756 l 397 1028 l 568 1028 l 524 756 l 397 756 z "},"ľ":{"ha":375,"x_min":81,"x_max":531,"o":"m 294 0 l 81 0 l 81 1047 l 294 1047 l 294 0 m 360 775 l 360 1047 l 531 1047 l 486 775 l 360 775 z "},"Ŀ":{"ha":772,"x_min":107,"x_max":738,"o":"m 332 1028 l 332 208 l 738 208 l 738 0 l 107 0 l 107 1028 l 332 1028 m 619 423 q 602 406 619 423 q 538 389 585 389 q 456 423 490 389 q 421 503 421 457 q 456 584 421 550 q 538 618 490 618 q 619 583 585 618 q 653 503 653 549 q 619 423 653 457 z "},"ŀ":{"ha":578,"x_min":81,"x_max":593,"o":"m 294 0 l 81 0 l 81 1047 l 294 1047 l 294 0 m 478 389 q 394 423 429 389 q 360 504 360 457 q 394 587 360 553 q 478 621 429 621 q 558 586 524 621 q 593 504 593 551 q 559 424 593 458 q 478 389 525 389 z "},"Ł":{"ha":772,"x_min":22,"x_max":738,"o":"m 22 333 l 22 500 l 107 540 l 107 1028 l 332 1028 l 332 649 l 490 724 l 490 557 l 332 482 l 332 208 l 738 208 l 738 0 l 107 0 l 107 374 l 22 333 z "},"ł":{"ha":375,"x_min":13,"x_max":365,"o":"m 294 0 l 81 0 l 81 411 l 13 379 l 13 528 l 81 560 l 81 1047 l 294 1047 l 294 663 l 365 696 l 365 547 l 294 514 l 294 0 z "},"Ń":{"ha":1092,"x_min":107,"x_max":985,"o":"m 783 1329 l 629 1099 l 475 1099 l 592 1329 l 783 1329 m 329 0 l 107 0 l 107 1028 l 329 1028 l 763 374 l 763 1028 l 985 1028 l 985 0 l 763 0 l 329 653 l 329 0 z "},"ń":{"ha":842,"x_min":81,"x_max":769,"o":"m 669 1010 l 515 779 l 361 779 l 478 1010 l 669 1010 m 294 0 l 81 0 l 81 694 l 282 694 l 296 622 q 508 717 364 717 q 701 641 632 717 q 769 429 769 565 l 769 0 l 556 0 l 556 378 q 522 483 556 443 q 433 522 489 522 q 332 484 369 522 q 294 381 294 446 l 294 0 z "},"Ņ":{"ha":1092,"x_min":107,"x_max":985,"o":"m 329 0 l 107 0 l 107 1028 l 329 1028 l 763 374 l 763 1028 l 985 1028 l 985 0 l 763 0 l 329 653 l 329 0 m 654 -169 q 603 -302 654 -253 q 458 -339 553 -351 l 458 -274 q 571 -221 567 -287 q 532 -231 557 -231 q 471 -206 494 -231 q 447 -142 447 -181 q 475 -73 447 -99 q 549 -47 503 -47 q 625 -81 596 -47 q 654 -169 654 -114 z "},"ņ":{"ha":842,"x_min":81,"x_max":769,"o":"m 294 0 l 81 0 l 81 694 l 282 694 l 296 622 q 508 717 364 717 q 701 641 632 717 q 769 429 769 565 l 769 0 l 556 0 l 556 378 q 522 483 556 443 q 433 522 489 522 q 332 484 369 522 q 294 381 294 446 l 294 0 m 528 -169 q 477 -302 528 -253 q 332 -339 426 -351 l 332 -274 q 444 -221 440 -287 q 406 -231 431 -231 q 344 -206 368 -231 q 321 -142 321 -181 q 349 -73 321 -99 q 422 -47 376 -47 q 499 -81 469 -47 q 528 -169 528 -114 z "},"Ň":{"ha":1092,"x_min":107,"x_max":985,"o":"m 450 1099 l 313 1343 l 474 1343 l 553 1197 l 632 1343 l 793 1343 l 656 1099 l 450 1099 m 329 0 l 107 0 l 107 1028 l 329 1028 l 763 374 l 763 1028 l 985 1028 l 985 0 l 763 0 l 329 653 l 329 0 z "},"ň":{"ha":842,"x_min":81,"x_max":769,"o":"m 336 779 l 199 1024 l 360 1024 l 439 878 l 518 1024 l 679 1024 l 542 779 l 336 779 m 294 0 l 81 0 l 81 694 l 282 694 l 296 622 q 508 717 364 717 q 701 641 632 717 q 769 429 769 565 l 769 0 l 556 0 l 556 378 q 522 483 556 443 q 433 522 489 522 q 332 484 369 522 q 294 381 294 446 l 294 0 z "},"Ŋ":{"ha":1092,"x_min":107,"x_max":985,"o":"m 724 -356 q 588 -337 647 -356 l 622 -149 q 689 -158 651 -158 q 771 -68 771 -158 l 771 -12 l 329 653 l 329 0 l 107 0 l 107 1028 l 329 1028 l 763 374 l 763 1028 l 985 1028 l 985 -96 q 916 -285 985 -214 q 724 -356 847 -356 z "},"ŋ":{"ha":842,"x_min":81,"x_max":769,"o":"m 294 0 l 81 0 l 81 694 l 282 694 l 296 622 q 508 717 364 717 q 701 641 632 717 q 769 429 769 565 l 769 -96 q 701 -285 769 -214 q 508 -356 632 -356 q 400 -339 454 -356 l 435 -150 q 488 -158 460 -158 q 541 -137 526 -158 q 556 -68 556 -115 l 556 378 q 522 483 556 443 q 433 522 489 522 q 332 484 369 522 q 294 381 294 446 l 294 0 z "},"Ō":{"ha":1107,"x_min":50,"x_max":1057,"o":"m 353 1135 l 353 1279 l 756 1279 l 756 1135 l 353 1135 m 917 899 q 987 825 917 899 q 1057 515 1057 751 q 916 131 1057 279 q 551 -17 775 -17 q 190 131 329 -17 q 50 514 50 278 q 190 898 50 750 q 553 1046 331 1046 q 917 899 776 1046 m 819 515 q 749 746 819 663 q 554 829 678 829 q 358 746 429 829 q 288 515 288 663 q 358 284 288 368 q 554 200 429 200 q 749 285 678 200 q 819 515 819 369 z "},"ō":{"ha":851,"x_min":43,"x_max":808,"o":"m 225 815 l 225 960 l 628 960 l 628 815 l 225 815 m 151 84 q 97 134 151 84 q 43 349 43 185 q 151 614 43 513 q 426 715 258 715 q 701 614 593 715 q 808 349 808 513 q 701 85 808 186 q 426 -17 593 -17 q 151 84 258 -17 m 258 350 q 305 223 258 271 q 426 175 351 175 q 547 223 500 175 q 593 350 593 271 q 547 476 593 428 q 426 524 500 524 q 305 476 351 524 q 258 350 258 428 z "},"Ő":{"ha":1107,"x_min":50,"x_max":1057,"o":"m 667 1329 l 513 1099 l 365 1099 l 496 1329 l 667 1329 m 911 1329 l 757 1099 l 610 1099 l 740 1329 l 911 1329 m 917 899 q 987 825 917 899 q 1057 515 1057 751 q 916 131 1057 279 q 551 -17 775 -17 q 190 131 329 -17 q 50 514 50 278 q 190 898 50 750 q 553 1046 331 1046 q 917 899 776 1046 m 819 515 q 749 746 819 663 q 554 829 678 829 q 358 746 429 829 q 288 515 288 663 q 358 284 288 368 q 554 200 429 200 q 749 285 678 200 q 819 515 819 369 z "},"ő":{"ha":851,"x_min":43,"x_max":808,"o":"m 539 1010 l 385 779 l 238 779 l 368 1010 l 539 1010 m 783 1010 l 629 779 l 482 779 l 613 1010 l 783 1010 m 151 84 q 97 134 151 84 q 43 349 43 185 q 151 614 43 513 q 426 715 258 715 q 701 614 593 715 q 808 349 808 513 q 701 85 808 186 q 426 -17 593 -17 q 151 84 258 -17 m 258 350 q 305 223 258 271 q 426 175 351 175 q 547 223 500 175 q 593 350 593 271 q 547 476 593 428 q 426 524 500 524 q 305 476 351 524 q 258 350 258 428 z "},"Œ":{"ha":1554,"x_min":50,"x_max":1476,"o":"m 184 131 q 117 205 184 131 q 50 514 50 279 q 188 897 50 749 q 554 1046 326 1046 q 824 960 721 1046 l 824 1028 l 1476 1028 l 1476 819 l 1049 819 l 1049 618 l 1428 618 l 1428 421 l 1049 421 l 1049 208 l 1476 208 l 1476 0 l 824 0 l 824 78 q 706 10 783 38 q 542 -17 628 -17 q 184 131 318 -17 m 363 746 q 325 704 363 746 q 288 515 288 663 q 363 284 288 368 q 554 200 438 200 q 745 284 671 200 q 819 515 819 368 q 745 746 819 663 q 554 829 671 829 q 363 746 438 829 z "},"œ":{"ha":1358,"x_min":43,"x_max":1315,"o":"m 151 84 q 97 134 151 84 q 43 349 43 185 q 151 614 43 513 q 426 715 258 715 q 697 610 596 715 q 958 717 797 717 q 1217 617 1122 717 q 1313 347 1313 517 l 1313 293 l 808 290 q 967 156 826 156 q 1068 176 1028 156 q 1119 235 1108 197 l 1315 235 q 1201 51 1296 119 q 963 -18 1106 -18 q 700 90 801 -18 q 426 -17 597 -17 q 151 84 258 -17 m 960 543 q 811 422 835 543 l 1100 422 q 1062 510 1100 478 q 960 543 1024 543 m 258 350 q 305 223 258 271 q 426 175 351 175 q 547 223 500 175 q 593 350 593 271 q 547 476 593 428 q 426 524 500 524 q 305 476 351 524 q 258 350 258 428 z "},"Ŕ":{"ha":956,"x_min":107,"x_max":906,"o":"m 671 1329 l 517 1099 l 363 1099 l 479 1329 l 671 1329 m 332 0 l 107 0 l 107 1028 l 504 1028 q 794 941 692 1028 q 896 694 896 854 q 725 408 896 496 l 906 0 l 660 0 l 506 360 l 332 360 l 332 0 m 332 828 l 332 557 l 503 557 q 617 593 576 557 q 658 694 658 629 q 619 794 658 760 q 504 828 579 828 l 332 828 z "},"ŕ":{"ha":586,"x_min":81,"x_max":558,"o":"m 546 1010 l 392 779 l 238 779 l 354 1010 l 546 1010 m 558 694 l 558 493 l 490 493 q 294 301 294 493 l 294 0 l 81 0 l 81 693 l 282 693 l 293 590 q 476 704 342 704 q 558 694 518 704 z "},"Ŗ":{"ha":956,"x_min":107,"x_max":906,"o":"m 332 0 l 107 0 l 107 1028 l 504 1028 q 794 941 692 1028 q 896 694 896 854 q 725 408 896 496 l 906 0 l 660 0 l 506 360 l 332 360 l 332 0 m 332 828 l 332 557 l 503 557 q 617 593 576 557 q 658 694 658 629 q 619 794 658 760 q 504 828 579 828 l 332 828 m 597 -169 q 547 -302 597 -253 q 401 -339 496 -351 l 401 -274 q 514 -221 510 -287 q 475 -231 500 -231 q 414 -206 438 -231 q 390 -142 390 -181 q 418 -73 390 -99 q 492 -47 446 -47 q 568 -81 539 -47 q 597 -169 597 -114 z "},"ŗ":{"ha":586,"x_min":81,"x_max":558,"o":"m 558 694 l 558 493 l 490 493 q 294 301 294 493 l 294 0 l 81 0 l 81 693 l 282 693 l 293 590 q 476 704 342 704 q 558 694 518 704 m 290 -169 q 240 -302 290 -253 q 94 -339 189 -351 l 94 -274 q 207 -221 203 -287 q 168 -231 193 -231 q 107 -206 131 -231 q 83 -142 83 -181 q 111 -73 83 -99 q 185 -47 139 -47 q 261 -81 232 -47 q 290 -169 290 -114 z "},"Ř":{"ha":956,"x_min":107,"x_max":906,"o":"m 338 1099 l 200 1343 l 361 1343 l 440 1197 l 519 1343 l 681 1343 l 543 1099 l 338 1099 m 332 0 l 107 0 l 107 1028 l 504 1028 q 794 941 692 1028 q 896 694 896 854 q 725 408 896 496 l 906 0 l 660 0 l 506 360 l 332 360 l 332 0 m 332 828 l 332 557 l 503 557 q 617 593 576 557 q 658 694 658 629 q 619 794 658 760 q 504 828 579 828 l 332 828 z "},"ř":{"ha":586,"x_min":75,"x_max":558,"o":"m 213 779 l 75 1024 l 236 1024 l 315 878 l 394 1024 l 556 1024 l 418 779 l 213 779 m 558 694 l 558 493 l 490 493 q 294 301 294 493 l 294 0 l 81 0 l 81 693 l 282 693 l 293 590 q 476 704 342 704 q 558 694 518 704 z "},"Ś":{"ha":846,"x_min":35,"x_max":804,"o":"m 650 1329 l 496 1099 l 342 1099 l 458 1329 l 650 1329 m 50 729 q 156 958 50 868 q 428 1047 263 1047 q 690 962 593 1047 q 788 731 788 876 l 564 731 q 526 816 564 785 q 425 847 489 847 q 315 818 356 847 q 275 738 275 789 q 300 666 275 692 q 379 629 325 640 l 533 597 q 738 500 672 569 q 804 310 804 431 q 697 72 804 161 q 413 -18 590 -18 q 138 68 240 -18 q 35 299 35 154 l 258 299 q 299 212 258 242 q 414 182 339 182 q 535 210 490 182 q 579 288 579 239 q 558 354 579 331 q 485 388 536 378 l 328 419 q 50 729 50 476 z "},"ś":{"ha":667,"x_min":31,"x_max":636,"o":"m 576 1010 l 422 779 l 268 779 l 385 1010 l 576 1010 m 31 219 l 233 219 q 338 142 238 142 q 435 201 435 142 q 372 256 435 242 l 244 283 q 100 352 146 304 q 54 489 54 400 q 135 656 54 594 q 344 717 217 717 q 542 651 465 717 q 618 482 618 586 l 415 482 q 394 540 415 518 q 335 561 372 561 q 277 544 299 561 q 256 499 256 526 q 331 438 256 454 l 460 410 q 592 346 549 390 q 636 221 636 301 q 551 47 636 111 q 329 -18 467 -18 q 112 48 193 -18 q 31 219 31 114 z "},"Ŝ":{"ha":846,"x_min":35,"x_max":804,"o":"m 340 1099 l 179 1099 l 317 1343 l 522 1343 l 660 1099 l 499 1099 l 419 1244 l 340 1099 m 50 729 q 156 958 50 868 q 428 1047 263 1047 q 690 962 593 1047 q 788 731 788 876 l 564 731 q 526 816 564 785 q 425 847 489 847 q 315 818 356 847 q 275 738 275 789 q 300 666 275 692 q 379 629 325 640 l 533 597 q 738 500 672 569 q 804 310 804 431 q 697 72 804 161 q 413 -18 590 -18 q 138 68 240 -18 q 35 299 35 154 l 258 299 q 299 212 258 242 q 414 182 339 182 q 535 210 490 182 q 579 288 579 239 q 558 354 579 331 q 485 388 536 378 l 328 419 q 50 729 50 476 z "},"ŝ":{"ha":667,"x_min":31,"x_max":636,"o":"m 267 779 l 106 779 l 243 1024 l 449 1024 l 586 779 l 425 779 l 346 925 l 267 779 m 31 219 l 233 219 q 338 142 238 142 q 435 201 435 142 q 372 256 435 242 l 244 283 q 100 352 146 304 q 54 489 54 400 q 135 656 54 594 q 344 717 217 717 q 542 651 465 717 q 618 482 618 586 l 415 482 q 394 540 415 518 q 335 561 372 561 q 277 544 299 561 q 256 499 256 526 q 331 438 256 454 l 460 410 q 592 346 549 390 q 636 221 636 301 q 551 47 636 111 q 329 -18 467 -18 q 112 48 193 -18 q 31 219 31 114 z "},"Ş":{"ha":846,"x_min":35,"x_max":804,"o":"m 304 -296 l 304 -207 q 406 -233 364 -233 q 483 -176 483 -233 q 422 -128 483 -128 q 354 -139 385 -128 l 335 -85 l 368 -17 q 124 79 214 -6 q 35 299 35 164 l 258 299 q 299 212 258 242 q 414 182 339 182 q 535 210 490 182 q 579 288 579 239 q 558 354 579 331 q 485 388 536 378 l 328 419 q 50 729 50 476 q 156 958 50 868 q 428 1047 263 1047 q 690 962 593 1047 q 788 731 788 876 l 564 731 q 526 816 564 785 q 425 847 489 847 q 315 818 356 847 q 275 738 275 789 q 300 666 275 692 q 379 629 325 640 l 533 597 q 738 500 672 569 q 804 310 804 431 q 708 81 804 168 q 449 -17 611 -7 l 422 -67 q 472 -58 443 -58 q 557 -87 521 -58 q 593 -176 593 -117 q 543 -283 593 -244 q 417 -322 493 -322 q 304 -296 357 -322 z "},"ş":{"ha":667,"x_min":31,"x_max":636,"o":"m 31 219 l 233 219 q 338 142 238 142 q 435 201 435 142 q 372 256 435 242 l 244 283 q 100 352 146 304 q 54 489 54 400 q 135 656 54 594 q 344 717 217 717 q 542 651 465 717 q 618 482 618 586 l 415 482 q 394 540 415 518 q 335 561 372 561 q 277 544 299 561 q 256 499 256 526 q 331 438 256 454 l 460 410 q 592 346 549 390 q 636 221 636 301 q 561 54 636 118 q 363 -17 486 -10 l 336 -67 q 386 -58 357 -58 q 471 -87 435 -58 q 507 -176 507 -117 q 457 -283 507 -244 q 331 -322 407 -322 q 218 -296 271 -322 l 218 -207 q 319 -233 278 -233 q 397 -176 397 -233 q 336 -128 397 -128 q 268 -139 299 -128 l 249 -85 l 282 -15 q 98 60 165 -4 q 31 219 31 124 z "},"Š":{"ha":846,"x_min":35,"x_max":804,"o":"m 317 1099 l 179 1343 l 340 1343 l 419 1197 l 499 1343 l 660 1343 l 522 1099 l 317 1099 m 50 729 q 156 958 50 868 q 428 1047 263 1047 q 690 962 593 1047 q 788 731 788 876 l 564 731 q 526 816 564 785 q 425 847 489 847 q 315 818 356 847 q 275 738 275 789 q 300 666 275 692 q 379 629 325 640 l 533 597 q 738 500 672 569 q 804 310 804 431 q 697 72 804 161 q 413 -18 590 -18 q 138 68 240 -18 q 35 299 35 154 l 258 299 q 299 212 258 242 q 414 182 339 182 q 535 210 490 182 q 579 288 579 239 q 558 354 579 331 q 485 388 536 378 l 328 419 q 50 729 50 476 z "},"š":{"ha":667,"x_min":31,"x_max":636,"o":"m 243 779 l 106 1024 l 267 1024 l 346 878 l 425 1024 l 586 1024 l 449 779 l 243 779 m 31 219 l 233 219 q 338 142 238 142 q 435 201 435 142 q 372 256 435 242 l 244 283 q 100 352 146 304 q 54 489 54 400 q 135 656 54 594 q 344 717 217 717 q 542 651 465 717 q 618 482 618 586 l 415 482 q 394 540 415 518 q 335 561 372 561 q 277 544 299 561 q 256 499 256 526 q 331 438 256 454 l 460 410 q 592 346 549 390 q 636 221 636 301 q 551 47 636 111 q 329 -18 467 -18 q 112 48 193 -18 q 31 219 31 114 z "},"Ţ":{"ha":864,"x_min":28,"x_max":836,"o":"m 318 -296 l 318 -207 q 419 -233 378 -233 q 497 -176 497 -233 q 436 -128 497 -128 q 368 -139 399 -128 l 349 -85 l 389 0 l 319 0 l 319 819 l 28 819 l 28 1028 l 836 1028 l 836 819 l 544 819 l 544 0 l 471 0 l 436 -67 q 486 -58 457 -58 q 571 -87 535 -58 q 607 -176 607 -117 q 557 -283 607 -244 q 431 -322 507 -322 q 318 -296 371 -322 z "},"ţ":{"ha":508,"x_min":15,"x_max":493,"o":"m 150 -296 l 150 -207 q 251 -233 210 -233 q 329 -176 329 -233 q 268 -128 329 -128 q 200 -139 231 -128 l 181 -85 l 221 0 l 147 0 l 147 517 l 15 517 l 15 694 l 147 694 l 147 910 l 361 910 l 361 694 l 493 694 l 493 517 l 361 517 l 361 0 l 303 0 l 268 -67 q 318 -58 289 -58 q 403 -87 367 -58 q 439 -176 439 -117 q 389 -283 439 -244 q 263 -322 339 -322 q 150 -296 203 -322 z "},"Ť":{"ha":864,"x_min":28,"x_max":836,"o":"m 329 1099 l 192 1343 l 353 1343 l 432 1197 l 511 1343 l 672 1343 l 535 1099 l 329 1099 m 28 819 l 28 1028 l 836 1028 l 836 819 l 544 819 l 544 0 l 319 0 l 319 819 l 28 819 z "},"ť":{"ha":508,"x_min":15,"x_max":569,"o":"m 399 756 l 399 1028 l 569 1028 l 525 756 l 399 756 m 361 0 l 147 0 l 147 517 l 15 517 l 15 694 l 147 694 l 147 910 l 361 910 l 361 694 l 493 694 l 493 517 l 361 517 l 361 0 z "},"Ŧ":{"ha":864,"x_min":28,"x_max":836,"o":"m 172 410 l 172 592 l 319 592 l 319 819 l 28 819 l 28 1028 l 836 1028 l 836 819 l 544 819 l 544 592 l 692 592 l 692 410 l 544 410 l 544 0 l 319 0 l 319 410 l 172 410 z "},"ŧ":{"ha":508,"x_min":15,"x_max":493,"o":"m 361 0 l 147 0 l 147 263 l 47 263 l 47 426 l 147 426 l 147 517 l 15 517 l 15 694 l 147 694 l 147 910 l 361 910 l 361 694 l 493 694 l 493 517 l 361 517 l 361 426 l 461 426 l 461 263 l 361 263 l 361 0 z "},"Ũ":{"ha":1047,"x_min":100,"x_max":947,"o":"m 379 1103 l 260 1101 q 288 1265 247 1203 q 404 1326 328 1326 q 526 1283 460 1326 q 618 1240 593 1240 q 668 1326 668 1240 l 788 1326 q 758 1158 799 1215 q 642 1101 718 1101 q 554 1123 596 1101 q 481 1166 513 1144 q 428 1188 449 1188 q 379 1103 379 1188 m 100 386 l 100 1028 l 325 1028 l 325 401 q 376 253 325 304 q 522 201 428 201 q 670 254 618 201 q 722 401 722 307 l 722 1028 l 947 1028 l 947 386 q 831 93 947 203 q 522 -17 715 -17 q 215 92 329 -17 q 100 386 100 201 z "},"ũ":{"ha":836,"x_min":72,"x_max":756,"o":"m 269 783 l 150 782 q 178 945 138 883 q 294 1007 218 1007 q 417 964 350 1007 q 508 921 483 921 q 558 1007 558 921 l 678 1007 q 649 839 689 896 q 532 782 608 782 q 444 803 486 782 q 371 847 403 825 q 318 868 339 868 q 269 783 269 868 m 542 694 l 756 694 l 756 0 l 554 0 l 540 78 q 449 8 508 35 q 328 -18 390 -18 q 141 56 210 -18 q 72 258 72 131 l 72 694 l 286 694 l 286 336 q 317 212 286 251 q 413 172 347 172 q 511 210 481 172 q 542 333 542 247 l 542 694 z "},"Ū":{"ha":1047,"x_min":100,"x_max":947,"o":"m 322 1135 l 322 1279 l 725 1279 l 725 1135 l 322 1135 m 100 386 l 100 1028 l 325 1028 l 325 401 q 376 253 325 304 q 522 201 428 201 q 670 254 618 201 q 722 401 722 307 l 722 1028 l 947 1028 l 947 386 q 831 93 947 203 q 522 -17 715 -17 q 215 92 329 -17 q 100 386 100 201 z "},"ū":{"ha":836,"x_min":72,"x_max":756,"o":"m 213 815 l 213 960 l 615 960 l 615 815 l 213 815 m 542 694 l 756 694 l 756 0 l 554 0 l 540 78 q 449 8 508 35 q 328 -18 390 -18 q 141 56 210 -18 q 72 258 72 131 l 72 694 l 286 694 l 286 336 q 317 212 286 251 q 413 172 347 172 q 511 210 481 172 q 542 333 542 247 l 542 694 z "},"Ů":{"ha":1047,"x_min":100,"x_max":947,"o":"m 524 1074 q 383 1128 438 1074 q 328 1267 328 1182 q 384 1405 328 1349 q 524 1461 440 1461 q 663 1405 607 1461 q 719 1267 719 1349 q 664 1129 719 1185 q 524 1074 608 1074 m 464 1206 q 475 1194 464 1206 q 524 1182 486 1182 q 583 1206 561 1182 q 606 1269 606 1229 q 583 1329 606 1306 q 524 1353 560 1353 q 465 1330 488 1353 q 442 1269 442 1307 q 464 1206 442 1229 m 100 386 l 100 1028 l 325 1028 l 325 401 q 376 253 325 304 q 522 201 428 201 q 670 254 618 201 q 722 401 722 307 l 722 1028 l 947 1028 l 947 386 q 831 93 947 203 q 522 -17 715 -17 q 215 92 329 -17 q 100 386 100 201 z "},"ů":{"ha":836,"x_min":72,"x_max":756,"o":"m 414 754 q 273 808 328 754 q 218 947 218 863 q 274 1085 218 1029 q 414 1142 331 1142 q 553 1085 497 1142 q 610 947 610 1029 q 554 810 610 865 q 414 754 499 754 m 354 886 q 365 874 354 886 q 414 863 376 863 q 474 886 451 863 q 496 950 496 910 q 473 1010 496 986 q 414 1033 450 1033 q 355 1010 378 1033 q 332 950 332 988 q 354 886 332 910 m 542 694 l 756 694 l 756 0 l 554 0 l 540 78 q 449 8 508 35 q 328 -18 390 -18 q 141 56 210 -18 q 72 258 72 131 l 72 694 l 286 694 l 286 336 q 317 212 286 251 q 413 172 347 172 q 511 210 481 172 q 542 333 542 247 l 542 694 z "},"Ű":{"ha":1047,"x_min":100,"x_max":947,"o":"m 636 1329 l 482 1099 l 335 1099 l 465 1329 l 636 1329 m 881 1329 l 726 1099 l 579 1099 l 710 1329 l 881 1329 m 100 386 l 100 1028 l 325 1028 l 325 401 q 376 253 325 304 q 522 201 428 201 q 670 254 618 201 q 722 401 722 307 l 722 1028 l 947 1028 l 947 386 q 831 93 947 203 q 522 -17 715 -17 q 215 92 329 -17 q 100 386 100 201 z "},"ű":{"ha":836,"x_min":72,"x_max":771,"o":"m 526 1010 l 372 779 l 225 779 l 356 1010 l 526 1010 m 771 1010 l 617 779 l 469 779 l 600 1010 l 771 1010 m 542 694 l 756 694 l 756 0 l 554 0 l 540 78 q 449 8 508 35 q 328 -18 390 -18 q 141 56 210 -18 q 72 258 72 131 l 72 694 l 286 694 l 286 336 q 317 212 286 251 q 413 172 347 172 q 511 210 481 172 q 542 333 542 247 l 542 694 z "},"Ų":{"ha":1047,"x_min":100,"x_max":947,"o":"m 100 386 l 100 1028 l 325 1028 l 325 401 q 376 253 325 304 q 522 201 428 201 q 670 254 618 201 q 722 401 722 307 l 722 1028 l 947 1028 l 947 386 q 870 136 947 238 q 657 0 793 35 q 575 -50 603 -19 q 547 -112 547 -81 q 563 -152 547 -136 q 606 -168 579 -168 q 649 -158 628 -168 l 649 -294 q 567 -310 614 -310 q 451 -267 494 -310 q 407 -161 407 -224 q 497 -17 407 -67 q 207 100 314 -8 q 100 386 100 208 z "},"ų":{"ha":836,"x_min":72,"x_max":756,"o":"m 628 0 l 554 0 l 540 78 q 449 8 508 35 q 328 -18 390 -18 q 141 56 210 -18 q 72 258 72 131 l 72 694 l 286 694 l 286 336 q 317 212 286 251 q 413 172 347 172 q 511 210 481 172 q 542 333 542 247 l 542 694 l 756 694 l 756 0 l 754 0 q 671 -49 699 -18 q 643 -112 643 -81 q 659 -152 643 -136 q 701 -168 675 -168 q 744 -158 724 -168 l 744 -294 q 663 -310 710 -310 q 547 -267 590 -310 q 503 -161 503 -224 q 535 -66 503 -110 q 628 0 567 -22 z "},"Ŵ":{"ha":1485,"x_min":21,"x_max":1464,"o":"m 664 1099 l 503 1099 l 640 1343 l 846 1343 l 983 1099 l 822 1099 l 743 1244 l 664 1099 m 329 0 l 21 1028 l 256 1028 l 390 582 q 442 358 424 471 q 493 582 458 458 l 619 1028 l 871 1028 l 992 582 q 1043 358 1025 457 q 1097 579 1068 482 l 1235 1028 l 1464 1028 l 1150 0 l 931 0 l 743 675 l 550 0 l 329 0 z "},"ŵ":{"ha":1154,"x_min":14,"x_max":1140,"o":"m 500 779 l 339 779 l 476 1024 l 682 1024 l 819 779 l 658 779 l 579 925 l 500 779 m 238 0 l 14 694 l 239 694 l 303 468 q 346 271 329 371 q 396 468 360 354 l 467 694 l 686 694 l 751 468 q 799 271 786 349 q 847 468 808 326 l 914 694 l 1140 694 l 897 0 l 699 0 l 632 221 q 575 446 585 374 q 513 217 563 382 l 446 0 l 238 0 z "},"Ŷ":{"ha":947,"x_min":14,"x_max":933,"o":"m 397 1099 l 236 1099 l 374 1343 l 579 1343 l 717 1099 l 556 1099 l 476 1244 l 397 1099 m 361 390 l 14 1028 l 265 1028 l 438 694 q 476 611 457 657 q 495 650 482 622 q 517 696 508 678 l 689 1028 l 933 1028 l 586 390 l 586 0 l 361 0 l 361 390 z "},"ŷ":{"ha":785,"x_min":7,"x_max":778,"o":"m 325 779 l 164 779 l 301 1024 l 507 1024 l 644 779 l 483 779 l 404 925 l 325 779 m 25 -333 l 25 -154 l 143 -154 q 225 -133 197 -154 q 274 -57 253 -112 l 286 -24 l 7 694 l 236 694 l 388 249 l 556 694 l 778 694 l 425 -151 q 320 -305 382 -257 q 167 -353 258 -353 q 25 -333 90 -353 z "},"Ÿ":{"ha":947,"x_min":14,"x_max":933,"o":"m 415 1140 q 399 1124 415 1140 q 339 1108 383 1108 q 263 1140 294 1108 q 232 1217 232 1171 q 263 1292 232 1261 q 339 1324 294 1324 q 414 1292 382 1324 q 446 1217 446 1260 q 415 1140 446 1172 m 690 1140 q 674 1124 690 1140 q 614 1108 658 1108 q 538 1140 569 1108 q 507 1217 507 1171 q 538 1292 507 1261 q 614 1324 569 1324 q 689 1292 657 1324 q 721 1217 721 1260 q 690 1140 721 1172 m 361 390 l 14 1028 l 265 1028 l 438 694 q 476 611 457 657 q 495 650 482 622 q 517 696 508 678 l 689 1028 l 933 1028 l 586 390 l 586 0 l 361 0 l 361 390 z "},"Ź":{"ha":824,"x_min":35,"x_max":789,"o":"m 629 1329 l 475 1099 l 321 1099 l 438 1329 l 629 1329 m 789 0 l 35 0 l 35 211 l 493 819 l 49 819 l 49 1028 l 775 1028 l 775 826 l 310 208 l 789 208 l 789 0 z "},"ź":{"ha":682,"x_min":50,"x_max":632,"o":"m 572 1010 l 418 779 l 264 779 l 381 1010 l 572 1010 m 632 0 l 50 0 l 50 178 l 361 517 l 50 517 l 50 694 l 632 694 l 632 517 l 313 178 l 632 178 l 632 0 z "},"Ż":{"ha":824,"x_min":35,"x_max":789,"o":"m 478 1142 q 461 1125 478 1142 q 397 1108 444 1108 q 317 1142 350 1108 q 285 1222 285 1175 q 318 1303 285 1269 q 397 1336 351 1336 q 478 1302 444 1336 q 511 1222 511 1268 q 478 1142 511 1175 m 789 0 l 35 0 l 35 211 l 493 819 l 49 819 l 49 1028 l 775 1028 l 775 826 l 310 208 l 789 208 l 789 0 z "},"ż":{"ha":682,"x_min":50,"x_max":632,"o":"m 421 822 q 404 806 421 822 q 340 789 388 789 q 260 822 293 789 q 228 903 228 856 q 261 983 228 950 q 340 1017 294 1017 q 421 983 388 1017 q 454 903 454 949 q 421 822 454 856 m 632 0 l 50 0 l 50 178 l 361 517 l 50 517 l 50 694 l 632 694 l 632 517 l 313 178 l 632 178 l 632 0 z "},"Ž":{"ha":824,"x_min":35,"x_max":789,"o":"m 296 1099 l 158 1343 l 319 1343 l 399 1197 l 478 1343 l 639 1343 l 501 1099 l 296 1099 m 789 0 l 35 0 l 35 211 l 493 819 l 49 819 l 49 1028 l 775 1028 l 775 826 l 310 208 l 789 208 l 789 0 z "},"ž":{"ha":682,"x_min":50,"x_max":632,"o":"m 239 779 l 101 1024 l 263 1024 l 342 878 l 421 1024 l 582 1024 l 444 779 l 239 779 m 632 0 l 50 0 l 50 178 l 361 517 l 50 517 l 50 694 l 632 694 l 632 517 l 313 178 l 632 178 l 632 0 z "},"ƒ":{"ha":926,"x_min":71,"x_max":856,"o":"m 101 568 l 357 568 l 379 747 q 485 966 396 886 q 719 1046 575 1046 l 856 1046 l 856 840 l 708 840 q 608 733 622 840 l 588 568 l 842 568 l 842 368 l 564 368 l 514 -39 q 420 -233 499 -167 q 181 -299 342 -299 l 71 -299 l 71 -93 l 185 -93 q 254 -70 226 -93 q 288 -4 282 -47 l 333 368 l 101 368 l 101 568 z "},"Ǻ":{"ha":976,"x_min":13,"x_max":964,"o":"m 725 1568 l 571 1338 l 417 1338 l 533 1568 l 725 1568 m 247 0 l 13 0 l 358 968 q 296 1114 296 1024 q 352 1252 296 1196 q 492 1308 408 1308 q 631 1252 575 1308 q 688 1114 688 1196 q 621 967 688 1022 l 964 0 l 725 0 l 653 217 l 321 217 l 247 0 m 432 1053 q 443 1041 432 1053 q 492 1029 454 1029 q 551 1053 529 1029 q 574 1117 574 1076 q 551 1176 574 1153 q 492 1200 528 1200 q 433 1177 456 1200 q 410 1117 410 1154 q 432 1053 410 1076 m 460 625 l 386 406 l 589 406 l 515 625 q 488 725 492 697 q 460 625 482 689 z "},"ǻ":{"ha":783,"x_min":51,"x_max":711,"o":"m 617 1218 l 475 1019 l 333 1019 l 440 1218 l 617 1218 m 290 -18 q 116 42 181 -18 q 51 204 51 101 q 117 357 51 300 q 308 424 183 414 l 503 439 l 503 450 q 385 554 503 554 q 246 457 246 554 l 68 457 q 113 599 68 539 q 236 690 157 660 q 204 801 204 738 q 260 940 204 883 q 400 996 317 996 q 540 940 483 996 q 596 801 596 883 q 558 685 596 736 q 711 406 711 611 l 711 0 l 522 0 l 508 92 q 430 13 492 44 q 290 -18 368 -18 m 340 740 q 351 728 340 740 q 400 717 363 717 q 460 740 438 717 q 482 804 482 764 q 459 864 482 840 q 400 888 436 888 q 341 865 364 888 q 318 804 318 842 q 340 740 318 764 m 365 140 q 467 171 429 140 q 504 260 504 201 l 504 297 l 396 288 q 298 265 326 282 q 269 214 269 247 q 365 140 269 140 z "},"Ǽ":{"ha":1343,"x_min":6,"x_max":1265,"o":"m 1022 1329 l 868 1099 l 714 1099 l 831 1329 l 1022 1329 m 6 0 l 421 1028 l 1265 1028 l 1265 819 l 838 819 l 838 618 l 1217 618 l 1217 421 l 838 421 l 838 208 l 1265 208 l 1265 0 l 613 0 l 613 232 l 350 232 l 263 0 l 6 0 m 422 421 l 613 421 l 613 819 l 574 819 l 422 421 z "},"ǽ":{"ha":1246,"x_min":51,"x_max":1203,"o":"m 836 1010 l 682 779 l 528 779 l 644 1010 l 836 1010 m 51 204 q 121 360 51 304 q 308 419 190 417 l 503 424 l 503 450 q 378 554 503 554 q 280 528 314 554 q 246 457 246 503 l 68 457 q 155 645 68 574 q 382 717 242 717 q 618 636 546 717 q 846 717 710 717 q 1106 616 1013 717 q 1200 347 1200 515 l 1200 293 l 694 290 q 854 156 717 156 q 956 177 917 156 q 1007 235 996 199 l 1203 235 q 1088 51 1183 121 q 850 -18 993 -18 q 575 114 672 -18 q 306 -18 497 -18 q 118 42 185 -18 q 51 204 51 101 m 847 543 q 694 421 721 543 l 988 421 q 951 509 988 475 q 847 543 914 543 m 269 214 q 295 160 269 179 q 365 140 321 140 q 467 172 431 140 q 504 260 504 204 l 504 293 l 382 289 q 295 270 321 286 q 269 214 269 254 z "},"Ǿ":{"ha":1107,"x_min":50,"x_max":1057,"o":"m 768 1308 l 614 1078 l 460 1078 l 576 1308 l 768 1308 m 1057 515 q 916 131 1057 279 q 551 -17 775 -17 q 307 42 417 -17 l 278 1 l 65 1 l 175 147 q 50 514 50 292 q 190 898 50 750 q 553 1046 331 1046 q 806 983 693 1046 l 840 1029 l 1043 1029 l 932 881 q 1057 515 1057 736 m 288 515 q 322 342 288 415 l 671 806 q 554 829 619 829 q 358 746 429 829 q 288 515 288 663 m 819 515 q 786 685 819 617 l 442 222 q 554 200 490 200 q 749 285 678 200 q 819 515 819 369 z "},"ǿ":{"ha":851,"x_min":43,"x_max":808,"o":"m 657 1010 l 503 779 l 349 779 l 465 1010 l 657 1010 m 43 349 q 151 614 43 513 q 426 715 258 715 q 556 697 490 715 l 594 760 l 776 760 l 692 622 q 808 349 808 519 q 701 85 808 186 q 426 -17 593 -17 q 308 -1 367 -17 l 268 -68 l 76 -68 l 164 72 q 43 349 43 175 m 258 350 q 281 257 258 299 l 446 522 q 426 524 440 524 q 305 476 351 524 q 258 350 258 428 m 593 350 q 576 433 593 397 l 418 175 l 426 175 q 547 223 500 175 q 593 350 593 271 z "},"Ș":{"ha":846,"x_min":35,"x_max":804,"o":"m 50 729 q 156 958 50 868 q 428 1047 263 1047 q 690 962 593 1047 q 788 731 788 876 l 564 731 q 526 816 564 785 q 425 847 489 847 q 315 818 356 847 q 275 738 275 789 q 300 666 275 692 q 379 629 325 640 l 533 597 q 738 500 672 569 q 804 310 804 431 q 697 72 804 161 q 413 -18 590 -18 q 138 68 240 -18 q 35 299 35 154 l 258 299 q 299 212 258 242 q 414 182 339 182 q 535 210 490 182 q 579 288 579 239 q 558 354 579 331 q 485 388 536 378 l 328 419 q 50 729 50 476 m 519 -169 q 469 -302 519 -253 q 324 -339 418 -351 l 324 -274 q 436 -221 432 -287 q 397 -231 422 -231 q 336 -206 360 -231 q 313 -142 313 -181 q 340 -73 313 -99 q 414 -47 368 -47 q 490 -81 461 -47 q 519 -169 519 -114 z "},"ș":{"ha":667,"x_min":31,"x_max":636,"o":"m 31 219 l 233 219 q 338 142 238 142 q 435 201 435 142 q 372 256 435 242 l 244 283 q 100 352 146 304 q 54 489 54 400 q 135 656 54 594 q 344 717 217 717 q 542 651 465 717 q 618 482 618 586 l 415 482 q 394 540 415 518 q 335 561 372 561 q 277 544 299 561 q 256 499 256 526 q 331 438 256 454 l 460 410 q 592 346 549 390 q 636 221 636 301 q 551 47 636 111 q 329 -18 467 -18 q 112 48 193 -18 q 31 219 31 114 m 433 -169 q 383 -302 433 -253 q 238 -339 332 -351 l 238 -274 q 350 -221 346 -287 q 311 -231 336 -231 q 250 -206 274 -231 q 226 -142 226 -181 q 254 -73 226 -99 q 328 -47 282 -47 q 404 -81 375 -47 q 433 -169 433 -114 z "},"Ț":{"ha":864,"x_min":28,"x_max":836,"o":"m 28 819 l 28 1028 l 836 1028 l 836 819 l 544 819 l 544 0 l 319 0 l 319 819 l 28 819 m 533 -169 q 483 -302 533 -253 q 338 -339 432 -351 l 338 -274 q 450 -221 446 -287 q 411 -231 436 -231 q 350 -206 374 -231 q 326 -142 326 -181 q 354 -73 326 -99 q 428 -47 382 -47 q 504 -81 475 -47 q 533 -169 533 -114 z "},"ț":{"ha":508,"x_min":15,"x_max":493,"o":"m 361 0 l 147 0 l 147 517 l 15 517 l 15 694 l 147 694 l 147 910 l 361 910 l 361 694 l 493 694 l 493 517 l 361 517 l 361 0 m 365 -169 q 315 -302 365 -253 q 169 -339 264 -351 l 169 -274 q 282 -221 278 -287 q 243 -231 268 -231 q 182 -206 206 -231 q 158 -142 158 -181 q 186 -73 158 -99 q 260 -47 214 -47 q 336 -81 307 -47 q 365 -169 365 -114 z "},"ȷ":{"ha":375,"x_min":-75,"x_max":294,"o":"m -75 -339 l -40 -150 q 13 -158 -15 -158 q 66 -137 51 -158 q 81 -68 81 -115 l 81 694 l 294 694 l 294 -96 q 226 -285 294 -214 q 33 -356 157 -356 q -75 -339 -21 -356 z "},"ˆ":{"ha":592,"x_min":56,"x_max":536,"o":"m 217 1071 l 56 1071 l 193 1315 l 399 1315 l 536 1071 l 375 1071 l 296 1217 l 217 1071 z "},"ˇ":{"ha":592,"x_min":56,"x_max":536,"o":"m 193 1071 l 56 1315 l 217 1315 l 296 1169 l 375 1315 l 536 1315 l 399 1071 l 193 1071 z "},"˘":{"ha":650,"x_min":79,"x_max":571,"o":"m 421 1304 l 571 1304 q 504 1124 571 1190 q 326 1057 438 1057 q 145 1123 211 1057 q 79 1304 79 1189 l 231 1304 q 256 1224 231 1253 q 326 1196 281 1196 q 396 1224 371 1196 q 421 1304 421 1253 z "},"˙":{"ha":338,"x_min":56,"x_max":282,"o":"m 249 1114 q 232 1097 249 1114 q 168 1081 215 1081 q 88 1114 121 1081 q 56 1194 56 1147 q 89 1275 56 1242 q 168 1308 122 1308 q 249 1274 215 1308 q 282 1194 282 1240 q 249 1114 282 1147 z "},"˚":{"ha":494,"x_min":51,"x_max":443,"o":"m 247 1046 q 106 1100 161 1046 q 51 1239 51 1154 q 108 1377 51 1321 q 247 1433 164 1433 q 387 1377 331 1433 q 443 1239 443 1321 q 388 1101 443 1157 q 247 1046 332 1046 m 188 1178 q 199 1166 188 1178 q 247 1154 210 1154 q 307 1178 285 1154 q 329 1242 329 1201 q 306 1301 329 1278 q 247 1325 283 1325 q 188 1302 211 1325 q 165 1242 165 1279 q 188 1178 165 1201 z "},"˛":{"ha":363,"x_min":63,"x_max":314,"o":"m 188 0 l 314 0 q 231 -49 258 -18 q 203 -112 203 -81 q 219 -152 203 -136 q 261 -168 235 -168 q 304 -158 283 -168 l 304 -294 q 222 -310 269 -310 q 106 -267 150 -310 q 63 -161 63 -224 q 94 -66 63 -110 q 188 0 126 -22 z "},"˜":{"ha":649,"x_min":61,"x_max":589,"o":"m 181 1075 l 61 1074 q 89 1237 49 1175 q 206 1299 129 1299 q 328 1256 261 1299 q 419 1213 394 1213 q 469 1299 469 1213 l 589 1299 q 560 1131 600 1188 q 443 1074 519 1074 q 356 1095 397 1074 q 282 1138 314 1117 q 229 1160 250 1160 q 181 1075 181 1160 z "},"˝":{"ha":697,"x_min":56,"x_max":601,"o":"m 357 1301 l 203 1071 l 56 1071 l 186 1301 l 357 1301 m 601 1301 l 447 1071 l 300 1071 l 431 1301 l 601 1301 z "},"̀":{"ha":433,"x_min":69,"x_max":378,"o":"m 378 1071 l 224 1071 l 69 1301 l 261 1301 l 378 1071 z "},"́":{"ha":433,"x_min":56,"x_max":364,"o":"m 364 1301 l 210 1071 l 56 1071 l 172 1301 l 364 1301 z "},"̂":{"ha":592,"x_min":56,"x_max":536,"o":"m 217 1071 l 56 1071 l 193 1315 l 399 1315 l 536 1071 l 375 1071 l 296 1217 l 217 1071 z "},"̃":{"ha":649,"x_min":61,"x_max":589,"o":"m 181 1075 l 61 1074 q 89 1237 49 1175 q 206 1299 129 1299 q 328 1256 261 1299 q 419 1213 394 1213 q 469 1299 469 1213 l 589 1299 q 560 1131 600 1188 q 443 1074 519 1074 q 356 1095 397 1074 q 282 1138 314 1117 q 229 1160 250 1160 q 181 1075 181 1160 z "},"̄":{"ha":569,"x_min":83,"x_max":486,"o":"m 83 1107 l 83 1251 l 486 1251 l 486 1107 l 83 1107 z "},"̆":{"ha":650,"x_min":79,"x_max":571,"o":"m 421 1304 l 571 1304 q 504 1124 571 1190 q 326 1057 438 1057 q 145 1123 211 1057 q 79 1304 79 1189 l 231 1304 q 256 1224 231 1253 q 326 1196 281 1196 q 396 1224 371 1196 q 421 1304 421 1253 z "},"̇":{"ha":338,"x_min":56,"x_max":282,"o":"m 249 1114 q 232 1097 249 1114 q 168 1081 215 1081 q 88 1114 121 1081 q 56 1194 56 1147 q 89 1275 56 1242 q 168 1308 122 1308 q 249 1274 215 1308 q 282 1194 282 1240 q 249 1114 282 1147 z "},"̈":{"ha":633,"x_min":72,"x_max":561,"o":"m 255 1113 q 239 1097 255 1113 q 179 1081 224 1081 q 103 1112 135 1081 q 72 1189 72 1143 q 104 1265 72 1233 q 179 1296 136 1296 q 254 1264 222 1296 q 286 1189 286 1232 q 255 1113 286 1144 m 530 1113 q 514 1097 530 1113 q 454 1081 499 1081 q 378 1112 410 1081 q 347 1189 347 1143 q 379 1265 347 1233 q 454 1296 411 1296 q 529 1264 497 1296 q 561 1189 561 1232 q 530 1113 561 1144 z "},"̊":{"ha":494,"x_min":51,"x_max":443,"o":"m 247 1046 q 106 1100 161 1046 q 51 1239 51 1154 q 108 1377 51 1321 q 247 1433 164 1433 q 387 1377 331 1433 q 443 1239 443 1321 q 388 1101 443 1157 q 247 1046 332 1046 m 188 1178 q 199 1166 188 1178 q 247 1154 210 1154 q 307 1178 285 1154 q 329 1242 329 1201 q 306 1301 329 1278 q 247 1325 283 1325 q 188 1302 211 1325 q 165 1242 165 1279 q 188 1178 165 1201 z "},"̋":{"ha":697,"x_min":56,"x_max":601,"o":"m 357 1301 l 203 1071 l 56 1071 l 186 1301 l 357 1301 m 601 1301 l 447 1071 l 300 1071 l 431 1301 l 601 1301 z "},"̌":{"ha":592,"x_min":56,"x_max":536,"o":"m 193 1071 l 56 1315 l 217 1315 l 296 1169 l 375 1315 l 536 1315 l 399 1071 l 193 1071 z "},"̒":{"ha":318,"x_min":56,"x_max":263,"o":"m 263 1193 q 235 1124 263 1150 q 161 1099 207 1099 q 85 1132 114 1099 q 56 1221 56 1165 q 106 1353 56 1304 q 251 1390 157 1403 l 251 1325 q 139 1272 143 1339 q 178 1282 153 1282 q 239 1257 215 1282 q 263 1193 263 1232 z "},"̦":{"ha":318,"x_min":56,"x_max":263,"o":"m 263 -162 q 212 -295 263 -246 q 67 -332 161 -344 l 67 -267 q 179 -214 175 -281 q 140 -224 165 -224 q 79 -199 103 -224 q 56 -135 56 -174 q 83 -66 56 -92 q 157 -40 111 -40 q 233 -74 204 -40 q 263 -162 263 -107 z "},"̧":{"ha":386,"x_min":42,"x_max":331,"o":"m 42 -296 l 42 -207 q 143 -233 101 -233 q 221 -176 221 -233 q 160 -128 221 -128 q 92 -139 122 -128 l 72 -85 l 142 60 l 201 58 l 201 13 l 160 -67 q 210 -58 181 -58 q 294 -87 258 -58 q 331 -176 331 -117 q 281 -283 331 -244 q 154 -322 231 -322 q 42 -296 94 -322 z "},"̵":{"ha":889,"x_min":3,"x_max":522,"o":"m 3 925 l 522 925 l 522 801 l 3 801 l 3 925 z "},"̷":{"ha":401,"x_min":28,"x_max":381,"o":"m 28 407 l 28 556 l 381 724 l 381 575 l 28 407 z "},"̸":{"ha":811,"x_min":56,"x_max":756,"o":"m 756 767 l 247 -61 l 56 -61 l 574 767 l 756 767 z "},"Ω":{"ha":926,"x_min":76,"x_max":850,"o":"m 419 0 l 76 0 l 76 156 l 193 156 q 100 386 100 256 q 201 620 100 524 q 465 717 303 717 q 729 619 631 717 q 828 388 828 522 q 733 156 828 254 l 850 156 l 850 0 l 508 0 l 508 156 q 609 239 574 183 q 644 364 644 294 q 593 490 644 442 q 464 539 542 539 q 335 490 386 539 q 283 363 283 442 q 320 234 283 289 q 419 156 357 179 l 419 0 z "},"π":{"ha":928,"x_min":18,"x_max":892,"o":"m 139 0 l 139 522 l 18 522 l 18 694 l 892 694 l 892 522 l 761 522 l 761 243 q 831 185 761 185 l 892 185 l 892 7 q 742 -6 811 -6 q 594 43 640 -6 q 547 197 547 92 l 547 522 l 353 522 l 353 0 l 139 0 z "},"Ẁ":{"ha":1485,"x_min":21,"x_max":1464,"o":"m 819 1099 l 665 1099 l 511 1329 l 703 1329 l 819 1099 m 329 0 l 21 1028 l 256 1028 l 390 582 q 442 358 424 471 q 493 582 458 458 l 619 1028 l 871 1028 l 992 582 q 1043 358 1025 457 q 1097 579 1068 482 l 1235 1028 l 1464 1028 l 1150 0 l 931 0 l 743 675 l 550 0 l 329 0 z "},"ẁ":{"ha":1154,"x_min":14,"x_max":1140,"o":"m 656 779 l 501 779 l 347 1010 l 539 1010 l 656 779 m 238 0 l 14 694 l 239 694 l 303 468 q 346 271 329 371 q 396 468 360 354 l 467 694 l 686 694 l 751 468 q 799 271 786 349 q 847 468 808 326 l 914 694 l 1140 694 l 897 0 l 699 0 l 632 221 q 575 446 585 374 q 513 217 563 382 l 446 0 l 238 0 z "},"Ẃ":{"ha":1485,"x_min":21,"x_max":1464,"o":"m 974 1329 l 819 1099 l 665 1099 l 782 1329 l 974 1329 m 329 0 l 21 1028 l 256 1028 l 390 582 q 442 358 424 471 q 493 582 458 458 l 619 1028 l 871 1028 l 992 582 q 1043 358 1025 457 q 1097 579 1068 482 l 1235 1028 l 1464 1028 l 1150 0 l 931 0 l 743 675 l 550 0 l 329 0 z "},"ẃ":{"ha":1154,"x_min":14,"x_max":1140,"o":"m 810 1010 l 656 779 l 501 779 l 618 1010 l 810 1010 m 238 0 l 14 694 l 239 694 l 303 468 q 346 271 329 371 q 396 468 360 354 l 467 694 l 686 694 l 751 468 q 799 271 786 349 q 847 468 808 326 l 914 694 l 1140 694 l 897 0 l 699 0 l 632 221 q 575 446 585 374 q 513 217 563 382 l 446 0 l 238 0 z "},"Ẅ":{"ha":1485,"x_min":21,"x_max":1464,"o":"m 681 1140 q 666 1124 681 1140 q 606 1108 650 1108 q 530 1140 561 1108 q 499 1217 499 1171 q 530 1292 499 1261 q 606 1324 561 1324 q 681 1292 649 1324 q 713 1217 713 1260 q 681 1140 713 1172 m 956 1140 q 941 1124 956 1140 q 881 1108 925 1108 q 805 1140 836 1108 q 774 1217 774 1171 q 805 1292 774 1261 q 881 1324 836 1324 q 956 1292 924 1324 q 988 1217 988 1260 q 956 1140 988 1172 m 329 0 l 21 1028 l 256 1028 l 390 582 q 442 358 424 471 q 493 582 458 458 l 619 1028 l 871 1028 l 992 582 q 1043 358 1025 457 q 1097 579 1068 482 l 1235 1028 l 1464 1028 l 1150 0 l 931 0 l 743 675 l 550 0 l 329 0 z "},"ẅ":{"ha":1154,"x_min":14,"x_max":1140,"o":"m 517 821 q 502 805 517 821 q 442 789 486 789 q 366 820 397 789 q 335 897 335 851 q 366 973 335 942 q 442 1004 397 1004 q 517 972 485 1004 q 549 897 549 940 q 517 821 549 853 m 792 821 q 777 805 792 821 q 717 789 761 789 q 641 820 672 789 q 610 897 610 851 q 641 973 610 942 q 717 1004 672 1004 q 792 972 760 1004 q 824 897 824 940 q 792 821 824 853 m 238 0 l 14 694 l 239 694 l 303 468 q 346 271 329 371 q 396 468 360 354 l 467 694 l 686 694 l 751 468 q 799 271 786 349 q 847 468 808 326 l 914 694 l 1140 694 l 897 0 l 699 0 l 632 221 q 575 446 585 374 q 513 217 563 382 l 446 0 l 238 0 z "},"Ỳ":{"ha":947,"x_min":14,"x_max":933,"o":"m 553 1099 l 399 1099 l 244 1329 l 436 1329 l 553 1099 m 361 390 l 14 1028 l 265 1028 l 438 694 q 476 611 457 657 q 495 650 482 622 q 517 696 508 678 l 689 1028 l 933 1028 l 586 390 l 586 0 l 361 0 l 361 390 z "},"ỳ":{"ha":785,"x_min":7,"x_max":778,"o":"m 481 779 l 326 779 l 172 1010 l 364 1010 l 481 779 m 25 -333 l 25 -154 l 143 -154 q 225 -133 197 -154 q 274 -57 253 -112 l 286 -24 l 7 694 l 236 694 l 388 249 l 556 694 l 778 694 l 425 -151 q 320 -305 382 -257 q 167 -353 258 -353 q 25 -333 90 -353 z "},"–":{"ha":1400,"x_min":97,"x_max":1303,"o":"m 97 278 l 97 467 l 1303 467 l 1303 278 l 97 278 z "},"—":{"ha":1744,"x_min":97,"x_max":1647,"o":"m 97 278 l 97 467 l 1647 467 l 1647 278 l 97 278 z "},"‘":{"ha":421,"x_min":89,"x_max":332,"o":"m 332 763 q 299 677 332 710 q 215 644 267 644 q 124 686 158 644 q 89 797 89 728 q 148 967 89 899 q 303 1047 207 1036 l 303 971 q 219 933 250 961 q 189 864 189 906 q 229 872 206 872 q 303 842 274 872 q 332 763 332 813 z "},"’":{"ha":421,"x_min":89,"x_max":332,"o":"m 332 894 q 273 724 332 793 q 118 644 214 656 l 118 721 q 201 758 171 731 q 232 828 232 786 q 192 819 215 819 q 118 849 147 819 q 89 929 89 879 q 122 1015 89 982 q 206 1047 154 1047 q 297 1006 263 1047 q 332 894 332 964 z "},"‚":{"ha":421,"x_min":89,"x_max":332,"o":"m 332 57 q 273 -113 332 -44 q 118 -193 214 -182 l 118 -117 q 201 -79 171 -107 q 232 -10 232 -51 q 192 -18 215 -18 q 118 12 147 -18 q 89 92 89 42 q 122 177 89 144 q 206 210 154 210 q 297 168 263 210 q 332 57 332 126 z "},"“":{"ha":726,"x_min":89,"x_max":638,"o":"m 332 763 q 299 677 332 710 q 215 644 267 644 q 124 686 158 644 q 89 797 89 728 q 148 967 89 899 q 303 1047 207 1036 l 303 971 q 219 933 250 961 q 189 864 189 906 q 229 872 206 872 q 303 842 274 872 q 332 763 332 813 m 638 763 q 605 677 638 710 q 521 644 572 644 q 429 686 464 644 q 394 797 394 728 q 453 967 394 899 q 608 1047 513 1036 l 608 971 q 525 933 556 961 q 494 864 494 906 q 535 872 511 872 q 608 842 579 872 q 638 763 638 813 z "},"”":{"ha":726,"x_min":89,"x_max":638,"o":"m 332 894 q 273 724 332 793 q 118 644 214 656 l 118 721 q 201 758 171 731 q 232 828 232 786 q 192 819 215 819 q 118 849 147 819 q 89 929 89 879 q 122 1015 89 982 q 206 1047 154 1047 q 297 1006 263 1047 q 332 894 332 964 m 638 894 q 578 724 638 793 q 424 644 519 656 l 424 721 q 507 758 476 731 q 538 828 538 786 q 497 819 521 819 q 424 849 453 819 q 394 929 394 879 q 427 1015 394 982 q 511 1047 460 1047 q 603 1006 568 1047 q 638 894 638 964 z "},"„":{"ha":726,"x_min":89,"x_max":638,"o":"m 332 57 q 273 -113 332 -44 q 118 -193 214 -182 l 118 -117 q 201 -79 171 -107 q 232 -10 232 -51 q 192 -18 215 -18 q 118 12 147 -18 q 89 92 89 42 q 122 177 89 144 q 206 210 154 210 q 297 168 263 210 q 332 57 332 126 m 638 57 q 578 -113 638 -44 q 424 -193 519 -182 l 424 -117 q 507 -79 476 -107 q 538 -10 538 -51 q 497 -18 521 -18 q 424 12 453 -18 q 394 92 394 42 q 427 177 394 144 q 511 210 460 210 q 603 168 568 210 q 638 57 638 126 z "},"†":{"ha":494,"x_min":28,"x_max":467,"o":"m 185 408 l 185 769 l 28 769 l 28 889 l 185 889 l 185 1028 l 310 1028 l 310 889 l 467 889 l 467 769 l 310 769 l 310 408 l 185 408 z "},"‡":{"ha":499,"x_min":28,"x_max":471,"o":"m 185 408 l 185 547 l 32 547 l 32 667 l 185 667 l 185 769 l 28 769 l 28 889 l 185 889 l 185 1028 l 310 1028 l 310 889 l 467 889 l 467 769 l 310 769 l 310 667 l 471 667 l 471 547 l 310 547 l 310 408 l 185 408 z "},"•":{"ha":651,"x_min":89,"x_max":563,"o":"m 328 146 q 160 215 231 146 q 89 379 89 283 q 160 547 89 476 q 328 617 231 617 q 493 546 424 617 q 563 379 563 475 q 492 215 563 283 q 328 146 422 146 z "},"…":{"ha":1178,"x_min":86,"x_max":1092,"o":"m 214 -18 q 124 19 161 -18 q 86 107 86 56 q 124 197 86 160 q 214 233 161 233 q 303 196 265 233 q 342 107 342 158 q 303 19 342 56 q 214 -18 265 -18 m 589 -18 q 499 19 536 -18 q 461 107 461 56 q 499 197 461 160 q 589 233 536 233 q 678 196 640 233 q 717 107 717 158 q 678 19 717 56 q 589 -18 640 -18 m 964 -18 q 874 19 911 -18 q 836 107 836 56 q 874 197 836 160 q 964 233 911 233 q 1053 196 1015 233 q 1092 107 1092 158 q 1053 19 1092 56 q 964 -18 1015 -18 z "},"‰":{"ha":1985,"x_min":36,"x_max":1949,"o":"m 514 969 q 553 930 514 969 q 592 768 592 890 q 514 567 592 646 q 314 489 436 489 q 114 567 192 489 q 36 768 36 646 q 114 969 36 890 q 314 1047 192 1047 q 514 969 436 1047 m 1181 1025 l 400 0 l 190 0 l 971 1025 l 1181 1025 m 394 683 q 410 699 394 683 q 425 768 425 715 q 394 853 425 821 q 314 886 364 886 q 233 853 264 886 q 203 768 203 821 q 233 683 203 715 q 314 650 264 650 q 394 683 364 650 m 1260 462 q 1299 423 1260 462 q 1338 261 1338 383 q 1260 60 1338 139 q 1060 -18 1182 -18 q 860 60 938 -18 q 782 261 782 139 q 860 462 782 383 q 1060 540 938 540 q 1260 462 1182 540 m 1871 462 q 1910 423 1871 462 q 1949 261 1949 383 q 1871 60 1949 139 q 1671 -18 1793 -18 q 1471 60 1549 -18 q 1393 261 1393 139 q 1471 462 1393 383 q 1671 540 1549 540 q 1871 462 1793 540 m 1140 176 q 1156 192 1140 176 q 1171 261 1171 208 q 1140 347 1171 314 q 1060 379 1110 379 q 979 347 1010 379 q 949 261 949 314 q 979 176 949 208 q 1060 143 1010 143 q 1140 176 1110 143 m 1751 176 q 1767 192 1751 176 q 1782 261 1782 208 q 1751 347 1782 314 q 1671 379 1721 379 q 1590 347 1621 379 q 1560 261 1560 314 q 1590 176 1560 208 q 1671 143 1621 143 q 1751 176 1721 143 z "},"′":{"ha":275,"x_min":56,"x_max":217,"o":"m 217 946 l 183 674 l 89 674 l 56 946 q 74 1021 50 994 q 136 1047 99 1047 q 198 1021 174 1047 q 217 946 222 994 z "},"‹":{"ha":694,"x_min":56,"x_max":639,"o":"m 360 0 l 56 347 l 360 694 l 639 694 l 335 347 l 639 0 l 360 0 z "},"›":{"ha":694,"x_min":56,"x_max":639,"o":"m 335 0 l 56 0 l 360 347 l 56 694 l 335 694 l 639 347 l 335 0 z "},"⁂":{"ha":1347,"x_min":28,"x_max":1319,"o":"m 500 782 l 403 817 l 442 917 l 535 886 q 632 835 583 867 q 619 944 619 910 l 619 1047 l 726 1047 l 726 944 q 714 835 726 890 q 813 886 763 869 l 907 917 l 944 817 l 846 782 q 738 760 801 765 q 813 681 771 733 l 869 593 l 782 533 l 724 615 q 671 713 692 660 q 622 615 658 669 l 560 533 l 472 593 l 532 681 q 608 760 571 729 q 500 782 544 765 m 125 232 l 28 267 l 67 367 l 160 336 q 257 285 208 317 q 244 394 244 360 l 244 497 l 351 497 l 351 394 q 339 285 351 340 q 438 336 378 313 l 532 367 l 569 267 l 471 232 q 363 210 426 215 q 438 131 396 183 l 494 43 l 407 -17 l 349 65 q 296 163 319 101 q 247 65 283 119 l 185 -17 l 97 43 l 157 131 q 233 210 196 179 q 125 232 169 215 m 875 232 l 778 267 l 817 367 l 910 336 q 1007 285 958 317 q 994 394 994 360 l 994 497 l 1101 497 l 1101 394 q 1089 285 1101 340 q 1188 336 1128 313 l 1282 367 l 1319 267 l 1221 232 q 1113 210 1176 215 q 1188 131 1146 183 l 1244 43 l 1157 -17 l 1099 65 q 1046 163 1069 101 q 997 65 1033 119 l 935 -17 l 847 43 l 907 131 q 983 210 946 179 q 875 232 919 215 z "},"⁄":{"ha":265,"x_min":-285,"x_max":550,"o":"m 550 986 l -118 0 l -285 0 l 383 986 l 550 986 z "},"⁰":{"ha":600,"x_min":31,"x_max":572,"o":"m 31 765 q 106 999 31 910 q 303 1089 181 1089 q 501 1000 429 1089 q 572 765 572 911 q 498 534 572 621 q 301 447 424 447 q 103 533 175 447 q 31 765 31 619 m 169 765 q 303 571 169 571 q 433 765 433 571 q 303 964 433 964 q 169 765 169 964 z "},"⁴":{"ha":532,"x_min":24,"x_max":535,"o":"m 535 567 l 460 567 l 460 458 l 326 458 l 326 567 l 24 567 l 24 690 l 288 1076 l 460 1076 l 460 688 l 535 688 l 535 567 m 178 688 l 326 688 l 326 911 l 178 688 z "},"⁵":{"ha":511,"x_min":21,"x_max":490,"o":"m 21 663 l 158 663 q 184 597 158 621 q 254 572 210 572 q 326 599 300 572 q 351 672 351 625 q 325 749 351 721 q 253 778 299 778 q 163 728 189 778 l 35 744 l 114 1076 l 451 1076 l 451 953 l 222 953 l 199 872 q 281 889 235 889 q 431 828 372 889 q 490 674 490 768 q 426 510 490 572 q 257 449 361 449 q 88 509 154 449 q 21 663 21 569 z "},"⁶":{"ha":547,"x_min":31,"x_max":517,"o":"m 132 921 l 258 1092 l 415 1092 l 261 885 q 299 890 278 890 q 456 833 396 890 q 517 681 517 776 q 449 512 517 576 q 275 447 381 447 q 100 514 169 447 q 31 681 31 581 q 52 790 31 739 q 132 921 74 842 m 172 674 q 201 600 172 629 q 275 571 229 571 q 348 600 319 571 q 376 674 376 629 q 348 749 376 719 q 275 779 319 779 q 201 749 229 779 q 172 674 172 719 z "},"⁷":{"ha":486,"x_min":25,"x_max":461,"o":"m 461 953 l 263 458 l 126 458 l 329 953 l 25 953 l 25 1076 l 461 1076 l 461 953 z "},"⁸":{"ha":547,"x_min":31,"x_max":517,"o":"m 31 629 q 60 729 31 686 q 139 789 89 772 q 63 917 63 824 q 119 1041 63 993 q 275 1089 176 1089 q 429 1042 372 1089 q 486 915 486 994 q 463 835 486 869 q 403 788 440 801 q 485 731 454 774 q 517 629 517 688 q 451 497 517 546 q 272 449 386 449 q 95 497 160 449 q 31 629 31 546 m 179 903 q 272 839 179 839 q 365 903 365 839 q 341 951 365 932 q 272 971 317 971 q 203 952 226 971 q 179 903 179 933 m 168 647 q 272 572 168 572 q 378 647 378 572 q 350 704 378 685 q 274 724 322 724 q 197 704 225 724 q 168 647 168 685 z "},"⁹":{"ha":547,"x_min":31,"x_max":517,"o":"m 415 629 l 289 458 l 132 458 l 286 665 q 249 660 269 660 q 91 717 151 660 q 31 869 31 774 q 99 1038 31 974 q 272 1103 167 1103 q 447 1036 378 1103 q 517 869 517 969 q 495 760 517 811 q 415 629 474 708 m 375 876 q 347 950 375 921 q 272 979 318 979 q 199 950 228 979 q 171 876 171 921 q 199 801 171 831 q 272 771 228 771 q 347 801 318 771 q 375 876 375 831 z "},"₀":{"ha":603,"x_min":31,"x_max":572,"o":"m 31 168 q 106 402 31 313 q 303 492 181 492 q 501 403 429 492 q 572 168 572 314 q 498 -63 572 24 q 301 -150 424 -150 q 103 -64 175 -150 q 31 168 31 22 m 169 168 q 303 -26 169 -26 q 433 168 433 -26 q 303 367 433 367 q 169 168 169 367 z "},"₁":{"ha":383,"x_min":28,"x_max":325,"o":"m 186 354 l 28 354 l 28 479 l 325 479 l 325 -139 l 186 -139 l 186 354 z "},"₂":{"ha":511,"x_min":31,"x_max":481,"o":"m 481 -139 l 42 -139 l 42 -36 l 271 157 q 336 274 336 210 q 256 367 336 367 q 168 261 168 367 l 31 261 q 94 430 35 368 q 254 492 154 492 q 416 436 357 492 q 475 282 475 381 q 368 81 475 172 l 257 -14 l 481 -14 l 481 -139 z "},"₃":{"ha":504,"x_min":25,"x_max":474,"o":"m 457 368 l 317 249 q 431 187 388 235 q 474 60 474 139 q 409 -93 474 -36 q 247 -150 344 -150 q 88 -93 151 -150 q 25 65 25 -36 l 163 65 q 187 -1 163 22 q 251 -25 211 -25 q 313 -1 289 -25 q 336 61 336 22 q 312 124 336 100 q 236 149 288 149 l 146 149 l 146 239 l 286 356 l 53 356 l 53 479 l 457 479 l 457 368 z "},"₄":{"ha":546,"x_min":24,"x_max":535,"o":"m 535 -31 l 460 -31 l 460 -139 l 326 -139 l 326 -31 l 24 -31 l 24 93 l 288 479 l 460 479 l 460 90 l 535 90 l 535 -31 m 178 90 l 326 90 l 326 314 l 178 90 z "},"₅":{"ha":511,"x_min":21,"x_max":490,"o":"m 21 65 l 158 65 q 184 -1 158 24 q 254 -25 210 -25 q 326 1 300 -25 q 351 75 351 28 q 325 152 351 124 q 253 181 299 181 q 163 131 189 181 l 35 147 l 114 479 l 451 479 l 451 356 l 222 356 l 199 275 q 281 292 235 292 q 431 231 372 292 q 490 76 490 171 q 426 -87 490 -25 q 257 -149 361 -149 q 88 -88 154 -149 q 21 65 21 -28 z "},"₆":{"ha":547,"x_min":31,"x_max":517,"o":"m 132 324 l 258 494 l 415 494 l 261 288 q 299 293 278 293 q 456 236 396 293 q 517 83 517 179 q 449 -85 517 -21 q 275 -150 381 -150 q 100 -83 169 -150 q 31 83 31 -17 q 52 193 31 142 q 132 324 74 244 m 172 76 q 201 3 172 32 q 275 -26 229 -26 q 348 3 319 -26 q 376 76 376 32 q 348 152 376 122 q 275 182 319 182 q 201 152 229 182 q 172 76 172 122 z "},"₇":{"ha":486,"x_min":25,"x_max":461,"o":"m 461 356 l 263 -139 l 126 -139 l 329 356 l 25 356 l 25 479 l 461 479 l 461 356 z "},"₈":{"ha":547,"x_min":31,"x_max":517,"o":"m 31 32 q 60 132 31 89 q 139 192 89 175 q 63 319 63 226 q 119 444 63 396 q 275 492 176 492 q 429 444 372 492 q 486 318 486 397 q 463 238 486 272 q 403 190 440 204 q 485 133 454 176 q 517 32 517 90 q 451 -100 517 -51 q 272 -149 386 -149 q 95 -100 160 -149 q 31 32 31 -51 m 179 306 q 272 242 179 242 q 365 306 365 242 q 341 354 365 335 q 272 374 317 374 q 203 355 226 374 q 179 306 179 336 m 168 50 q 272 -25 168 -25 q 378 50 378 -25 q 350 107 378 88 q 274 126 322 126 q 197 107 225 126 q 168 50 168 88 z "},"₉":{"ha":547,"x_min":31,"x_max":517,"o":"m 415 32 l 289 -139 l 132 -139 l 286 68 q 249 63 269 63 q 91 119 151 63 q 31 272 31 176 q 99 441 31 376 q 272 506 167 506 q 447 439 378 506 q 517 272 517 372 q 495 163 517 214 q 415 32 474 111 m 375 279 q 347 353 375 324 q 272 382 318 382 q 199 353 228 382 q 171 279 171 324 q 199 203 171 233 q 272 174 228 174 q 347 203 318 174 q 375 279 375 233 z "},"€":{"ha":826,"x_min":17,"x_max":776,"o":"m 604 -17 q 297 69 424 -17 q 119 313 169 156 l 17 313 l 17 468 l 92 468 q 90 511 90 482 q 92 550 90 538 l 17 550 l 17 706 l 118 706 q 302 958 169 868 q 625 1047 435 1047 q 763 1031 696 1047 l 763 818 q 638 836 697 836 q 353 706 425 836 l 657 706 l 657 550 l 314 550 q 313 514 313 539 q 314 468 313 483 l 657 468 l 657 313 l 358 313 q 617 193 429 193 q 776 218 692 193 l 776 1 q 604 -17 681 -17 z "},"№":{"ha":1822,"x_min":107,"x_max":1760,"o":"m 1760 718 q 1664 486 1760 578 q 1421 394 1568 394 q 1178 488 1276 394 q 1079 718 1079 582 q 1176 953 1079 860 q 1421 1047 1274 1047 q 1663 953 1567 1047 q 1760 718 1760 860 m 329 0 l 107 0 l 107 1028 l 329 1028 l 763 374 l 763 1028 l 985 1028 l 985 0 l 763 0 l 329 653 l 329 0 m 1563 717 q 1524 819 1563 781 q 1421 857 1486 857 q 1316 819 1356 857 q 1276 717 1276 781 q 1318 620 1276 660 q 1421 581 1360 581 q 1522 619 1482 581 q 1563 717 1563 658 m 1732 154 l 1107 154 l 1107 338 l 1732 338 l 1732 154 z "},"℗":{"ha":725,"x_min":56,"x_max":669,"o":"m 364 435 q 144 522 232 435 q 56 740 56 610 q 144 958 56 869 q 364 1046 233 1046 q 582 959 494 1046 q 669 740 669 872 q 582 522 669 608 q 364 435 494 435 m 364 493 q 538 563 469 493 q 607 740 607 633 q 538 917 607 847 q 364 988 469 988 q 188 917 258 988 q 118 740 118 847 q 188 563 118 633 q 364 493 257 493 m 314 567 l 251 567 l 251 910 l 392 910 q 488 877 451 910 q 525 793 525 844 q 489 699 525 733 q 392 664 453 664 l 314 664 l 314 567 m 314 850 l 314 724 l 392 724 q 458 789 458 724 q 392 850 458 850 l 314 850 z "},"™":{"ha":914,"x_min":36,"x_max":831,"o":"m 167 956 l 36 956 l 36 1028 l 375 1028 l 375 956 l 244 956 l 244 631 l 167 631 l 167 956 m 493 631 l 421 631 l 421 1028 l 493 1028 l 626 707 l 758 1028 l 831 1028 l 831 631 l 758 631 l 758 874 l 657 631 l 594 631 l 493 871 l 493 631 z "},"℮":{"ha":1082,"x_min":83,"x_max":999,"o":"m 83 490 q 212 848 83 710 q 542 986 340 986 q 872 863 746 986 q 999 529 999 740 q 997 456 999 476 l 222 456 l 222 206 q 558 43 336 43 q 755 94 665 43 q 889 228 844 144 l 942 208 q 788 47 890 106 q 556 -12 685 -12 q 213 126 343 -12 q 83 490 83 265 m 222 758 l 222 506 l 860 506 l 860 783 q 725 892 808 854 q 542 931 642 931 q 358 884 440 931 q 222 758 275 838 z "},"⅛":{"ha":1140,"x_min":19,"x_max":1101,"o":"m 153 919 l 19 919 l 19 1028 l 271 1028 l 271 511 l 153 511 l 153 919 m 949 986 l 281 0 l 114 0 l 782 986 l 949 986 m 703 143 q 728 226 703 190 q 794 275 753 263 q 729 386 729 306 q 776 488 729 449 q 903 526 824 526 q 1028 488 982 526 q 1074 385 1074 450 q 1008 275 1074 303 q 1076 228 1050 264 q 1101 143 1101 192 q 1047 33 1101 74 q 901 -8 993 -8 q 756 33 810 -8 q 703 143 703 74 m 849 408 q 840 401 849 408 q 831 369 831 393 q 849 332 831 346 q 901 318 868 318 q 952 333 933 318 q 971 371 971 347 q 953 409 971 394 q 901 424 935 424 q 849 408 867 424 m 844 204 q 833 196 844 204 q 822 158 822 188 q 844 113 822 129 q 901 97 865 97 q 959 113 938 97 q 981 158 981 129 q 959 204 981 188 q 901 221 938 221 q 844 204 865 221 z "},"⅜":{"ha":1174,"x_min":25,"x_max":1135,"o":"m 25 682 l 144 682 q 164 627 144 646 q 215 608 183 608 q 264 628 246 608 q 282 679 282 647 q 262 730 282 710 q 200 750 242 750 l 125 750 l 125 826 l 233 921 l 49 921 l 49 1028 l 388 1028 l 388 932 l 276 832 q 401 678 401 801 q 347 549 401 597 q 213 501 293 501 q 79 549 133 501 q 25 682 25 596 m 982 986 l 314 0 l 147 0 l 815 986 l 982 986 m 736 143 q 761 226 736 190 q 828 275 786 263 q 763 386 763 306 q 810 488 763 449 q 936 526 857 526 q 1061 488 1015 526 q 1107 385 1107 450 q 1042 275 1107 303 q 1109 228 1083 264 q 1135 143 1135 192 q 1081 33 1135 74 q 935 -8 1026 -8 q 790 33 843 -8 q 736 143 736 74 m 882 408 q 873 401 882 408 q 864 369 864 393 q 883 332 864 346 q 935 318 901 318 q 985 333 967 318 q 1004 371 1004 347 q 986 409 1004 394 q 935 424 968 424 q 882 408 900 424 m 877 204 q 866 196 877 204 q 856 158 856 188 q 877 113 856 129 q 935 97 899 97 q 992 113 971 97 q 1014 158 1014 129 q 992 204 1014 188 q 935 221 971 221 q 877 204 899 221 z "},"⅝":{"ha":1200,"x_min":36,"x_max":1161,"o":"m 224 501 q 90 549 144 501 q 36 682 36 596 l 156 682 q 174 627 156 646 q 225 608 193 608 q 283 631 263 608 q 303 692 303 653 q 281 753 303 731 q 224 776 258 776 q 149 735 167 776 l 38 749 l 106 1028 l 399 1028 l 399 921 l 186 921 l 167 854 q 242 874 197 874 q 374 822 326 874 q 422 692 422 771 q 367 554 422 607 q 224 501 313 501 m 1008 986 l 340 0 l 174 0 l 842 986 l 1008 986 m 763 143 q 788 226 763 190 q 854 275 813 263 q 789 386 789 306 q 836 488 789 449 q 963 526 883 526 q 1088 488 1042 526 q 1133 385 1133 450 q 1068 275 1133 303 q 1135 228 1110 264 q 1161 143 1161 192 q 1107 33 1161 74 q 961 -8 1053 -8 q 816 33 869 -8 q 763 143 763 74 m 908 408 q 899 401 908 408 q 890 369 890 393 q 909 332 890 346 q 961 318 928 318 q 1012 333 993 318 q 1031 371 1031 347 q 1013 409 1031 394 q 961 424 994 424 q 908 408 926 424 m 903 204 q 893 196 903 204 q 882 158 882 188 q 903 113 882 129 q 961 97 925 97 q 1019 113 997 97 q 1040 158 1040 129 q 1019 204 1040 188 q 961 221 997 221 q 903 204 925 221 z "},"⅞":{"ha":1096,"x_min":19,"x_max":1057,"o":"m 274 921 l 19 921 l 19 1028 l 390 1028 l 390 921 l 217 511 l 97 511 l 274 921 m 904 986 l 236 0 l 69 0 l 738 986 l 904 986 m 658 143 q 683 226 658 190 q 750 275 708 263 q 685 386 685 306 q 732 488 685 449 q 858 526 779 526 q 983 488 938 526 q 1029 385 1029 450 q 964 275 1029 303 q 1031 228 1006 264 q 1057 143 1057 192 q 1003 33 1057 74 q 857 -8 949 -8 q 712 33 765 -8 q 658 143 658 74 m 804 408 q 795 401 804 408 q 786 369 786 393 q 805 332 786 346 q 857 318 824 318 q 908 333 889 318 q 926 371 926 347 q 908 409 926 394 q 857 424 890 424 q 804 408 822 424 m 799 204 q 789 196 799 204 q 778 158 778 188 q 799 113 778 129 q 857 97 821 97 q 915 113 893 97 q 936 158 936 129 q 915 204 936 188 q 857 221 893 221 q 799 204 821 221 z "},"←":{"ha":1406,"x_min":83,"x_max":1322,"o":"m 722 8 l 610 -106 l 83 418 l 610 944 l 722 833 l 389 499 l 1322 499 l 1322 340 l 389 340 l 722 8 z "},"↑":{"ha":1217,"x_min":83,"x_max":1133,"o":"m 196 571 l 83 683 l 608 1208 l 1133 683 l 1021 571 l 688 904 l 688 0 l 529 0 l 529 904 l 196 571 z "},"→":{"ha":1404,"x_min":83,"x_max":1321,"o":"m 683 843 l 796 954 l 1321 429 l 796 -94 l 683 18 l 1017 351 l 83 351 l 83 508 l 1017 510 l 683 843 z "},"↓":{"ha":1215,"x_min":83,"x_max":1132,"o":"m 1022 467 l 1132 353 l 607 -172 l 83 353 l 197 467 l 529 133 l 529 1065 l 688 1065 l 688 132 l 1022 467 z "},"↔":{"ha":1631,"x_min":83,"x_max":1547,"o":"m 83 394 l 514 821 l 514 596 l 381 471 l 706 472 l 706 474 l 942 474 l 942 472 l 1250 472 l 1117 596 l 1117 821 l 1547 394 l 1117 -36 l 1117 188 l 1253 314 l 378 314 l 514 188 l 514 -36 l 83 394 z "},"↕":{"ha":1024,"x_min":83,"x_max":940,"o":"m 510 -269 l 83 161 l 308 161 l 433 28 l 432 353 l 431 353 l 431 589 l 432 589 l 432 897 l 308 764 l 83 764 l 510 1194 l 940 764 l 717 764 l 590 900 l 590 25 l 717 161 l 940 161 l 510 -269 z "},"↖":{"ha":1160,"x_min":83,"x_max":1076,"o":"m 83 1028 l 825 1026 l 825 867 l 354 867 l 1076 111 l 965 0 l 242 756 l 242 283 l 83 285 l 83 1028 z "},"↗":{"ha":1196,"x_min":83,"x_max":1113,"o":"m 369 869 l 369 1028 l 1113 1028 l 1113 286 l 953 286 l 953 757 l 196 0 l 83 111 l 840 869 l 369 869 z "},"↘":{"ha":1193,"x_min":83,"x_max":1110,"o":"m 951 744 l 1110 743 l 1110 0 l 368 1 l 368 161 l 839 161 l 83 917 l 194 1028 l 951 272 l 951 744 z "},"↙":{"ha":1197,"x_min":83,"x_max":1114,"o":"m 828 158 l 826 0 l 83 0 l 85 742 l 244 742 l 244 271 l 1003 1031 l 1114 919 l 356 158 l 828 158 z "},"∂":{"ha":915,"x_min":64,"x_max":851,"o":"m 64 364 q 169 641 64 539 q 428 743 274 743 q 592 700 533 743 q 339 1028 510 883 l 613 1028 q 794 740 736 894 q 851 436 851 585 q 817 231 851 321 q 726 88 783 140 q 597 8 668 35 q 447 -18 526 -18 q 175 83 286 -18 q 64 364 64 183 m 328 499 q 304 473 328 499 q 279 363 279 446 q 329 226 279 279 q 457 172 379 172 q 584 226 535 172 q 633 363 633 279 q 584 499 633 446 q 457 553 535 553 q 328 499 378 553 z "},"∅":{"ha":1210,"x_min":56,"x_max":1154,"o":"m 599 -17 q 267 114 406 -17 l 153 11 l 56 117 l 176 226 q 99 515 99 354 q 242 894 99 742 q 600 1046 386 1046 q 936 915 797 1046 l 1058 1025 l 1154 919 l 1026 803 q 1101 515 1101 672 q 956 138 1101 292 q 599 -17 810 -17 m 307 515 q 333 368 307 431 l 788 781 q 600 847 713 847 q 388 756 469 847 q 307 515 307 664 m 599 182 q 812 275 731 182 q 893 515 893 368 q 868 660 893 597 l 414 249 q 599 182 489 182 z "},"∆":{"ha":1003,"x_min":69,"x_max":933,"o":"m 933 0 l 69 0 l 69 189 l 403 1028 l 600 1028 l 933 189 l 933 0 m 479 660 l 294 189 l 711 189 l 522 658 q 501 724 507 699 q 479 660 492 685 z "},"∏":{"ha":1006,"x_min":107,"x_max":899,"o":"m 332 0 l 107 0 l 107 1028 l 899 1028 l 899 0 l 674 0 l 674 819 l 332 819 l 332 0 z "},"∑":{"ha":829,"x_min":69,"x_max":760,"o":"m 760 0 l 69 0 l 69 225 l 356 521 l 69 804 l 69 1028 l 760 1028 l 760 819 l 332 819 l 624 521 l 326 208 l 760 208 l 760 0 z "},"−":{"ha":917,"x_min":111,"x_max":806,"o":"m 111 557 l 806 557 l 806 379 l 111 379 l 111 557 z "},"√":{"ha":1049,"x_min":0,"x_max":1021,"o":"m 272 0 l 0 693 l 222 693 l 378 278 l 661 1029 l 1021 1029 l 1021 835 l 807 835 l 481 0 l 272 0 z "},"∞":{"ha":1282,"x_min":56,"x_max":1226,"o":"m 142 187 q 99 230 142 187 q 56 404 56 272 q 141 622 56 536 q 358 708 226 708 q 513 672 449 708 q 642 550 578 636 q 769 672 706 636 q 924 708 833 708 q 1141 622 1056 708 q 1226 404 1226 536 q 1141 187 1226 272 q 924 101 1056 101 q 769 138 833 101 q 642 258 706 174 q 513 138 578 174 q 358 101 449 101 q 142 187 228 101 m 247 404 q 278 318 247 351 q 358 285 308 285 q 517 404 475 285 q 358 524 476 524 q 278 491 308 524 q 247 404 247 458 m 765 404 q 924 285 807 285 q 1004 318 974 285 q 1035 404 1035 351 q 1004 490 1035 457 q 924 524 974 524 q 765 404 806 524 z "},"∫":{"ha":678,"x_min":42,"x_max":636,"o":"m 164 -17 l 42 -17 l 42 178 l 147 178 q 210 201 190 178 q 231 282 231 225 l 231 747 q 309 965 231 883 q 514 1046 388 1046 l 636 1046 l 636 851 l 531 851 q 467 828 488 851 q 447 747 447 804 l 447 282 q 369 65 447 146 q 164 -17 290 -17 z "},"≈":{"ha":917,"x_min":111,"x_max":806,"o":"m 644 704 l 806 704 q 749 520 806 593 q 600 447 693 447 q 494 471 544 447 q 403 517 443 494 q 335 540 364 540 q 272 458 272 540 l 111 458 q 167 638 111 565 q 317 710 224 710 q 421 687 371 710 q 511 640 471 664 q 582 617 551 617 q 644 704 644 617 m 644 413 l 806 413 q 749 228 806 301 q 600 156 693 156 q 494 179 544 156 q 403 226 443 203 q 335 249 364 249 q 272 167 272 249 l 111 167 q 167 346 111 274 q 317 418 224 418 q 421 395 371 418 q 511 349 471 372 q 582 325 551 325 q 644 413 644 325 z "},"≠":{"ha":917,"x_min":111,"x_max":806,"o":"m 142 25 l 226 181 l 111 181 l 111 358 l 324 358 l 393 486 l 111 486 l 111 664 l 490 664 l 575 819 l 775 819 l 690 664 l 806 664 l 806 486 l 593 486 l 524 358 l 806 358 l 806 181 l 426 181 l 342 25 l 142 25 z "},"≤":{"ha":917,"x_min":111,"x_max":806,"o":"m 806 386 l 806 178 l 111 406 l 111 633 l 806 861 l 806 653 l 315 519 l 806 386 m 111 0 l 111 178 l 806 178 l 806 0 l 111 0 z "},"≥":{"ha":917,"x_min":111,"x_max":806,"o":"m 806 406 l 111 178 l 111 386 l 601 519 l 111 653 l 111 861 l 806 633 l 806 406 m 111 178 l 806 178 l 806 0 l 111 0 l 111 178 z "},"■":{"ha":1153,"x_min":83,"x_max":1069,"o":"m 83 0 l 83 986 l 1069 986 l 1069 0 l 83 0 z "},"□":{"ha":1153,"x_min":83,"x_max":1069,"o":"m 83 0 l 83 986 l 1069 986 l 1069 0 l 83 0 m 914 831 l 239 831 l 239 156 l 914 156 l 914 831 z "},"▲":{"ha":1342,"x_min":83,"x_max":1258,"o":"m 83 0 l 671 986 l 1258 0 l 83 0 z "},"△":{"ha":1342,"x_min":83,"x_max":1258,"o":"m 672 992 l 1258 6 l 83 6 l 672 992 m 322 138 l 1019 138 l 671 721 l 322 138 z "},"◊":{"ha":922,"x_min":83,"x_max":839,"o":"m 839 493 l 563 0 l 360 0 l 83 493 l 360 986 l 563 986 l 839 493 m 624 493 l 461 797 l 299 493 l 461 189 l 624 493 z "},"○":{"ha":1242,"x_min":83,"x_max":1158,"o":"m 1001 83 q 922 4 1001 83 q 621 -75 843 -75 q 241 83 399 -75 q 83 463 83 240 q 241 842 83 685 q 621 1000 399 1000 q 1000 842 842 1000 q 1158 463 1158 685 q 1001 83 1158 240 m 339 181 q 397 122 339 181 q 621 64 456 64 q 903 181 786 64 q 1019 463 1019 297 q 902 744 1019 626 q 621 861 785 861 q 339 744 456 861 q 222 463 222 628 q 339 181 222 297 z "},"●":{"ha":1242,"x_min":83,"x_max":1158,"o":"m 1001 83 q 922 4 1001 83 q 621 -75 843 -75 q 241 83 399 -75 q 83 463 83 240 q 241 842 83 685 q 621 1000 399 1000 q 1000 842 842 1000 q 1158 463 1158 685 q 1001 83 1158 240 z "},"☮":{"ha":1242,"x_min":83,"x_max":1158,"o":"m 1001 83 q 922 4 1001 83 q 621 -75 843 -75 q 241 83 399 -75 q 83 463 83 240 q 241 842 83 685 q 621 1000 399 1000 q 1000 842 842 1000 q 1158 463 1158 685 q 1001 83 1158 240 m 222 463 q 253 311 222 385 l 558 526 l 558 856 q 319 722 415 833 q 222 463 222 611 m 1019 463 q 923 721 1019 610 q 683 856 826 832 l 683 526 l 989 311 q 1019 463 1019 385 m 318 204 q 558 69 414 90 l 558 374 l 318 204 m 683 374 l 683 69 q 924 204 828 90 l 683 374 z "},"✓":{"ha":950,"x_min":56,"x_max":894,"o":"m 357 10 l 56 335 l 175 461 l 351 274 l 763 769 l 894 656 l 357 10 z "},"":{"ha":2415,"x_min":83,"x_max":2193,"o":"m 83 0 l 83 972 l 383 972 l 383 0 l 83 0 m 446 689 l 446 972 l 746 972 l 746 689 l 446 689 m 807 0 l 807 972 l 1108 972 l 1108 0 l 807 0 m 1169 689 l 1169 972 l 1469 972 l 1469 689 l 1169 689 m 1531 0 l 1531 972 l 1832 972 l 1832 0 l 1531 0 m 1893 689 l 1893 972 l 2193 972 l 2193 689 l 1893 689 m 1893 343 l 1893 628 l 2193 628 l 2193 343 l 1893 343 z "},"ﬀ":{"ha":975,"x_min":15,"x_max":960,"o":"m 15 694 l 111 694 l 111 750 q 394 1047 111 1047 q 490 1039 440 1047 l 490 856 l 431 856 q 347 828 369 856 q 325 750 325 801 l 325 694 l 581 694 l 581 750 q 864 1047 581 1047 q 960 1039 910 1047 l 960 856 l 900 856 q 817 828 839 856 q 794 750 794 801 l 794 694 l 960 694 l 960 517 l 794 517 l 794 0 l 581 0 l 581 517 l 325 517 l 325 0 l 111 0 l 111 517 l 15 517 l 15 694 z "},"ﬁ":{"ha":878,"x_min":15,"x_max":810,"o":"m 581 0 l 581 517 l 325 517 l 325 0 l 111 0 l 111 517 l 15 517 l 15 694 l 111 694 l 111 750 q 183 974 111 900 q 381 1047 254 1047 q 476 1039 426 1047 l 476 856 l 417 856 q 325 750 325 856 l 325 694 l 796 694 l 796 0 l 581 0 m 689 803 q 602 838 638 803 q 567 925 567 874 q 602 1011 567 976 q 689 1046 638 1046 q 774 1011 739 1046 q 810 925 810 976 q 774 838 810 874 q 689 803 739 803 z "},"ﬂ":{"ha":875,"x_min":15,"x_max":794,"o":"m 15 694 l 111 694 l 111 750 q 181 974 111 901 q 376 1047 250 1047 q 472 1039 422 1047 l 472 856 l 413 856 q 343 828 361 856 q 325 750 325 801 l 325 694 l 581 694 l 581 1047 l 794 1047 l 794 0 l 581 0 l 581 517 l 325 517 l 325 0 l 111 0 l 111 517 l 15 517 l 15 694 z "},"ﬃ":{"ha":1347,"x_min":15,"x_max":1279,"o":"m 15 694 l 111 694 l 111 750 q 394 1047 111 1047 q 490 1039 440 1047 l 490 856 l 431 856 q 347 828 369 856 q 325 750 325 801 l 325 694 l 581 694 l 581 750 q 652 974 581 900 q 850 1047 724 1047 q 946 1039 896 1047 l 946 856 l 886 856 q 794 750 794 856 l 794 694 l 1265 694 l 1265 0 l 1050 0 l 1050 517 l 794 517 l 794 0 l 581 0 l 581 517 l 325 517 l 325 0 l 111 0 l 111 517 l 15 517 l 15 694 m 1158 803 q 1072 838 1107 803 q 1036 925 1036 874 q 1072 1011 1036 976 q 1158 1046 1107 1046 q 1244 1011 1208 1046 q 1279 925 1279 976 q 1244 838 1279 874 q 1158 803 1208 803 z "},"ﬄ":{"ha":1344,"x_min":15,"x_max":1264,"o":"m 15 694 l 111 694 l 111 750 q 394 1047 111 1047 q 490 1039 440 1047 l 490 856 l 431 856 q 347 828 369 856 q 325 750 325 801 l 325 694 l 581 694 l 581 750 q 864 1047 581 1047 q 960 1039 910 1047 l 960 856 l 900 856 q 817 828 839 856 q 794 750 794 801 l 794 694 l 1050 694 l 1050 1047 l 1264 1047 l 1264 0 l 1050 0 l 1050 517 l 794 517 l 794 0 l 581 0 l 581 517 l 325 517 l 325 0 l 111 0 l 111 517 l 15 517 l 15 694 z "}}}
